<svg width="379" height="696" viewBox="0 0 379 696" fill="none" xmlns="http://www.w3.org/2000/svg">
<g clip-path="url(#clip0_2515_281)">
<rect width="379" height="716.061" rx="29.5123" fill="#010086"/>
<mask id="mask0_2515_281" style="mask-type:alpha" maskUnits="userSpaceOnUse" x="0" y="-181" width="419" height="1166">
<rect width="1164.96" height="418.657" transform="matrix(0 1 1 0 0 -180.18)" fill="url(#paint0_radial_2515_281)"/>
</mask>
<g mask="url(#mask0_2515_281)">
</g>
<g clip-path="url(#clip1_2515_281)">
<g opacity="0.5" filter="url(#filter0_d_2515_281)">
<rect x="0.455062" y="0.455062" width="126.507" height="126.507" rx="63.2536" transform="matrix(0 1 1 0 362.232 285.295)" stroke="#C7D2FE" stroke-width="0.910124" shape-rendering="crispEdges"/>
</g>
<g opacity="0.5" filter="url(#filter1_d_2515_281)">
<rect x="0.455062" y="0.455062" width="199.317" height="199.317" rx="99.6586" transform="matrix(0 1 1 0 325.823 248.89)" stroke="#C7D2FE" stroke-width="0.910124" shape-rendering="crispEdges"/>
</g>
<g opacity="0.5" filter="url(#filter2_d_2515_281)">
<rect x="0.455062" y="0.455062" width="272.127" height="272.127" rx="136.064" transform="matrix(0 1 1 0 289.421 212.488)" stroke="#C7D2FE" stroke-width="0.910124" shape-rendering="crispEdges"/>
</g>
<g opacity="0.5" filter="url(#filter3_d_2515_281)">
<rect x="0.455062" y="0.455062" width="344.937" height="344.937" rx="172.469" transform="matrix(0 1 1 0 253.018 176.079)" stroke="#C7D2FE" stroke-width="0.910124" shape-rendering="crispEdges"/>
</g>
<g opacity="0.5" filter="url(#filter4_d_2515_281)">
<rect x="0.455062" y="0.455062" width="417.747" height="417.747" rx="208.874" transform="matrix(0 1 1 0 216.613 139.678)" stroke="#C7D2FE" stroke-width="0.910124" shape-rendering="crispEdges"/>
</g>
<g opacity="0.5" filter="url(#filter5_d_2515_281)">
<rect x="0.455062" y="0.455062" width="490.557" height="490.557" rx="245.278" transform="matrix(0 1 1 0 180.207 103.27)" stroke="#C7D2FE" stroke-width="0.910124" shape-rendering="crispEdges"/>
</g>
<g opacity="0.5" filter="url(#filter6_d_2515_281)">
<rect x="0.455062" y="0.455062" width="563.367" height="563.367" rx="281.684" transform="matrix(0 1 1 0 143.801 66.8604)" stroke="#C7D2FE" stroke-width="0.910124" shape-rendering="crispEdges"/>
</g>
<g opacity="0.5" filter="url(#filter7_d_2515_281)">
<rect x="0.455062" y="0.455062" width="636.177" height="636.177" rx="318.088" transform="matrix(0 1 1 0 107.396 30.4609)" stroke="#C7D2FE" stroke-width="0.910124" shape-rendering="crispEdges"/>
</g>
<g opacity="0.5" filter="url(#filter8_d_2515_281)">
<rect x="0.455062" y="0.455062" width="708.987" height="708.987" rx="354.493" transform="matrix(0 1 1 0 70.9902 -5.94678)" stroke="#C7D2FE" stroke-width="0.910124" shape-rendering="crispEdges"/>
</g>
</g>
<rect x="140.933" y="172.375" width="81.7724" height="27.2575" rx="13.6287" transform="rotate(2.75415 140.933 172.375)" fill="#587DBD"/>
<path d="M161.198 190.498L161.557 183.03L165.981 183.243L165.929 184.327L162.589 184.166L162.488 186.272L165.205 186.403L165.153 187.492L162.436 187.361L162.282 190.55L161.198 190.498ZM168.829 191.021C168.269 190.994 167.789 190.845 167.39 190.572C166.991 190.3 166.689 189.938 166.486 189.484C166.286 189.028 166.2 188.509 166.228 187.928C166.256 187.344 166.395 186.836 166.645 186.404C166.894 185.969 167.231 185.639 167.654 185.413C168.077 185.184 168.564 185.083 169.114 185.109C169.674 185.136 170.153 185.286 170.553 185.558C170.952 185.83 171.253 186.193 171.457 186.646C171.66 187.1 171.748 187.615 171.72 188.192C171.692 188.776 171.553 189.286 171.303 189.721C171.057 190.153 170.723 190.485 170.299 190.718C169.876 190.947 169.386 191.048 168.829 191.021ZM168.878 190C169.414 190.025 169.822 189.865 170.102 189.518C170.386 189.168 170.541 188.707 170.569 188.137C170.597 187.553 170.485 187.079 170.232 186.717C169.982 186.352 169.593 186.156 169.064 186.131C168.701 186.113 168.398 186.182 168.155 186.337C167.912 186.488 167.727 186.706 167.599 186.991C167.471 187.272 167.398 187.603 167.379 187.983C167.351 188.571 167.463 189.048 167.716 189.413C167.969 189.779 168.356 189.974 168.878 190ZM174.828 191.305C174.441 191.286 174.119 191.208 173.862 191.071C173.605 190.934 173.399 190.761 173.243 190.553C173.09 190.341 172.976 190.113 172.901 189.871C172.826 189.628 172.779 189.392 172.758 189.162C172.738 188.933 172.732 188.731 172.741 188.558L172.89 185.447L173.99 185.5L173.857 188.253C173.847 188.471 173.853 188.697 173.877 188.93C173.904 189.16 173.963 189.376 174.054 189.578C174.148 189.78 174.284 189.946 174.461 190.076C174.642 190.206 174.881 190.278 175.178 190.292C175.372 190.302 175.557 190.279 175.733 190.225C175.909 190.168 176.064 190.071 176.199 189.936C176.337 189.8 176.448 189.619 176.532 189.39C176.619 189.163 176.67 188.883 176.686 188.551L177.348 188.837C177.324 189.345 177.207 189.79 176.998 190.172C176.789 190.55 176.502 190.839 176.135 191.04C175.769 191.241 175.333 191.329 174.828 191.305ZM176.687 191.243L176.765 189.625L176.635 189.619L176.827 185.636L177.921 185.689L177.651 191.29L176.687 191.243ZM183.037 191.549L183.169 188.795C183.18 188.577 183.171 188.353 183.144 188.123C183.121 187.89 183.062 187.672 182.968 187.47C182.877 187.268 182.741 187.102 182.56 186.972C182.383 186.843 182.146 186.771 181.848 186.756C181.655 186.747 181.47 186.771 181.294 186.828C181.118 186.882 180.961 186.977 180.823 187.112C180.688 187.248 180.577 187.43 180.49 187.658C180.406 187.886 180.356 188.166 180.34 188.498L179.678 188.211C179.703 187.703 179.819 187.26 180.028 186.882C180.237 186.5 180.525 186.209 180.891 186.008C181.258 185.808 181.694 185.72 182.198 185.744C182.586 185.763 182.908 185.84 183.164 185.977C183.421 186.115 183.626 186.289 183.779 186.501C183.935 186.709 184.05 186.935 184.125 187.178C184.2 187.42 184.248 187.657 184.268 187.886C184.288 188.116 184.294 188.317 184.286 188.49L184.136 191.602L183.037 191.549ZM179.101 191.359L179.37 185.759L180.34 185.805L180.262 187.423L180.392 187.429L180.2 191.412L179.101 191.359ZM187.633 191.926C187.111 191.901 186.666 191.749 186.298 191.472C185.934 191.194 185.659 190.828 185.473 190.372C185.291 189.912 185.213 189.403 185.24 188.843C185.267 188.279 185.395 187.781 185.624 187.348C185.852 186.912 186.163 186.576 186.556 186.338C186.952 186.097 187.413 185.99 187.938 186.015C188.467 186.04 188.905 186.191 189.252 186.468C189.603 186.741 189.859 187.105 190.021 187.56C190.186 188.015 190.256 188.523 190.229 189.083C190.202 189.643 190.084 190.141 189.876 190.578C189.668 191.015 189.376 191.356 189 191.602C188.625 191.843 188.169 191.952 187.633 191.926ZM187.831 190.953C188.187 190.97 188.481 190.899 188.714 190.741C188.947 190.582 189.123 190.357 189.241 190.064C189.359 189.772 189.427 189.432 189.446 189.045C189.464 188.658 189.427 188.313 189.334 188.01C189.245 187.708 189.093 187.469 188.88 187.292C188.67 187.116 188.396 187.019 188.057 187.003C187.698 186.986 187.398 187.06 187.158 187.225C186.918 187.39 186.733 187.618 186.605 187.91C186.48 188.202 186.409 188.532 186.391 188.898C186.373 189.268 186.412 189.606 186.509 189.912C186.608 190.215 186.766 190.46 186.983 190.647C187.202 190.834 187.485 190.936 187.831 190.953ZM189.311 191.85L189.504 187.821L189.38 187.815L189.545 184.377L190.634 184.429L190.275 191.897L189.311 191.85ZM194.203 192.242C193.646 192.215 193.163 192.07 192.753 191.808C192.346 191.543 192.036 191.186 191.822 190.739C191.611 190.289 191.52 189.775 191.547 189.198C191.577 188.586 191.717 188.061 191.966 187.622C192.22 187.184 192.558 186.852 192.981 186.626C193.404 186.401 193.889 186.301 194.435 186.327C195.006 186.355 195.485 186.511 195.873 186.797C196.262 187.079 196.543 187.468 196.716 187.965C196.893 188.462 196.945 189.045 196.871 189.714L195.787 189.662L195.806 189.268C195.831 188.617 195.729 188.131 195.502 187.808C195.279 187.485 194.922 187.312 194.431 187.289C193.888 187.263 193.472 187.414 193.182 187.743C192.892 188.072 192.732 188.56 192.701 189.207C192.671 189.822 192.785 190.306 193.042 190.658C193.299 191.006 193.685 191.193 194.2 191.218C194.539 191.234 194.835 191.172 195.087 191.032C195.344 190.888 195.548 190.676 195.7 190.396L196.747 190.784C196.505 191.275 196.156 191.648 195.7 191.903C195.245 192.155 194.746 192.268 194.203 192.242ZM192.334 189.496L192.374 188.65L196.373 188.843L196.332 189.688L192.334 189.496ZM197.915 192.264L198.184 186.664L199.149 186.71L199.083 188.069L198.957 187.886C199.035 187.709 199.133 187.55 199.25 187.406C199.368 187.259 199.502 187.141 199.652 187.051C199.799 186.954 199.96 186.882 200.136 186.835C200.315 186.785 200.496 186.759 200.68 186.758C200.864 186.753 201.04 186.77 201.208 186.809L201.159 187.826C200.978 187.768 200.774 187.745 200.549 187.755C200.327 187.765 200.119 187.826 199.927 187.938C199.745 188.043 199.598 188.175 199.487 188.332C199.379 188.49 199.297 188.668 199.243 188.866C199.188 189.061 199.156 189.269 199.145 189.491L199.009 192.317L197.915 192.264Z" fill="white"/>
<path d="M134.173 154.711C134.141 153.891 135.075 153.402 135.731 153.894L146.141 161.717C146.921 162.303 146.45 163.544 145.478 163.466L141.956 163.182C140.458 163.061 139.025 163.813 138.273 165.113L136.503 168.172C136.014 169.016 134.726 168.697 134.687 167.723L134.173 154.711Z" fill="#587DBD"/>
<rect x="282.522" y="275.953" width="81.7724" height="27.2575" rx="13.6287" transform="rotate(-8.66324 282.522 275.953)" fill="#26B1F3"/>
<path d="M308.446 289.33L307.32 281.939L308.29 281.791L311.816 286.941L313.633 280.977L314.613 280.827L315.739 288.213L314.722 288.368L313.952 283.313L312.337 288.737L311.849 288.811L308.686 284.115L309.457 289.176L308.446 289.33ZM319.66 287.779C319.109 287.863 318.606 287.817 318.152 287.641C317.701 287.461 317.327 287.173 317.028 286.777C316.733 286.378 316.541 285.892 316.454 285.321C316.362 284.715 316.395 284.173 316.553 283.694C316.714 283.214 316.98 282.821 317.35 282.516C317.721 282.211 318.176 282.018 318.717 281.935C319.281 281.849 319.782 281.908 320.219 282.111C320.656 282.31 321.008 282.637 321.277 283.089C321.549 283.542 321.715 284.103 321.775 284.773L320.702 284.936L320.643 284.546C320.538 283.904 320.342 283.447 320.056 283.176C319.773 282.904 319.388 282.805 318.902 282.879C318.365 282.961 317.987 283.191 317.769 283.571C317.55 283.951 317.489 284.461 317.587 285.101C317.68 285.71 317.887 286.162 318.208 286.456C318.529 286.747 318.944 286.853 319.454 286.775C319.789 286.724 320.067 286.605 320.287 286.417C320.51 286.226 320.668 285.978 320.762 285.673L321.865 285.846C321.725 286.375 321.457 286.81 321.061 287.15C320.664 287.487 320.197 287.697 319.66 287.779ZM317.284 285.457L317.156 284.62L321.114 284.017L321.241 284.854L317.284 285.457ZM327.043 286.496L326.628 283.771C326.595 283.555 326.542 283.337 326.47 283.117C326.401 282.893 326.3 282.692 326.168 282.512C326.039 282.332 325.873 282.196 325.67 282.105C325.47 282.013 325.223 281.989 324.929 282.034C324.738 282.063 324.561 282.123 324.4 282.214C324.238 282.302 324.103 282.426 323.994 282.586C323.889 282.746 323.816 282.946 323.776 283.186C323.739 283.427 323.746 283.711 323.796 284.039L323.09 283.89C323.014 283.387 323.04 282.929 323.17 282.517C323.299 282.102 323.524 281.76 323.843 281.49C324.163 281.221 324.572 281.048 325.072 280.972C325.455 280.914 325.786 280.926 326.065 281.01C326.344 281.094 326.579 281.224 326.771 281.401C326.965 281.575 327.123 281.773 327.245 281.996C327.366 282.219 327.46 282.441 327.525 282.663C327.59 282.884 327.636 283.08 327.662 283.251L328.131 286.33L327.043 286.496ZM323.147 287.09L322.303 281.547L323.262 281.4L323.506 283.002L323.635 282.982L324.235 286.924L323.147 287.09ZM332.64 285.643C332.301 285.765 331.964 285.846 331.627 285.887C331.29 285.928 330.98 285.909 330.699 285.829C330.417 285.749 330.19 285.591 330.017 285.355C329.863 285.144 329.762 284.921 329.716 284.687C329.673 284.448 329.628 284.178 329.582 283.877L328.835 278.976L329.913 278.811L330.652 283.662C330.686 283.884 330.717 284.077 330.746 284.241C330.777 284.404 330.834 284.537 330.917 284.64C331.072 284.834 331.286 284.925 331.557 284.916C331.832 284.902 332.147 284.842 332.501 284.735L332.64 285.643ZM328.139 281.54L328.007 280.677L331.795 280.1L331.927 280.962L328.139 281.54ZM335.989 285.291C335.434 285.375 334.935 285.324 334.489 285.136C334.044 284.948 333.677 284.652 333.388 284.248C333.101 283.84 332.914 283.349 332.827 282.774C332.739 282.195 332.774 281.67 332.933 281.198C333.092 280.722 333.356 280.332 333.727 280.027C334.096 279.718 334.553 279.522 335.097 279.44C335.651 279.355 336.151 279.407 336.596 279.594C337.042 279.782 337.409 280.078 337.698 280.482C337.987 280.886 338.175 281.374 338.262 281.946C338.35 282.524 338.315 283.051 338.157 283.527C338.001 283.999 337.739 284.39 337.369 284.702C337 285.011 336.54 285.207 335.989 285.291ZM335.835 284.28C336.365 284.199 336.733 283.961 336.939 283.565C337.148 283.166 337.209 282.684 337.123 282.119C337.035 281.541 336.831 281.099 336.511 280.794C336.195 280.485 335.775 280.371 335.251 280.451C334.892 280.505 334.608 280.633 334.401 280.832C334.193 281.029 334.054 281.279 333.985 281.584C333.915 281.885 333.909 282.224 333.966 282.6C334.055 283.182 334.259 283.627 334.579 283.935C334.899 284.244 335.318 284.358 335.835 284.28ZM339.813 284.55L338.969 279.007L339.923 278.862L340.128 280.207L339.968 280.052C340.01 279.864 340.074 279.688 340.161 279.524C340.247 279.357 340.355 279.214 340.484 279.097C340.609 278.973 340.753 278.87 340.916 278.789C341.081 278.705 341.254 278.643 341.434 278.605C341.613 278.564 341.789 278.546 341.961 278.551L342.114 279.557C341.926 279.537 341.722 279.554 341.502 279.609C341.287 279.662 341.095 279.763 340.929 279.911C340.772 280.051 340.654 280.209 340.576 280.385C340.501 280.561 340.456 280.752 340.442 280.957C340.427 281.159 340.437 281.369 340.47 281.588L340.896 284.385L339.813 284.55Z" fill="white"/>
<path d="M279.648 254.109C279.653 253.289 280.608 252.842 281.241 253.364L291.285 261.652C292.038 262.273 291.511 263.491 290.544 263.369L287.037 262.925C285.547 262.737 284.081 263.422 283.27 264.687L281.363 267.662C280.837 268.483 279.564 268.106 279.57 267.131L279.648 254.109Z" fill="#26B1F3"/>
<rect x="35.9746" y="338.53" width="97.348" height="27.2575" rx="13.6287" transform="rotate(-7.25028 35.9746 338.53)" fill="#2C2BEE"/>
<path d="M60.8537 352.631L59.9101 345.215L64.3034 344.656L64.4403 345.732L61.1235 346.154L61.3895 348.245L64.0883 347.902L64.2259 348.983L61.5271 349.327L61.9301 352.494L60.8537 352.631ZM66.1751 351.954L65.4674 346.392L66.4254 346.27L66.597 347.619L66.4409 347.461C66.4868 347.274 66.5553 347.099 66.6464 346.938C66.7371 346.773 66.8484 346.633 66.9804 346.519C67.108 346.398 67.2542 346.299 67.4189 346.222C67.5866 346.141 67.7608 346.084 67.9415 346.051C68.1217 346.014 68.2979 346 68.4701 346.01L68.5985 347.019C68.4104 346.994 68.2061 347.006 67.9855 347.055C67.7684 347.104 67.5748 347.2 67.4046 347.344C67.2439 347.479 67.1223 347.634 67.0399 347.809C66.9608 347.983 66.9117 348.172 66.8924 348.377C66.8726 348.579 66.8767 348.789 66.9047 349.009L67.2618 351.816L66.1751 351.954ZM72.5446 351.301C71.9918 351.371 71.4907 351.313 71.0412 351.126C70.5947 350.935 70.2272 350.638 69.9387 350.235C69.6532 349.828 69.474 349.338 69.401 348.765C69.3237 348.157 69.3699 347.615 69.5398 347.14C69.713 346.665 69.9885 346.279 70.366 345.983C70.7436 345.687 71.2037 345.505 71.7462 345.436C72.3127 345.364 72.812 345.435 73.2439 345.648C73.6754 345.859 74.0198 346.193 74.2771 346.653C74.5378 347.111 74.69 347.677 74.7335 348.348L73.6571 348.485L73.6073 348.093C73.5183 347.449 73.334 346.987 73.0543 346.709C72.7781 346.43 72.3962 346.322 71.9086 346.384C71.3695 346.452 70.986 346.674 70.758 347.048C70.53 347.422 70.4568 347.931 70.5385 348.573C70.6162 349.184 70.8122 349.641 71.1262 349.943C71.4398 350.241 71.8525 350.358 72.3641 350.293C72.7006 350.25 72.9811 350.138 73.2056 349.955C73.4332 349.769 73.5975 349.525 73.6986 349.223L74.797 349.423C74.6441 349.949 74.3653 350.377 73.9607 350.707C73.5558 351.034 73.0837 351.232 72.5446 351.301ZM70.2269 348.921L70.1201 348.082L74.0911 347.577L74.1979 348.416L70.2269 348.921ZM78.6909 350.519C78.1381 350.589 77.637 350.531 77.1875 350.344C76.741 350.153 76.3735 349.856 76.085 349.453C75.7994 349.046 75.6202 348.556 75.5473 347.983C75.4699 347.375 75.5162 346.833 75.686 346.358C75.8593 345.883 76.1347 345.497 76.5123 345.201C76.8899 344.905 77.3499 344.723 77.8924 344.654C78.459 344.582 78.9582 344.653 79.3901 344.866C79.8216 345.077 80.166 345.412 80.4233 345.871C80.6841 346.33 80.8362 346.895 80.8798 347.566L79.8033 347.703L79.7535 347.312C79.6645 346.667 79.4802 346.205 79.2006 345.927C78.9243 345.648 78.5424 345.54 78.0549 345.602C77.5158 345.67 77.1322 345.892 76.9042 346.266C76.6762 346.641 76.6031 347.149 76.6847 347.791C76.7625 348.402 76.9584 348.859 77.2725 349.161C77.5861 349.459 77.9987 349.576 78.5103 349.511C78.8468 349.468 79.1273 349.356 79.3519 349.173C79.5795 348.988 79.7438 348.743 79.8449 348.441L80.9433 348.641C80.7903 349.167 80.5116 349.595 80.107 349.925C79.702 350.252 79.23 350.45 78.6909 350.519ZM76.3732 348.139L76.2664 347.3L80.2373 346.795L80.3441 347.634L76.3732 348.139ZM82.4535 349.883L81.4903 342.312L82.5667 342.175L83.5299 349.746L82.4535 349.883ZM86.6671 349.504C86.255 349.557 85.9004 349.525 85.603 349.409C85.3052 349.29 85.0683 349.114 84.8922 348.882C84.7191 348.646 84.6133 348.377 84.5749 348.075C84.5391 347.793 84.5574 347.539 84.6299 347.314C84.7024 347.088 84.8271 346.889 85.004 346.717C85.1805 346.541 85.4054 346.388 85.6786 346.259C85.9166 346.156 86.1884 346.057 86.4938 345.962C86.7993 345.867 87.1207 345.774 87.4579 345.682C87.7986 345.59 88.1358 345.498 88.4696 345.407L88.1057 345.673C88.0571 345.236 87.9233 344.925 87.7044 344.74C87.4885 344.551 87.1487 344.487 86.6852 344.546C86.3934 344.583 86.1343 344.685 85.908 344.854C85.6812 345.019 85.5396 345.263 85.4833 345.588L84.4396 345.407C84.5162 344.912 84.7289 344.5 85.0777 344.169C85.4298 343.838 85.927 343.632 86.5691 343.55C87.0669 343.487 87.5105 343.518 87.8997 343.643C88.2919 343.764 88.5973 343.997 88.8157 344.343C88.9281 344.513 89.0075 344.698 89.0539 344.898C89.1003 345.098 89.1383 345.315 89.168 345.549L89.6037 348.974L88.6509 349.095L88.4891 347.823L88.6955 347.964C88.5196 348.419 88.2664 348.774 87.936 349.029C87.6085 349.28 87.1855 349.438 86.6671 349.504ZM86.7456 348.599C87.0512 348.56 87.3071 348.474 87.5133 348.339C87.7191 348.201 87.8782 348.04 87.9907 347.855C88.1032 347.669 88.1685 347.483 88.1865 347.296C88.2239 347.124 88.233 346.934 88.2136 346.727C88.1977 346.52 88.1819 346.354 88.1662 346.231L88.5328 346.315C88.1994 346.41 87.8963 346.495 87.6234 346.572C87.3505 346.649 87.1034 346.722 86.882 346.792C86.6637 346.858 86.4704 346.93 86.3023 347.007C86.1612 347.077 86.0369 347.156 85.9293 347.243C85.8252 347.329 85.7453 347.428 85.6897 347.54C85.6376 347.652 85.6209 347.781 85.6397 347.929C85.6581 348.073 85.7111 348.202 85.799 348.317C85.8864 348.428 86.0085 348.51 86.1653 348.563C86.3221 348.616 86.5155 348.628 86.7456 348.599ZM94.8451 348.307L94.4972 345.572C94.4697 345.356 94.4226 345.137 94.356 344.915C94.2924 344.689 94.1967 344.485 94.0688 344.302C93.9443 344.119 93.7817 343.979 93.581 343.883C93.3837 343.786 93.1374 343.756 92.8422 343.794C92.6499 343.818 92.472 343.874 92.3087 343.961C92.1449 344.045 92.0067 344.165 91.8941 344.322C91.785 344.479 91.7073 344.678 91.661 344.917C91.6181 345.157 91.6177 345.441 91.6596 345.771L90.958 345.603C90.8938 345.099 90.9316 344.642 91.0715 344.233C91.211 343.821 91.4438 343.485 91.77 343.223C92.0961 342.962 92.5098 342.8 93.0111 342.736C93.3957 342.687 93.7263 342.708 94.003 342.798C94.2797 342.888 94.5116 343.025 94.6987 343.207C94.8889 343.385 95.042 343.587 95.1579 343.813C95.2739 344.039 95.3618 344.263 95.4215 344.486C95.4812 344.709 95.522 344.906 95.5439 345.078L95.937 348.168L94.8451 348.307ZM90.936 348.804L90.2283 343.242L91.1915 343.119L91.3959 344.726L91.5247 344.71L92.0279 348.665L90.936 348.804ZM99.6072 347.858C99.0373 347.93 98.537 347.865 98.1064 347.662C97.6757 347.458 97.3258 347.149 97.0566 346.733C96.7908 346.316 96.6203 345.827 96.5453 345.264C96.4757 344.69 96.5212 344.17 96.6816 343.703C96.8416 343.232 97.1065 342.846 97.4763 342.545C97.8461 342.243 98.3126 342.056 98.8757 341.985C99.4835 341.907 100.021 341.992 100.489 342.24C100.96 342.487 101.298 342.864 101.502 343.372L100.47 343.818C100.324 343.519 100.118 343.299 99.852 343.158C99.5894 343.014 99.3018 342.961 98.9894 343.001C98.6357 343.046 98.3563 343.167 98.1511 343.364C97.9454 343.558 97.806 343.806 97.7328 344.108C97.6596 344.411 97.6449 344.747 97.6886 345.119C97.765 345.692 97.9545 346.139 98.257 346.46C98.5629 346.78 98.97 346.908 99.4782 346.843C99.825 346.799 100.095 346.685 100.288 346.5C100.483 346.311 100.619 346.06 100.694 345.747L101.819 345.865C101.706 346.431 101.458 346.886 101.077 347.231C100.695 347.573 100.205 347.782 99.6072 347.858ZM105.398 347.121C104.846 347.191 104.344 347.133 103.895 346.946C103.449 346.755 103.081 346.458 102.793 346.055C102.507 345.648 102.328 345.158 102.255 344.585C102.177 343.977 102.224 343.436 102.394 342.961C102.567 342.485 102.842 342.099 103.22 341.803C103.597 341.508 104.057 341.325 104.6 341.256C105.167 341.184 105.666 341.255 106.098 341.469C106.529 341.679 106.874 342.014 107.131 342.473C107.392 342.932 107.544 343.497 107.587 344.168L106.511 344.305L106.461 343.914C106.372 343.269 106.188 342.808 105.908 342.529C105.632 342.25 105.25 342.142 104.762 342.204C104.223 342.272 103.84 342.494 103.612 342.868C103.384 343.243 103.311 343.751 103.392 344.393C103.47 345.004 103.666 345.461 103.98 345.763C104.294 346.061 104.706 346.178 105.218 346.113C105.554 346.07 105.835 345.958 106.059 345.776C106.287 345.59 106.451 345.346 106.552 345.043L107.651 345.244C107.498 345.769 107.219 346.197 106.815 346.528C106.41 346.855 105.938 347.053 105.398 347.121ZM103.081 344.742L102.974 343.902L106.945 343.397L107.052 344.236L103.081 344.742ZM109.058 346.499L108.35 340.936L109.308 340.814L109.48 342.164L109.324 342.006C109.37 341.818 109.438 341.644 109.529 341.482C109.62 341.317 109.731 341.177 109.863 341.063C109.991 340.942 110.137 340.843 110.302 340.766C110.47 340.686 110.644 340.629 110.824 340.595C111.005 340.558 111.181 340.545 111.353 340.554L111.481 341.564C111.293 341.539 111.089 341.551 110.868 341.6C110.651 341.648 110.458 341.744 110.288 341.888C110.127 342.024 110.005 342.179 109.923 342.353C109.844 342.527 109.795 342.717 109.775 342.922C109.756 343.123 109.76 343.334 109.788 343.553L110.145 346.36L109.058 346.499Z" fill="white"/>
<path d="M140.103 310.898C140.825 310.507 141.676 311.129 141.523 311.935L139.097 324.729C138.915 325.688 137.594 325.813 137.235 324.906L135.936 321.62C135.383 320.223 134.076 319.268 132.577 319.167L129.051 318.928C128.078 318.862 127.796 317.565 128.653 317.101L140.103 310.898Z" fill="#2C2BEE"/>
<rect x="163.989" y="420.738" width="97.348" height="27.2575" rx="13.6287" transform="rotate(12.89 163.989 420.738)" fill="#3CC1CD"/>
<path d="M188.442 443.905L190.11 436.617L191.168 436.86L189.5 444.147L188.442 443.905ZM194.856 445.373L195.471 442.686C195.52 442.473 195.551 442.251 195.565 442.02C195.583 441.786 195.563 441.562 195.506 441.346C195.452 441.132 195.348 440.944 195.193 440.784C195.041 440.625 194.82 440.513 194.53 440.446C194.341 440.403 194.155 440.394 193.971 440.42C193.789 440.442 193.617 440.507 193.458 440.616C193.301 440.726 193.16 440.886 193.034 441.095C192.911 441.305 192.813 441.571 192.739 441.895L192.138 441.497C192.251 441.001 192.444 440.585 192.716 440.25C192.989 439.911 193.323 439.675 193.719 439.542C194.116 439.409 194.56 439.399 195.053 439.511C195.43 439.598 195.734 439.731 195.962 439.911C196.191 440.092 196.362 440.299 196.475 440.535C196.592 440.767 196.666 441.01 196.697 441.262C196.728 441.514 196.734 441.755 196.713 441.985C196.692 442.214 196.663 442.413 196.624 442.582L195.929 445.619L194.856 445.373ZM191.015 444.494L192.266 439.028L193.212 439.245L192.851 440.824L192.977 440.853L192.088 444.74L191.015 444.494ZM198.725 446.259L197.992 440.339L199.06 440.583L199.565 445.055L201.965 441.248L203.033 441.492L199.798 446.504L198.725 446.259ZM204.886 447.828C204.343 447.704 203.892 447.477 203.535 447.146C203.181 446.813 202.938 446.408 202.806 445.93C202.678 445.45 202.679 444.928 202.808 444.365C202.944 443.767 203.174 443.275 203.497 442.887C203.824 442.5 204.215 442.233 204.671 442.086C205.128 441.938 205.622 441.925 206.156 442.047C206.712 442.174 207.157 442.413 207.489 442.762C207.821 443.108 208.029 443.541 208.113 444.061C208.2 444.581 208.148 445.164 207.958 445.81L206.9 445.567L206.988 445.183C207.126 444.547 207.112 444.05 206.945 443.692C206.782 443.336 206.461 443.102 205.982 442.993C205.452 442.871 205.016 442.947 204.673 443.22C204.33 443.493 204.086 443.945 203.942 444.576C203.804 445.177 203.831 445.673 204.022 446.065C204.213 446.453 204.561 446.705 205.063 446.82C205.394 446.895 205.696 446.886 205.97 446.793C206.247 446.696 206.486 446.524 206.685 446.275L207.647 446.841C207.322 447.282 206.913 447.587 206.42 447.758C205.927 447.926 205.416 447.949 204.886 447.828ZM203.529 444.796L203.718 443.971L207.62 444.864L207.431 445.689L203.529 444.796ZM210.593 449.129C209.928 448.977 209.42 448.706 209.069 448.317C208.718 447.927 208.556 447.455 208.583 446.901L209.705 446.982C209.707 447.28 209.811 447.54 210.016 447.761C210.225 447.98 210.512 448.13 210.877 448.214C211.207 448.29 211.481 448.281 211.697 448.189C211.917 448.097 212.054 447.933 212.108 447.697C212.14 447.558 212.131 447.439 212.083 447.34C212.039 447.237 211.922 447.123 211.73 446.998C211.539 446.872 211.242 446.703 210.84 446.49C210.398 446.262 210.055 446.046 209.81 445.845C209.569 445.64 209.411 445.432 209.336 445.219C209.264 445.004 209.259 444.763 209.32 444.497C209.395 444.166 209.549 443.898 209.781 443.692C210.013 443.485 210.303 443.351 210.651 443.289C211.002 443.227 211.392 443.245 211.821 443.343C212.239 443.439 212.597 443.59 212.894 443.797C213.191 444.003 213.413 444.251 213.56 444.54C213.708 444.826 213.765 445.136 213.731 445.469L212.603 445.419C212.626 445.147 212.55 444.911 212.376 444.711C212.201 444.512 211.949 444.367 211.618 444.277C211.3 444.19 211.028 444.185 210.801 444.261C210.575 444.333 210.438 444.474 210.39 444.683C210.362 444.805 210.376 444.916 210.431 445.017C210.489 445.12 210.619 445.234 210.821 445.362C211.022 445.49 211.325 445.657 211.729 445.863C212.161 446.086 212.495 446.301 212.732 446.508C212.969 446.711 213.122 446.926 213.192 447.151C213.265 447.374 213.27 447.625 213.205 447.905C213.082 448.445 212.788 448.823 212.323 449.04C211.861 449.258 211.284 449.287 210.593 449.129ZM217.09 450.461C216.731 450.45 216.387 450.402 216.059 450.316C215.73 450.23 215.45 450.098 215.217 449.921C214.984 449.743 214.831 449.513 214.757 449.23C214.691 448.977 214.679 448.733 214.722 448.497C214.77 448.26 214.827 447.992 214.895 447.695L216.001 442.862L217.064 443.105L215.97 447.888C215.92 448.107 215.878 448.298 215.844 448.461C215.814 448.625 215.818 448.769 215.856 448.895C215.93 449.132 216.095 449.296 216.351 449.387C216.611 449.475 216.926 449.534 217.295 449.566L217.09 450.461ZM214.412 444.991L214.606 444.141L218.341 444.995L218.147 445.846L214.412 444.991ZM220.335 451.364C219.788 451.239 219.342 451.007 218.997 450.669C218.652 450.331 218.419 449.92 218.299 449.438C218.182 448.954 218.189 448.428 218.319 447.861C218.449 447.291 218.675 446.815 218.997 446.434C219.319 446.05 219.708 445.784 220.165 445.636C220.622 445.485 221.119 445.471 221.655 445.594C222.202 445.719 222.648 445.951 222.993 446.289C223.338 446.627 223.571 447.037 223.691 447.519C223.812 448.001 223.807 448.524 223.678 449.088C223.548 449.658 223.321 450.135 222.999 450.519C222.681 450.901 222.293 451.169 221.835 451.324C221.378 451.475 220.878 451.488 220.335 451.364ZM220.563 450.367C221.086 450.486 221.516 450.4 221.852 450.108C222.193 449.813 222.427 449.387 222.555 448.831C222.685 448.26 222.658 447.775 222.473 447.374C222.292 446.97 221.943 446.709 221.427 446.591C221.073 446.51 220.762 446.524 220.496 446.634C220.23 446.74 220.009 446.922 219.833 447.18C219.657 447.434 219.527 447.747 219.442 448.118C219.311 448.692 219.338 449.181 219.522 449.585C219.706 449.99 220.053 450.25 220.563 450.367ZM224.164 452.08L225.415 446.614L226.356 446.83L226.053 448.156L225.961 447.953C226.068 447.793 226.193 447.653 226.334 447.533C226.476 447.409 226.628 447.316 226.792 447.254C226.953 447.185 227.124 447.142 227.305 447.127C227.491 447.109 227.674 447.115 227.855 447.146C228.037 447.173 228.207 447.221 228.365 447.289L228.138 448.281C227.97 448.193 227.774 448.134 227.55 448.104C227.33 448.075 227.115 448.099 226.906 448.175C226.708 448.247 226.541 448.351 226.403 448.486C226.269 448.622 226.158 448.783 226.069 448.969C225.981 449.151 225.912 449.35 225.863 449.566L225.232 452.325L224.164 452.08Z" fill="black"/>
<path d="M160.834 400.875C160.99 400.07 162.011 399.807 162.537 400.436L170.882 410.433C171.507 411.181 170.765 412.282 169.837 411.983L166.472 410.901C165.042 410.442 163.475 410.845 162.445 411.939L160.023 414.512C159.354 415.222 158.173 414.617 158.358 413.66L160.834 400.875Z" fill="#3CC1CD"/>
<rect x="91.0791" y="515.685" width="97.348" height="27.2575" rx="13.6287" transform="rotate(-5.47404 91.0791 515.685)" fill="#B8D2FF"/>
<path d="M116.759 530.431L113.627 523.221L114.748 523.113L117.419 529.267L118.898 522.716L120.02 522.608L118.314 530.282L116.759 530.431ZM124.432 529.852C123.687 529.924 123.038 529.822 122.483 529.549C121.928 529.272 121.483 528.855 121.148 528.3C120.817 527.744 120.614 527.082 120.541 526.313C120.467 525.545 120.54 524.857 120.76 524.248C120.983 523.639 121.341 523.147 121.834 522.773C122.326 522.396 122.944 522.171 123.689 522.1C124.547 522.018 125.277 522.167 125.88 522.547C126.487 522.927 126.936 523.474 127.227 524.186L126.159 524.586C125.965 524.079 125.667 523.696 125.267 523.435C124.87 523.174 124.376 523.072 123.787 523.129C123.26 523.179 122.832 523.34 122.503 523.611C122.175 523.883 121.941 524.241 121.803 524.685C121.668 525.129 121.628 525.636 121.683 526.204C121.734 526.773 121.868 527.262 122.084 527.673C122.304 528.083 122.602 528.39 122.976 528.594C123.353 528.798 123.806 528.874 124.333 528.824C124.922 528.767 125.387 528.573 125.727 528.242C126.071 527.906 126.29 527.473 126.385 526.943L127.509 527.132C127.359 527.887 127.022 528.509 126.498 528.997C125.978 529.485 125.289 529.77 124.432 529.852ZM130.93 529.073L130.217 521.631L133.225 521.343C133.297 521.336 133.387 521.331 133.495 521.327C133.602 521.32 133.705 521.321 133.803 521.329C134.222 521.355 134.581 521.463 134.877 521.654C135.177 521.844 135.412 522.098 135.581 522.416C135.751 522.733 135.854 523.092 135.893 523.491C135.931 523.895 135.898 524.268 135.792 524.612C135.685 524.956 135.503 525.25 135.245 525.494C134.99 525.737 134.659 525.911 134.252 526.017C134.157 526.04 134.054 526.06 133.945 526.077C133.839 526.094 133.751 526.106 133.682 526.113L131.754 526.298L132.011 528.97L130.93 529.073ZM131.656 525.274L133.543 525.094C133.612 525.087 133.687 525.076 133.769 525.061C133.855 525.046 133.934 525.026 134.009 525.002C134.224 524.929 134.393 524.817 134.514 524.667C134.635 524.513 134.716 524.341 134.757 524.153C134.798 523.965 134.809 523.779 134.792 523.597C134.774 523.414 134.728 523.236 134.652 523.063C134.576 522.886 134.464 522.735 134.317 522.61C134.169 522.481 133.982 522.402 133.757 522.371C133.679 522.358 133.596 522.352 133.51 522.353C133.426 522.354 133.35 522.358 133.281 522.365L131.395 522.545L131.656 525.274ZM138.83 528.472C138.417 528.512 138.063 528.469 137.77 528.345C137.476 528.216 137.244 528.033 137.076 527.796C136.91 527.554 136.813 527.282 136.784 526.979C136.756 526.696 136.783 526.443 136.862 526.22C136.942 525.997 137.072 525.802 137.255 525.635C137.436 525.464 137.666 525.319 137.943 525.199C138.184 525.103 138.459 525.012 138.767 524.927C139.075 524.842 139.399 524.758 139.739 524.677C140.083 524.595 140.423 524.514 140.759 524.433L140.387 524.688C140.352 524.25 140.228 523.935 140.015 523.743C139.805 523.548 139.467 523.472 139.002 523.517C138.709 523.545 138.447 523.64 138.216 523.801C137.984 523.959 137.835 524.199 137.769 524.522L136.731 524.308C136.823 523.816 137.048 523.41 137.407 523.091C137.769 522.771 138.273 522.58 138.917 522.518C139.417 522.47 139.859 522.515 140.244 522.652C140.632 522.785 140.93 523.028 141.138 523.38C141.245 523.554 141.319 523.742 141.359 523.943C141.399 524.144 141.43 524.362 141.453 524.596L141.782 528.033L140.826 528.125L140.704 526.848L140.906 526.996C140.716 527.445 140.452 527.792 140.113 528.037C139.778 528.277 139.351 528.423 138.83 528.472ZM138.937 527.57C139.244 527.541 139.502 527.462 139.712 527.334C139.922 527.203 140.086 527.046 140.204 526.865C140.323 526.683 140.394 526.499 140.418 526.312C140.46 526.141 140.475 525.952 140.462 525.745C140.453 525.537 140.442 525.371 140.43 525.247L140.794 525.343C140.458 525.427 140.152 525.503 139.877 525.571C139.602 525.639 139.353 525.705 139.129 525.768C138.909 525.828 138.714 525.893 138.543 525.965C138.4 526.031 138.273 526.106 138.163 526.189C138.056 526.273 137.973 526.369 137.914 526.479C137.859 526.589 137.838 526.718 137.852 526.866C137.866 527.011 137.915 527.142 138 527.259C138.083 527.372 138.203 527.458 138.358 527.516C138.513 527.575 138.706 527.593 138.937 527.57ZM143.124 527.905L142.589 522.323L143.551 522.231L143.68 523.585L143.529 523.422C143.581 523.236 143.655 523.064 143.751 522.905C143.846 522.743 143.962 522.607 144.098 522.496C144.229 522.38 144.378 522.285 144.545 522.214C144.715 522.138 144.891 522.087 145.073 522.059C145.254 522.028 145.43 522.019 145.602 522.034L145.699 523.047C145.512 523.016 145.308 523.022 145.086 523.064C144.867 523.106 144.671 523.196 144.496 523.335C144.331 523.465 144.205 523.616 144.117 523.788C144.033 523.96 143.978 524.147 143.952 524.352C143.926 524.552 143.924 524.763 143.945 524.983L144.215 527.8L143.124 527.905ZM150.315 527.215C149.971 527.318 149.629 527.38 149.29 527.402C148.951 527.424 148.644 527.388 148.367 527.293C148.09 527.197 147.872 527.027 147.713 526.782C147.57 526.562 147.482 526.334 147.449 526.097C147.419 525.857 147.39 525.585 147.361 525.282L146.888 520.346L147.973 520.242L148.441 525.126C148.462 525.35 148.483 525.545 148.502 525.71C148.525 525.874 148.574 526.011 148.651 526.118C148.795 526.32 149.003 526.423 149.275 526.428C149.55 526.43 149.867 526.387 150.228 526.301L150.315 527.215ZM146.05 522.867L145.966 521.999L149.78 521.634L149.864 522.502L146.05 522.867ZM155.41 526.727L155.147 523.983C155.126 523.766 155.086 523.545 155.026 523.322C154.969 523.094 154.88 522.887 154.758 522.701C154.639 522.514 154.481 522.369 154.283 522.266C154.089 522.163 153.844 522.126 153.548 522.154C153.355 522.173 153.175 522.223 153.009 522.305C152.843 522.383 152.701 522.5 152.584 522.653C152.47 522.807 152.386 523.003 152.332 523.241C152.282 523.479 152.273 523.763 152.304 524.094L151.608 523.905C151.56 523.398 151.612 522.943 151.764 522.539C151.916 522.131 152.159 521.802 152.494 521.551C152.828 521.3 153.246 521.15 153.749 521.102C154.135 521.065 154.465 521.096 154.739 521.195C155.012 521.294 155.24 521.437 155.421 521.625C155.606 521.809 155.753 522.016 155.862 522.245C155.971 522.475 156.051 522.702 156.104 522.926C156.157 523.151 156.192 523.349 156.208 523.521L156.505 526.622L155.41 526.727ZM151.487 527.103L150.952 521.521L151.919 521.429L152.073 523.041L152.202 523.029L152.583 526.998L151.487 527.103ZM160.271 526.418C159.717 526.471 159.217 526.397 158.774 526.196C158.334 525.991 157.976 525.683 157.7 525.272C157.427 524.856 157.263 524.361 157.208 523.785C157.149 523.176 157.212 522.636 157.397 522.166C157.585 521.696 157.872 521.319 158.259 521.035C158.645 520.751 159.111 520.583 159.655 520.531C160.223 520.476 160.72 520.563 161.145 520.79C161.57 521.013 161.904 521.359 162.147 521.826C162.393 522.292 162.528 522.862 162.551 523.534L161.47 523.638L161.433 523.245C161.364 522.598 161.194 522.131 160.923 521.844C160.656 521.556 160.277 521.436 159.788 521.483C159.247 521.535 158.857 521.744 158.617 522.112C158.378 522.479 158.289 522.985 158.351 523.629C158.409 524.242 158.591 524.705 158.896 525.016C159.2 525.324 159.609 525.454 160.122 525.405C160.46 525.372 160.744 525.269 160.974 525.093C161.207 524.915 161.379 524.676 161.489 524.376L162.581 524.611C162.412 525.131 162.12 525.55 161.705 525.868C161.29 526.183 160.812 526.366 160.271 526.418ZM158.028 523.967L157.948 523.125L161.932 522.743L162.013 523.586L158.028 523.967ZM163.948 525.909L163.413 520.327L164.375 520.235L164.505 521.589L164.353 521.426C164.405 521.241 164.479 521.068 164.575 520.91C164.671 520.747 164.786 520.611 164.922 520.501C165.053 520.384 165.202 520.29 165.369 520.218C165.539 520.143 165.715 520.091 165.897 520.063C166.078 520.032 166.255 520.024 166.427 520.038L166.524 521.051C166.336 521.021 166.132 521.026 165.91 521.069C165.691 521.11 165.495 521.2 165.32 521.339C165.155 521.469 165.029 521.621 164.941 521.792C164.857 521.964 164.802 522.152 164.776 522.356C164.75 522.557 164.748 522.767 164.769 522.988L165.039 525.804L163.948 525.909Z" fill="black"/>
<path d="M197.942 492.95C198.664 492.56 199.515 493.183 199.361 493.989L196.92 506.78C196.737 507.738 195.415 507.862 195.058 506.954L193.762 503.666C193.211 502.269 191.906 501.313 190.407 501.209L186.881 500.967C185.908 500.9 185.627 499.603 186.485 499.139L197.942 492.95Z" fill="#B8D2FF"/>
<rect x="255.607" y="574.198" width="97.348" height="27.2575" rx="13.6287" transform="rotate(-5.10206 255.607 574.198)" fill="#576DD2"/>
<path d="M288.63 588.603C288.096 588.65 287.605 588.602 287.158 588.458C286.714 588.31 286.337 588.078 286.027 587.761C285.721 587.441 285.505 587.049 285.38 586.584L286.492 586.312C286.646 586.757 286.916 587.091 287.301 587.314C287.685 587.533 288.119 587.622 288.602 587.578C288.901 587.552 289.173 587.48 289.416 587.365C289.66 587.246 289.849 587.092 289.985 586.902C290.124 586.709 290.183 586.489 290.16 586.24C290.148 586.106 290.114 585.989 290.056 585.89C290.002 585.791 289.93 585.707 289.841 585.638C289.754 585.566 289.65 585.507 289.528 585.463C289.409 585.414 289.279 585.376 289.137 585.347L287.179 584.953C286.988 584.915 286.792 584.861 286.591 584.792C286.39 584.72 286.202 584.62 286.027 584.493C285.856 584.362 285.711 584.196 285.592 583.995C285.473 583.79 285.4 583.536 285.373 583.233C285.332 582.774 285.414 582.376 285.62 582.038C285.83 581.696 286.129 581.426 286.518 581.228C286.906 581.026 287.35 580.903 287.85 580.859C288.354 580.821 288.812 580.87 289.224 581.007C289.639 581.144 289.993 581.363 290.283 581.663C290.578 581.96 290.795 582.333 290.936 582.783L289.795 583.083C289.719 582.808 289.587 582.578 289.4 582.394C289.213 582.205 288.992 582.069 288.738 581.984C288.483 581.895 288.213 581.862 287.926 581.884C287.65 581.902 287.4 581.966 287.177 582.076C286.958 582.186 286.786 582.328 286.663 582.502C286.543 582.677 286.492 582.869 286.511 583.079C286.529 583.286 286.605 583.448 286.737 583.564C286.869 583.681 287.026 583.77 287.209 583.83C287.394 583.886 287.577 583.931 287.757 583.963L289.168 584.228C289.344 584.261 289.545 584.309 289.77 584.373C289.997 584.432 290.219 584.525 290.436 584.652C290.655 584.778 290.843 584.956 290.999 585.185C291.155 585.411 291.249 585.705 291.281 586.067C291.315 586.443 291.269 586.781 291.142 587.081C291.016 587.377 290.829 587.633 290.58 587.85C290.335 588.063 290.045 588.233 289.709 588.36C289.372 588.488 289.013 588.569 288.63 588.603ZM295.769 587.809C295.424 587.909 295.081 587.969 294.743 587.989C294.404 588.009 294.096 587.97 293.82 587.874C293.544 587.777 293.327 587.605 293.169 587.358C293.028 587.138 292.942 586.909 292.91 586.672C292.882 586.432 292.854 586.16 292.827 585.856L292.386 580.918L293.472 580.821L293.908 585.708C293.928 585.932 293.947 586.126 293.966 586.292C293.987 586.456 294.036 586.593 294.112 586.701C294.255 586.903 294.462 587.008 294.734 587.015C295.009 587.019 295.327 586.978 295.687 586.894L295.769 587.809ZM291.532 583.433L291.454 582.565L295.27 582.224L295.348 583.093L291.532 583.433ZM299.065 587.666C298.679 587.7 298.349 587.667 298.076 587.567C297.803 587.466 297.575 587.323 297.391 587.138C297.211 586.949 297.067 586.739 296.96 586.509C296.852 586.279 296.773 586.051 296.722 585.827C296.67 585.602 296.637 585.403 296.622 585.231L296.345 582.128L297.441 582.03L297.686 584.776C297.705 584.993 297.743 585.216 297.798 585.444C297.856 585.668 297.944 585.874 298.061 586.061C298.182 586.249 298.34 586.394 298.533 586.499C298.73 586.603 298.977 586.642 299.273 586.615C299.466 586.598 299.646 586.551 299.813 586.473C299.98 586.392 300.12 586.275 300.235 586.123C300.354 585.97 300.439 585.774 300.491 585.537C300.546 585.299 300.559 585.015 300.529 584.684L301.224 584.877C301.269 585.384 301.214 585.841 301.06 586.247C300.904 586.65 300.659 586.976 300.323 587.225C299.988 587.474 299.568 587.621 299.065 587.666ZM300.897 587.351L300.753 585.738L300.624 585.749L300.27 581.778L301.361 581.68L301.859 587.265L300.897 587.351ZM305.542 587.093C305.022 587.139 304.56 587.05 304.158 586.825C303.759 586.6 303.436 586.275 303.19 585.849C302.946 585.418 302.8 584.924 302.75 584.366C302.699 583.804 302.758 583.293 302.926 582.833C303.093 582.37 303.355 581.994 303.711 581.705C304.071 581.412 304.512 581.242 305.036 581.196C305.564 581.149 306.018 581.238 306.4 581.465C306.785 581.688 307.088 582.013 307.311 582.442C307.537 582.87 307.675 583.363 307.724 583.922C307.774 584.48 307.726 584.99 307.58 585.451C307.433 585.913 307.191 586.291 306.852 586.585C306.513 586.876 306.076 587.045 305.542 587.093ZM305.605 586.102C305.96 586.07 306.242 585.96 306.451 585.771C306.66 585.582 306.803 585.335 306.88 585.029C306.957 584.723 306.978 584.377 306.944 583.991C306.909 583.605 306.825 583.269 306.692 582.982C306.562 582.694 306.379 582.478 306.144 582.332C305.912 582.186 305.627 582.128 305.289 582.158C304.931 582.19 304.644 582.304 304.428 582.501C304.213 582.697 304.062 582.949 303.975 583.256C303.891 583.562 303.865 583.898 303.898 584.263C303.931 584.632 304.016 584.962 304.153 585.252C304.293 585.538 304.483 585.759 304.723 585.915C304.966 586.07 305.26 586.133 305.605 586.102ZM307.193 586.789L306.835 582.771L306.711 582.782L306.404 579.353L307.49 579.256L308.155 586.703L307.193 586.789ZM312.093 586.508C311.538 586.557 311.039 586.48 310.597 586.277C310.158 586.069 309.802 585.759 309.529 585.345C309.259 584.928 309.098 584.431 309.047 583.856C308.992 583.245 309.059 582.706 309.246 582.238C309.437 581.769 309.727 581.394 310.115 581.112C310.504 580.831 310.97 580.666 311.515 580.617C312.084 580.566 312.58 580.656 313.004 580.886C313.427 581.112 313.759 581.459 313.999 581.928C314.242 582.396 314.373 582.967 314.391 583.639L313.31 583.736L313.275 583.343C313.21 582.695 313.044 582.227 312.775 581.938C312.509 581.649 312.131 581.526 311.642 581.57C311.101 581.619 310.709 581.825 310.467 582.191C310.225 582.557 310.133 583.062 310.191 583.707C310.245 584.32 310.424 584.784 310.727 585.097C311.029 585.407 311.437 585.54 311.95 585.494C312.288 585.464 312.573 585.362 312.804 585.188C313.038 585.011 313.212 584.773 313.324 584.475L314.414 584.716C314.242 585.235 313.947 585.653 313.53 585.968C313.113 586.28 312.634 586.46 312.093 586.508ZM309.866 584.043L309.791 583.2L313.778 582.844L313.853 583.687L309.866 584.043ZM319.542 585.686L319.297 582.94C319.277 582.723 319.238 582.503 319.18 582.278C319.125 582.051 319.037 581.843 318.916 581.656C318.799 581.468 318.641 581.322 318.444 581.218C318.251 581.114 318.006 581.075 317.709 581.101C317.516 581.119 317.337 581.168 317.17 581.249C317.003 581.326 316.861 581.441 316.742 581.594C316.627 581.747 316.542 581.942 316.487 582.18C316.435 582.418 316.424 582.702 316.454 583.033L315.759 582.839C315.713 582.333 315.768 581.878 315.924 581.475C316.078 581.068 316.324 580.74 316.659 580.491C316.995 580.243 317.415 580.096 317.918 580.051C318.304 580.016 318.634 580.049 318.907 580.15C319.18 580.251 319.406 580.396 319.587 580.585C319.77 580.77 319.915 580.977 320.023 581.208C320.13 581.438 320.21 581.665 320.261 581.89C320.312 582.115 320.346 582.313 320.361 582.486L320.638 585.589L319.542 585.686ZM315.617 586.037L315.118 580.452L316.085 580.366L316.229 581.979L316.358 581.967L316.713 585.939L315.617 586.037ZM325.181 585.183C324.835 585.283 324.493 585.343 324.155 585.363C323.816 585.383 323.508 585.344 323.232 585.248C322.956 585.151 322.739 584.979 322.581 584.732C322.44 584.512 322.354 584.283 322.322 584.046C322.294 583.806 322.266 583.534 322.239 583.23L321.798 578.292L322.884 578.195L323.32 583.082C323.34 583.306 323.359 583.5 323.377 583.666C323.399 583.83 323.448 583.967 323.523 584.075C323.667 584.277 323.874 584.382 324.146 584.389C324.421 584.393 324.738 584.352 325.099 584.268L325.181 585.183ZM320.943 580.807L320.866 579.939L324.682 579.598L324.76 580.467L320.943 580.807Z" fill="#F6F7FB"/>
<path d="M349.071 547.133C349.662 546.564 350.649 546.935 350.717 547.753L351.805 560.729C351.887 561.701 350.647 562.175 350.059 561.398L347.926 558.579C347.02 557.381 345.505 556.811 344.034 557.115L340.573 557.829C339.618 558.026 338.999 556.852 339.7 556.175L349.071 547.133Z" fill="#576DD2"/>
</g>
<defs>
<filter id="filter0_d_2515_281" x="352.99" y="276.053" width="145.901" height="145.901" filterUnits="userSpaceOnUse" color-interpolation-filters="sRGB">
<feFlood flood-opacity="0" result="BackgroundImageFix"/>
<feColorMatrix in="SourceAlpha" type="matrix" values="0 0 0 0 0 0 0 0 0 0 0 0 0 0 0 0 0 0 127 0" result="hardAlpha"/>
<feOffset/>
<feGaussianBlur stdDeviation="4.621"/>
<feComposite in2="hardAlpha" operator="out"/>
<feColorMatrix type="matrix" values="0 0 0 0 1 0 0 0 0 1 0 0 0 0 1 0 0 0 1 0"/>
<feBlend mode="normal" in2="BackgroundImageFix" result="effect1_dropShadow_2515_281"/>
<feBlend mode="normal" in="SourceGraphic" in2="effect1_dropShadow_2515_281" result="shape"/>
</filter>
<filter id="filter1_d_2515_281" x="316.581" y="239.648" width="218.712" height="218.712" filterUnits="userSpaceOnUse" color-interpolation-filters="sRGB">
<feFlood flood-opacity="0" result="BackgroundImageFix"/>
<feColorMatrix in="SourceAlpha" type="matrix" values="0 0 0 0 0 0 0 0 0 0 0 0 0 0 0 0 0 0 127 0" result="hardAlpha"/>
<feOffset/>
<feGaussianBlur stdDeviation="4.621"/>
<feComposite in2="hardAlpha" operator="out"/>
<feColorMatrix type="matrix" values="0 0 0 0 1 0 0 0 0 1 0 0 0 0 1 0 0 0 1 0"/>
<feBlend mode="normal" in2="BackgroundImageFix" result="effect1_dropShadow_2515_281"/>
<feBlend mode="normal" in="SourceGraphic" in2="effect1_dropShadow_2515_281" result="shape"/>
</filter>
<filter id="filter2_d_2515_281" x="280.179" y="203.246" width="291.521" height="291.521" filterUnits="userSpaceOnUse" color-interpolation-filters="sRGB">
<feFlood flood-opacity="0" result="BackgroundImageFix"/>
<feColorMatrix in="SourceAlpha" type="matrix" values="0 0 0 0 0 0 0 0 0 0 0 0 0 0 0 0 0 0 127 0" result="hardAlpha"/>
<feOffset/>
<feGaussianBlur stdDeviation="4.621"/>
<feComposite in2="hardAlpha" operator="out"/>
<feColorMatrix type="matrix" values="0 0 0 0 1 0 0 0 0 1 0 0 0 0 1 0 0 0 1 0"/>
<feBlend mode="normal" in2="BackgroundImageFix" result="effect1_dropShadow_2515_281"/>
<feBlend mode="normal" in="SourceGraphic" in2="effect1_dropShadow_2515_281" result="shape"/>
</filter>
<filter id="filter3_d_2515_281" x="243.776" y="166.837" width="364.332" height="364.331" filterUnits="userSpaceOnUse" color-interpolation-filters="sRGB">
<feFlood flood-opacity="0" result="BackgroundImageFix"/>
<feColorMatrix in="SourceAlpha" type="matrix" values="0 0 0 0 0 0 0 0 0 0 0 0 0 0 0 0 0 0 127 0" result="hardAlpha"/>
<feOffset/>
<feGaussianBlur stdDeviation="4.621"/>
<feComposite in2="hardAlpha" operator="out"/>
<feColorMatrix type="matrix" values="0 0 0 0 1 0 0 0 0 1 0 0 0 0 1 0 0 0 1 0"/>
<feBlend mode="normal" in2="BackgroundImageFix" result="effect1_dropShadow_2515_281"/>
<feBlend mode="normal" in="SourceGraphic" in2="effect1_dropShadow_2515_281" result="shape"/>
</filter>
<filter id="filter4_d_2515_281" x="207.371" y="130.436" width="437.141" height="437.141" filterUnits="userSpaceOnUse" color-interpolation-filters="sRGB">
<feFlood flood-opacity="0" result="BackgroundImageFix"/>
<feColorMatrix in="SourceAlpha" type="matrix" values="0 0 0 0 0 0 0 0 0 0 0 0 0 0 0 0 0 0 127 0" result="hardAlpha"/>
<feOffset/>
<feGaussianBlur stdDeviation="4.621"/>
<feComposite in2="hardAlpha" operator="out"/>
<feColorMatrix type="matrix" values="0 0 0 0 1 0 0 0 0 1 0 0 0 0 1 0 0 0 1 0"/>
<feBlend mode="normal" in2="BackgroundImageFix" result="effect1_dropShadow_2515_281"/>
<feBlend mode="normal" in="SourceGraphic" in2="effect1_dropShadow_2515_281" result="shape"/>
</filter>
<filter id="filter5_d_2515_281" x="170.965" y="94.0275" width="509.951" height="509.951" filterUnits="userSpaceOnUse" color-interpolation-filters="sRGB">
<feFlood flood-opacity="0" result="BackgroundImageFix"/>
<feColorMatrix in="SourceAlpha" type="matrix" values="0 0 0 0 0 0 0 0 0 0 0 0 0 0 0 0 0 0 127 0" result="hardAlpha"/>
<feOffset/>
<feGaussianBlur stdDeviation="4.621"/>
<feComposite in2="hardAlpha" operator="out"/>
<feColorMatrix type="matrix" values="0 0 0 0 1 0 0 0 0 1 0 0 0 0 1 0 0 0 1 0"/>
<feBlend mode="normal" in2="BackgroundImageFix" result="effect1_dropShadow_2515_281"/>
<feBlend mode="normal" in="SourceGraphic" in2="effect1_dropShadow_2515_281" result="shape"/>
</filter>
<filter id="filter6_d_2515_281" x="134.559" y="57.6183" width="582.761" height="582.761" filterUnits="userSpaceOnUse" color-interpolation-filters="sRGB">
<feFlood flood-opacity="0" result="BackgroundImageFix"/>
<feColorMatrix in="SourceAlpha" type="matrix" values="0 0 0 0 0 0 0 0 0 0 0 0 0 0 0 0 0 0 127 0" result="hardAlpha"/>
<feOffset/>
<feGaussianBlur stdDeviation="4.621"/>
<feComposite in2="hardAlpha" operator="out"/>
<feColorMatrix type="matrix" values="0 0 0 0 1 0 0 0 0 1 0 0 0 0 1 0 0 0 1 0"/>
<feBlend mode="normal" in2="BackgroundImageFix" result="effect1_dropShadow_2515_281"/>
<feBlend mode="normal" in="SourceGraphic" in2="effect1_dropShadow_2515_281" result="shape"/>
</filter>
<filter id="filter7_d_2515_281" x="98.1535" y="21.2189" width="655.571" height="655.571" filterUnits="userSpaceOnUse" color-interpolation-filters="sRGB">
<feFlood flood-opacity="0" result="BackgroundImageFix"/>
<feColorMatrix in="SourceAlpha" type="matrix" values="0 0 0 0 0 0 0 0 0 0 0 0 0 0 0 0 0 0 127 0" result="hardAlpha"/>
<feOffset/>
<feGaussianBlur stdDeviation="4.621"/>
<feComposite in2="hardAlpha" operator="out"/>
<feColorMatrix type="matrix" values="0 0 0 0 1 0 0 0 0 1 0 0 0 0 1 0 0 0 1 0"/>
<feBlend mode="normal" in2="BackgroundImageFix" result="effect1_dropShadow_2515_281"/>
<feBlend mode="normal" in="SourceGraphic" in2="effect1_dropShadow_2515_281" result="shape"/>
</filter>
<filter id="filter8_d_2515_281" x="61.7482" y="-15.1888" width="728.381" height="728.381" filterUnits="userSpaceOnUse" color-interpolation-filters="sRGB">
<feFlood flood-opacity="0" result="BackgroundImageFix"/>
<feColorMatrix in="SourceAlpha" type="matrix" values="0 0 0 0 0 0 0 0 0 0 0 0 0 0 0 0 0 0 127 0" result="hardAlpha"/>
<feOffset/>
<feGaussianBlur stdDeviation="4.621"/>
<feComposite in2="hardAlpha" operator="out"/>
<feColorMatrix type="matrix" values="0 0 0 0 1 0 0 0 0 1 0 0 0 0 1 0 0 0 1 0"/>
<feBlend mode="normal" in2="BackgroundImageFix" result="effect1_dropShadow_2515_281"/>
<feBlend mode="normal" in="SourceGraphic" in2="effect1_dropShadow_2515_281" result="shape"/>
</filter>
<radialGradient id="paint0_radial_2515_281" cx="0" cy="0" r="1" gradientUnits="userSpaceOnUse" gradientTransform="translate(582.48 418.657) scale(717.326 717.326)">
<stop/>
<stop offset="0.291818" stop-opacity="0"/>
</radialGradient>
<clipPath id="clip0_2515_281">
<rect width="379" height="716.061" rx="29.5123" fill="white"/>
</clipPath>
<clipPath id="clip1_2515_281">
<rect width="1164.96" height="418.657" fill="white" transform="matrix(0 1 1 0 0 -233.476)"/>
</clipPath>
</defs>
</svg>
