<svg width="176" height="216" viewBox="0 0 176 216" fill="none" xmlns="http://www.w3.org/2000/svg">
<g filter="url(#filter0_d_2375_7436)">
<rect x="8.18359" y="8.18359" width="158.999" height="199.216" rx="9.35289" fill="#0B71FD"/>
<path d="M21.8946 38.3955C21.1573 38.3955 20.4923 38.2672 19.8996 38.0105C19.3116 37.7539 18.8263 37.3875 18.4436 36.9115C18.0656 36.4309 17.8253 35.8615 17.7226 35.2035L19.4726 34.9375C19.6219 35.5349 19.9276 35.9969 20.3896 36.3235C20.8563 36.6502 21.3929 36.8135 21.9996 36.8135C22.3589 36.8135 22.6973 36.7575 23.0146 36.6455C23.3319 36.5335 23.5886 36.3702 23.7846 36.1555C23.9853 35.9409 24.0856 35.6772 24.0856 35.3645C24.0856 35.2245 24.0623 35.0962 24.0156 34.9795C23.9689 34.8582 23.8989 34.7509 23.8056 34.6575C23.7169 34.5642 23.6003 34.4802 23.4556 34.4055C23.3156 34.3262 23.1523 34.2585 22.9656 34.2025L20.3616 33.4325C20.1376 33.3672 19.8949 33.2809 19.6336 33.1735C19.3769 33.0615 19.1319 32.9099 18.8986 32.7185C18.6699 32.5225 18.4809 32.2752 18.3316 31.9765C18.1869 31.6732 18.1146 31.2999 18.1146 30.8565C18.1146 30.2079 18.2779 29.6642 18.6046 29.2255C18.9359 28.7822 19.3793 28.4509 19.9346 28.2315C20.4946 28.0122 21.1153 27.9049 21.7966 27.9095C22.4873 27.9142 23.1033 28.0332 23.6446 28.2665C24.1859 28.4952 24.6386 28.8289 25.0026 29.2675C25.3666 29.7062 25.6233 30.2359 25.7726 30.8565L23.9596 31.1715C23.8849 30.8169 23.7403 30.5159 23.5256 30.2685C23.3156 30.0165 23.0566 29.8252 22.7486 29.6945C22.4453 29.5639 22.1209 29.4939 21.7756 29.4845C21.4396 29.4799 21.1269 29.5312 20.8376 29.6385C20.5529 29.7412 20.3219 29.8905 20.1446 30.0865C19.9719 30.2825 19.8856 30.5112 19.8856 30.7725C19.8856 31.0199 19.9603 31.2229 20.1096 31.3815C20.2589 31.5355 20.4433 31.6592 20.6626 31.7525C20.8866 31.8412 21.1129 31.9159 21.3416 31.9765L23.1476 32.4805C23.3949 32.5459 23.6726 32.6345 23.9806 32.7465C24.2886 32.8585 24.5849 33.0149 24.8696 33.2155C25.1543 33.4162 25.3876 33.6799 25.5696 34.0065C25.7563 34.3332 25.8496 34.7485 25.8496 35.2525C25.8496 35.7752 25.7399 36.2349 25.5206 36.6315C25.3059 37.0235 25.0143 37.3502 24.6456 37.6115C24.2769 37.8729 23.8546 38.0689 23.3786 38.1995C22.9073 38.3302 22.4126 38.3955 21.8946 38.3955ZM31.7958 38.1855C31.2964 38.2789 30.8064 38.3185 30.3258 38.3045C29.8498 38.2952 29.4228 38.2089 29.0448 38.0455C28.6668 37.8775 28.3798 37.6139 28.1838 37.2545C28.0111 36.9279 27.9201 36.5942 27.9108 36.2535C27.9014 35.9129 27.8968 35.5279 27.8968 35.0985V28.5255H29.5768V35.0005C29.5768 35.3039 29.5791 35.5699 29.5838 35.7985C29.5931 36.0272 29.6421 36.2139 29.7308 36.3585C29.8988 36.6385 30.1671 36.7949 30.5358 36.8275C30.9044 36.8602 31.3244 36.8415 31.7958 36.7715V38.1855ZM26.5248 31.9485V30.6255H31.7958V31.9485H26.5248ZM35.5354 38.3955C34.9894 38.3955 34.5274 38.2929 34.1494 38.0875C33.7714 37.8775 33.4844 37.5999 33.2884 37.2545C33.0971 36.9092 33.0014 36.5289 33.0014 36.1135C33.0014 35.7495 33.0621 35.4229 33.1834 35.1335C33.3047 34.8395 33.4914 34.5875 33.7434 34.3775C33.9954 34.1629 34.3221 33.9879 34.7234 33.8525C35.0267 33.7545 35.3814 33.6659 35.7874 33.5865C36.1981 33.5072 36.6414 33.4349 37.1174 33.3695C37.5981 33.2995 38.0997 33.2249 38.6224 33.1455L38.0204 33.4885C38.0251 32.9659 37.9084 32.5809 37.6704 32.3335C37.4324 32.0862 37.0311 31.9625 36.4664 31.9625C36.1257 31.9625 35.7967 32.0419 35.4794 32.2005C35.1621 32.3592 34.9404 32.6322 34.8144 33.0195L33.2744 32.5365C33.4611 31.8972 33.8157 31.3839 34.3384 30.9965C34.8657 30.6092 35.5751 30.4155 36.4664 30.4155C37.1384 30.4155 37.7287 30.5252 38.2374 30.7445C38.7507 30.9639 39.1311 31.3232 39.3784 31.8225C39.5137 32.0885 39.5954 32.3615 39.6234 32.6415C39.6514 32.9169 39.6654 33.2179 39.6654 33.5445V38.1855H38.1884V36.5475L38.4334 36.8135C38.0927 37.3595 37.6937 37.7609 37.2364 38.0175C36.7837 38.2695 36.2167 38.3955 35.5354 38.3955ZM35.8714 37.0515C36.2541 37.0515 36.5807 36.9839 36.8514 36.8485C37.1221 36.7132 37.3367 36.5475 37.4954 36.3515C37.6587 36.1555 37.7684 35.9712 37.8244 35.7985C37.9131 35.5839 37.9621 35.3389 37.9714 35.0635C37.9854 34.7835 37.9924 34.5572 37.9924 34.3845L38.5104 34.5385C38.0017 34.6179 37.5654 34.6879 37.2014 34.7485C36.8374 34.8092 36.5247 34.8675 36.2634 34.9235C36.0021 34.9749 35.7711 35.0332 35.5704 35.0985C35.3744 35.1685 35.2087 35.2502 35.0734 35.3435C34.9381 35.4369 34.8331 35.5442 34.7584 35.6655C34.6884 35.7869 34.6534 35.9292 34.6534 36.0925C34.6534 36.2792 34.7001 36.4449 34.7934 36.5895C34.8867 36.7295 35.0221 36.8415 35.1994 36.9255C35.3814 37.0095 35.6054 37.0515 35.8714 37.0515ZM41.4878 38.1855V30.6255H42.9788V32.4665L42.7968 32.2285C42.8901 31.9765 43.0138 31.7479 43.1678 31.5425C43.3265 31.3325 43.5155 31.1599 43.7348 31.0245C43.9215 30.8985 44.1268 30.8005 44.3508 30.7305C44.5795 30.6559 44.8128 30.6115 45.0508 30.5975C45.2888 30.5789 45.5198 30.5882 45.7438 30.6255V32.2005C45.5198 32.1352 45.2608 32.1142 44.9668 32.1375C44.6775 32.1609 44.4161 32.2425 44.1828 32.3825C43.9495 32.5085 43.7581 32.6695 43.6088 32.8655C43.4641 33.0615 43.3568 33.2855 43.2868 33.5375C43.2168 33.7849 43.1818 34.0532 43.1818 34.3425V38.1855H41.4878ZM51.5106 38.1855C51.0113 38.2789 50.5213 38.3185 50.0406 38.3045C49.5646 38.2952 49.1376 38.2089 48.7596 38.0455C48.3816 37.8775 48.0946 37.6139 47.8986 37.2545C47.7259 36.9279 47.6349 36.5942 47.6256 36.2535C47.6163 35.9129 47.6116 35.5279 47.6116 35.0985V28.5255H49.2916V35.0005C49.2916 35.3039 49.2939 35.5699 49.2986 35.7985C49.3079 36.0272 49.3569 36.2139 49.4456 36.3585C49.6136 36.6385 49.8819 36.7949 50.2506 36.8275C50.6193 36.8602 51.0393 36.8415 51.5106 36.7715V38.1855ZM46.2396 31.9485V30.6255H51.5106V31.9485H46.2396ZM20.6136 52.1855V48.0555L17.1836 42.1055H19.1506L21.4676 46.1235L23.7776 42.1055H25.7446L22.3216 48.0555V52.1855H20.6136ZM28.9401 52.3955C28.1841 52.3955 27.5238 52.2252 26.9591 51.8845C26.3944 51.5439 25.9558 51.0749 25.6431 50.4775C25.3351 49.8755 25.1811 49.1849 25.1811 48.4055C25.1811 47.6122 25.3398 46.9169 25.6571 46.3195C25.9744 45.7222 26.4154 45.2555 26.9801 44.9195C27.5448 44.5835 28.1981 44.4155 28.9401 44.4155C29.7008 44.4155 30.3634 44.5859 30.9281 44.9265C31.4928 45.2672 31.9314 45.7385 32.2441 46.3405C32.5568 46.9379 32.7131 47.6262 32.7131 48.4055C32.7131 49.1895 32.5544 49.8825 32.2371 50.4845C31.9244 51.0819 31.4858 51.5509 30.9211 51.8915C30.3564 52.2275 29.6961 52.3955 28.9401 52.3955ZM28.9401 50.8135C29.6121 50.8135 30.1114 50.5895 30.4381 50.1415C30.7648 49.6935 30.9281 49.1149 30.9281 48.4055C30.9281 47.6729 30.7624 47.0895 30.4311 46.6555C30.0998 46.2169 29.6028 45.9975 28.9401 45.9975C28.4874 45.9975 28.1141 46.1002 27.8201 46.3055C27.5308 46.5062 27.3161 46.7885 27.1761 47.1525C27.0361 47.5119 26.9661 47.9295 26.9661 48.4055C26.9661 49.1382 27.1318 49.7239 27.4631 50.1625C27.7991 50.5965 28.2914 50.8135 28.9401 50.8135ZM37.0904 52.4025C36.5304 52.4025 36.0684 52.3092 35.7044 52.1225C35.3404 51.9359 35.0511 51.6979 34.8364 51.4085C34.6217 51.1192 34.4631 50.8112 34.3604 50.4845C34.2577 50.1579 34.1901 49.8499 34.1574 49.5605C34.1294 49.2665 34.1154 49.0285 34.1154 48.8465V44.6255H35.8234V48.2655C35.8234 48.4989 35.8397 48.7625 35.8724 49.0565C35.9051 49.3459 35.9797 49.6259 36.0964 49.8965C36.2177 50.1625 36.3951 50.3819 36.6284 50.5545C36.8664 50.7272 37.1861 50.8135 37.5874 50.8135C37.8021 50.8135 38.0144 50.7785 38.2244 50.7085C38.4344 50.6385 38.6234 50.5195 38.7914 50.3515C38.9641 50.1789 39.1017 49.9432 39.2044 49.6445C39.3071 49.3459 39.3584 48.9679 39.3584 48.5105L40.3594 48.9375C40.3594 49.5815 40.2334 50.1649 39.9814 50.6875C39.7341 51.2102 39.3677 51.6279 38.8824 51.9405C38.3971 52.2485 37.7997 52.4025 37.0904 52.4025ZM39.5614 52.1855V49.8405H39.3584V44.6255H41.0524V52.1855H39.5614ZM43.0191 52.1855V44.6255H44.5101V46.4665L44.3281 46.2285C44.4214 45.9765 44.5451 45.7479 44.6991 45.5425C44.8577 45.3325 45.0467 45.1599 45.2661 45.0245C45.4527 44.8985 45.6581 44.8005 45.8821 44.7305C46.1107 44.6559 46.3441 44.6115 46.5821 44.5975C46.8201 44.5789 47.0511 44.5882 47.2751 44.6255V46.2005C47.0511 46.1352 46.7921 46.1142 46.4981 46.1375C46.2087 46.1609 45.9474 46.2425 45.7141 46.3825C45.4807 46.5085 45.2894 46.6695 45.1401 46.8655C44.9954 47.0615 44.8881 47.2855 44.8181 47.5375C44.7481 47.7849 44.7131 48.0532 44.7131 48.3425V52.1855H43.0191ZM55.6766 52.3955C54.6686 52.3955 53.8053 52.1762 53.0866 51.7375C52.3679 51.2942 51.8149 50.6782 51.4276 49.8895C51.0449 49.1009 50.8536 48.1862 50.8536 47.1455C50.8536 46.1049 51.0449 45.1902 51.4276 44.4015C51.8149 43.6129 52.3679 42.9992 53.0866 42.5605C53.8053 42.1172 54.6686 41.8955 55.6766 41.8955C56.8386 41.8955 57.8069 42.1872 58.5816 42.7705C59.3563 43.3492 59.8999 44.1309 60.2126 45.1155L58.5116 45.5845C58.3156 44.9265 57.9819 44.4132 57.5106 44.0445C57.0393 43.6712 56.4279 43.4845 55.6766 43.4845C54.9999 43.4845 54.4353 43.6362 53.9826 43.9395C53.5346 44.2429 53.1963 44.6699 52.9676 45.2205C52.7436 45.7665 52.6293 46.4082 52.6246 47.1455C52.6246 47.8829 52.7366 48.5269 52.9606 49.0775C53.1893 49.6235 53.5299 50.0482 53.9826 50.3515C54.4353 50.6549 54.9999 50.8065 55.6766 50.8065C56.4279 50.8065 57.0393 50.6199 57.5106 50.2465C57.9819 49.8732 58.3156 49.3599 58.5116 48.7065L60.2126 49.1755C59.8999 50.1602 59.3563 50.9442 58.5816 51.5275C57.8069 52.1062 56.8386 52.3955 55.6766 52.3955ZM65.0885 52.3955C64.3325 52.3955 63.6722 52.2252 63.1075 51.8845C62.5429 51.5439 62.1042 51.0749 61.7915 50.4775C61.4835 49.8755 61.3295 49.1849 61.3295 48.4055C61.3295 47.6122 61.4882 46.9169 61.8055 46.3195C62.1229 45.7222 62.5639 45.2555 63.1285 44.9195C63.6932 44.5835 64.3465 44.4155 65.0885 44.4155C65.8492 44.4155 66.5119 44.5859 67.0765 44.9265C67.6412 45.2672 68.0799 45.7385 68.3925 46.3405C68.7052 46.9379 68.8615 47.6262 68.8615 48.4055C68.8615 49.1895 68.7029 49.8825 68.3855 50.4845C68.0729 51.0819 67.6342 51.5509 67.0695 51.8915C66.5049 52.2275 65.8445 52.3955 65.0885 52.3955ZM65.0885 50.8135C65.7605 50.8135 66.2599 50.5895 66.5865 50.1415C66.9132 49.6935 67.0765 49.1149 67.0765 48.4055C67.0765 47.6729 66.9109 47.0895 66.5795 46.6555C66.2482 46.2169 65.7512 45.9975 65.0885 45.9975C64.6359 45.9975 64.2625 46.1002 63.9685 46.3055C63.6792 46.5062 63.4645 46.7885 63.3245 47.1525C63.1845 47.5119 63.1145 47.9295 63.1145 48.4055C63.1145 49.1382 63.2802 49.7239 63.6115 50.1625C63.9475 50.5965 64.4399 50.8135 65.0885 50.8135ZM79.4828 52.1855V47.5935C79.4828 47.0755 79.3545 46.6719 79.0978 46.3825C78.8412 46.0885 78.4935 45.9415 78.0548 45.9415C77.7842 45.9415 77.5415 46.0045 77.3268 46.1305C77.1122 46.2519 76.9418 46.4339 76.8158 46.6765C76.6898 46.9145 76.6268 47.1992 76.6268 47.5305L75.8778 47.0895C75.8732 46.5669 75.9898 46.1072 76.2278 45.7105C76.4705 45.3092 76.7972 44.9965 77.2078 44.7725C77.6185 44.5485 78.0758 44.4365 78.5798 44.4365C79.4152 44.4365 80.0545 44.6885 80.4978 45.1925C80.9458 45.6919 81.1698 46.3499 81.1698 47.1665V52.1855H79.4828ZM70.3898 52.1855V44.6255H71.8808V46.9705H72.0908V52.1855H70.3898ZM74.9468 52.1855V47.6145C74.9468 47.0872 74.8185 46.6765 74.5618 46.3825C74.3052 46.0885 73.9552 45.9415 73.5118 45.9415C73.0825 45.9415 72.7372 46.0885 72.4758 46.3825C72.2192 46.6765 72.0908 47.0592 72.0908 47.5305L71.3348 47.0265C71.3348 46.5365 71.4562 46.0955 71.6988 45.7035C71.9415 45.3115 72.2682 45.0035 72.6788 44.7795C73.0942 44.5509 73.5585 44.4365 74.0718 44.4365C74.6365 44.4365 75.1078 44.5579 75.4858 44.8005C75.8685 45.0385 76.1532 45.3652 76.3398 45.7805C76.5312 46.1912 76.6268 46.6555 76.6268 47.1735V52.1855H74.9468ZM86.6286 52.3955C85.8913 52.3955 85.273 52.2205 84.7736 51.8705C84.2743 51.5205 83.8986 51.0445 83.6466 50.4425C83.3946 49.8359 83.2686 49.1569 83.2686 48.4055C83.2686 47.6449 83.3946 46.9635 83.6466 46.3615C83.8986 45.7595 84.2673 45.2859 84.7526 44.9405C85.2426 44.5905 85.847 44.4155 86.5656 44.4155C87.2796 44.4155 87.898 44.5905 88.4206 44.9405C88.948 45.2859 89.3563 45.7595 89.6456 46.3615C89.935 46.9589 90.0796 47.6402 90.0796 48.4055C90.0796 49.1615 89.9373 49.8405 89.6526 50.4425C89.368 51.0445 88.9666 51.5205 88.4486 51.8705C87.9306 52.2205 87.324 52.3955 86.6286 52.3955ZM82.9816 55.5455V44.6255H84.4726V49.9315H84.6826V55.5455H82.9816ZM86.3696 50.8835C86.8083 50.8835 87.17 50.7739 87.4546 50.5545C87.7393 50.3352 87.9493 50.0389 88.0846 49.6655C88.2246 49.2875 88.2946 48.8675 88.2946 48.4055C88.2946 47.9482 88.2246 47.5329 88.0846 47.1595C87.9446 46.7815 87.7276 46.4829 87.4336 46.2635C87.1396 46.0395 86.7663 45.9275 86.3136 45.9275C85.8843 45.9275 85.5343 46.0325 85.2636 46.2425C84.993 46.4479 84.7923 46.7372 84.6616 47.1105C84.5356 47.4792 84.4726 47.9109 84.4726 48.4055C84.4726 48.8955 84.5356 49.3272 84.6616 49.7005C84.7923 50.0739 84.9953 50.3655 85.2706 50.5755C85.5506 50.7809 85.917 50.8835 86.3696 50.8835ZM93.7366 52.3955C93.1906 52.3955 92.7286 52.2929 92.3506 52.0875C91.9726 51.8775 91.6856 51.5999 91.4896 51.2545C91.2982 50.9092 91.2026 50.5289 91.2026 50.1135C91.2026 49.7495 91.2632 49.4229 91.3846 49.1335C91.5059 48.8395 91.6926 48.5875 91.9446 48.3775C92.1966 48.1629 92.5232 47.9879 92.9246 47.8525C93.2279 47.7545 93.5826 47.6659 93.9886 47.5865C94.3992 47.5072 94.8426 47.4349 95.3186 47.3695C95.7992 47.2995 96.3009 47.2249 96.8236 47.1455L96.2216 47.4885C96.2262 46.9659 96.1096 46.5809 95.8716 46.3335C95.6336 46.0862 95.2322 45.9625 94.6676 45.9625C94.3269 45.9625 93.9979 46.0419 93.6806 46.2005C93.3632 46.3592 93.1416 46.6322 93.0156 47.0195L91.4756 46.5365C91.6622 45.8972 92.0169 45.3839 92.5396 44.9965C93.0669 44.6092 93.7762 44.4155 94.6676 44.4155C95.3396 44.4155 95.9299 44.5252 96.4386 44.7445C96.9519 44.9639 97.3322 45.3232 97.5796 45.8225C97.7149 46.0885 97.7966 46.3615 97.8246 46.6415C97.8526 46.9169 97.8666 47.2179 97.8666 47.5445V52.1855H96.3896V50.5475L96.6346 50.8135C96.2939 51.3595 95.8949 51.7609 95.4376 52.0175C94.9849 52.2695 94.4179 52.3955 93.7366 52.3955ZM94.0726 51.0515C94.4552 51.0515 94.7819 50.9839 95.0526 50.8485C95.3232 50.7132 95.5379 50.5475 95.6966 50.3515C95.8599 50.1555 95.9696 49.9712 96.0256 49.7985C96.1142 49.5839 96.1632 49.3389 96.1726 49.0635C96.1866 48.7835 96.1936 48.5572 96.1936 48.3845L96.7116 48.5385C96.2029 48.6179 95.7666 48.6879 95.4026 48.7485C95.0386 48.8092 94.7259 48.8675 94.4646 48.9235C94.2032 48.9749 93.9722 49.0332 93.7716 49.0985C93.5756 49.1685 93.4099 49.2502 93.2746 49.3435C93.1392 49.4369 93.0342 49.5442 92.9596 49.6655C92.8896 49.7869 92.8546 49.9292 92.8546 50.0925C92.8546 50.2792 92.9012 50.4449 92.9946 50.5895C93.0879 50.7295 93.2232 50.8415 93.4006 50.9255C93.5826 51.0095 93.8066 51.0515 94.0726 51.0515ZM104.918 52.1855V48.5455C104.918 48.3075 104.902 48.0439 104.869 47.7545C104.836 47.4652 104.759 47.1875 104.638 46.9215C104.521 46.6509 104.344 46.4292 104.106 46.2565C103.873 46.0839 103.555 45.9975 103.154 45.9975C102.939 45.9975 102.727 46.0325 102.517 46.1025C102.307 46.1725 102.116 46.2939 101.943 46.4665C101.775 46.6345 101.64 46.8679 101.537 47.1665C101.434 47.4605 101.383 47.8385 101.383 48.3005L100.382 47.8735C100.382 47.2295 100.506 46.6462 100.753 46.1235C101.005 45.6009 101.374 45.1855 101.859 44.8775C102.344 44.5649 102.942 44.4085 103.651 44.4085C104.211 44.4085 104.673 44.5019 105.037 44.6885C105.401 44.8752 105.69 45.1132 105.905 45.4025C106.12 45.6919 106.278 45.9999 106.381 46.3265C106.484 46.6532 106.549 46.9635 106.577 47.2575C106.61 47.5469 106.626 47.7825 106.626 47.9645V52.1855H104.918ZM99.675 52.1855V44.6255H101.18V46.9705H101.383V52.1855H99.675ZM109.173 55.5455L110.629 51.5485L110.657 52.7245L107.36 44.6255H109.117L111.455 50.6175H111.007L113.282 44.6255H114.969L110.755 55.5455H109.173Z" fill="white"/>
<path d="M17.7436 66.1855V60.4255H19.9876C20.3316 60.4255 20.6249 60.4962 20.8676 60.6375C21.1129 60.7789 21.2996 60.9655 21.4276 61.1975C21.5583 61.4269 21.6236 61.6749 21.6236 61.9415C21.6236 62.2535 21.5436 62.5269 21.3836 62.7615C21.2236 62.9962 21.0076 63.1575 20.7356 63.2455L20.7276 63.0495C21.0983 63.1482 21.3863 63.3295 21.5916 63.5935C21.7969 63.8575 21.8996 64.1722 21.8996 64.5375C21.8996 64.8735 21.8303 65.1642 21.6916 65.4095C21.5556 65.6549 21.3583 65.8455 21.0996 65.9815C20.8436 66.1175 20.5396 66.1855 20.1876 66.1855H17.7436ZM18.4636 65.5055H20.0516C20.2649 65.5055 20.4556 65.4669 20.6236 65.3895C20.7916 65.3095 20.9236 65.1975 21.0196 65.0535C21.1183 64.9095 21.1676 64.7362 21.1676 64.5335C21.1676 64.3389 21.1236 64.1642 21.0356 64.0095C20.9503 63.8549 20.8289 63.7322 20.6716 63.6415C20.5169 63.5482 20.3369 63.5015 20.1316 63.5015H18.4636V65.5055ZM18.4636 62.8295H19.9796C20.1503 62.8295 20.3036 62.7935 20.4396 62.7215C20.5783 62.6469 20.6876 62.5429 20.7676 62.4095C20.8503 62.2762 20.8916 62.1202 20.8916 61.9415C20.8916 61.6935 20.8076 61.4909 20.6396 61.3335C20.4716 61.1762 20.2516 61.0975 19.9796 61.0975H18.4636V62.8295ZM24.3367 66.2975C24.0594 66.2975 23.8207 66.2535 23.6207 66.1655C23.4234 66.0775 23.2594 65.9602 23.1287 65.8135C22.9981 65.6669 22.8954 65.5042 22.8207 65.3255C22.7461 65.1469 22.6927 64.9642 22.6607 64.7775C22.6314 64.5909 22.6167 64.4162 22.6167 64.2535V61.8655H23.3367V64.0295C23.3367 64.2322 23.3554 64.4282 23.3927 64.6175C23.4301 64.8069 23.4927 64.9775 23.5807 65.1295C23.6714 65.2815 23.7914 65.4015 23.9407 65.4895C24.0927 65.5775 24.2821 65.6215 24.5087 65.6215C24.6874 65.6215 24.8501 65.5909 24.9967 65.5295C25.1434 65.4682 25.2687 65.3775 25.3727 65.2575C25.4767 65.1349 25.5567 64.9802 25.6127 64.7935C25.6687 64.6069 25.6967 64.3895 25.6967 64.1415L26.1647 64.2855C26.1647 64.7015 26.0887 65.0602 25.9367 65.3615C25.7874 65.6629 25.5754 65.8949 25.3007 66.0575C25.0287 66.2175 24.7074 66.2975 24.3367 66.2975ZM25.7767 66.1855V65.0295H25.6967V61.8655H26.4127V66.1855H25.7767ZM27.6127 61.1015V60.3655H28.3247V61.1015H27.6127ZM27.6127 66.1855V61.8655H28.3247V66.1855H27.6127ZM29.6048 66.1855V60.3055H30.3168V66.1855H29.6048ZM33.213 66.3055C32.8104 66.3055 32.465 66.2055 32.177 66.0055C31.889 65.8029 31.6664 65.5295 31.509 65.1855C31.3544 64.8415 31.277 64.4535 31.277 64.0215C31.277 63.5895 31.3544 63.2015 31.509 62.8575C31.6664 62.5135 31.889 62.2429 32.177 62.0455C32.465 61.8455 32.809 61.7455 33.209 61.7455C33.617 61.7455 33.9597 61.8442 34.237 62.0415C34.5144 62.2389 34.7237 62.5095 34.865 62.8535C35.009 63.1975 35.081 63.5869 35.081 64.0215C35.081 64.4509 35.009 64.8389 34.865 65.1855C34.7237 65.5295 34.5144 65.8029 34.237 66.0055C33.9597 66.2055 33.6184 66.3055 33.213 66.3055ZM33.301 65.6535C33.5917 65.6535 33.8304 65.5842 34.017 65.4455C34.2037 65.3042 34.341 65.1109 34.429 64.8655C34.5197 64.6175 34.565 64.3362 34.565 64.0215C34.565 63.7015 34.5197 63.4202 34.429 63.1775C34.341 62.9322 34.205 62.7415 34.021 62.6055C33.837 62.4669 33.6037 62.3975 33.321 62.3975C33.0277 62.3975 32.785 62.4695 32.593 62.6135C32.4037 62.7575 32.2624 62.9522 32.169 63.1975C32.0784 63.4429 32.033 63.7175 32.033 64.0215C32.033 64.3282 32.0797 64.6055 32.173 64.8535C32.2664 65.0989 32.4064 65.2935 32.593 65.4375C32.7824 65.5815 33.0184 65.6535 33.301 65.6535ZM34.565 66.1855V63.0055H34.485V60.4255H35.201V66.1855H34.565ZM38.8433 66.1855L37.5233 61.8615L38.2313 61.8655L39.1953 65.0255L40.1673 61.8655H40.7953L41.7633 65.0255L42.7313 61.8655H43.4353L42.1153 66.1855H41.5233L40.4793 62.9015L39.4353 66.1855H38.8433ZM44.2377 61.1015V60.3655H44.9497V61.1015H44.2377ZM44.2377 66.1855V61.8655H44.9497V66.1855H44.2377ZM48.5618 66.1855C48.3058 66.2362 48.0525 66.2562 47.8018 66.2455C47.5538 66.2375 47.3325 66.1882 47.1378 66.0975C46.9432 66.0042 46.7952 65.8602 46.6938 65.6655C46.6085 65.4949 46.5618 65.3229 46.5538 65.1495C46.5485 64.9735 46.5458 64.7749 46.5458 64.5535V60.6655H47.2578V64.5215C47.2578 64.6975 47.2592 64.8482 47.2618 64.9735C47.2672 65.0989 47.2952 65.2069 47.3458 65.2975C47.4418 65.4682 47.5938 65.5682 47.8018 65.5975C48.0125 65.6269 48.2658 65.6189 48.5618 65.5735V66.1855ZM45.6698 62.4535V61.8655H48.5618V62.4535H45.6698ZM52.5149 66.1855V64.0215C52.5149 63.8162 52.4962 63.6189 52.4589 63.4295C52.4242 63.2402 52.3616 63.0709 52.2709 62.9215C52.1829 62.7695 52.0629 62.6495 51.9109 62.5615C51.7616 62.4735 51.5722 62.4295 51.3429 62.4295C51.1642 62.4295 51.0016 62.4602 50.8549 62.5215C50.7109 62.5802 50.5869 62.6709 50.4829 62.7935C50.3789 62.9162 50.2976 63.0709 50.2389 63.2575C50.1829 63.4415 50.1549 63.6589 50.1549 63.9095L49.6869 63.7655C49.6869 63.3469 49.7616 62.9882 49.9109 62.6895C50.0629 62.3882 50.2749 62.1575 50.5469 61.9975C50.8216 61.8349 51.1442 61.7535 51.5149 61.7535C51.7949 61.7535 52.0336 61.7975 52.2309 61.8855C52.4282 61.9735 52.5922 62.0909 52.7229 62.2375C52.8536 62.3815 52.9562 62.5442 53.0309 62.7255C53.1056 62.9042 53.1576 63.0869 53.1869 63.2735C53.2189 63.4575 53.2349 63.6322 53.2349 63.7975V66.1855H52.5149ZM49.4349 66.1855V60.4255H50.0749V63.6055H50.1549V66.1855H49.4349ZM54.3548 61.1015V60.3655H55.0668V61.1015H54.3548ZM54.3548 66.1855V61.8655H55.0668V66.1855H54.3548ZM59.343 66.1855V64.0215C59.343 63.8162 59.3244 63.6189 59.287 63.4295C59.2524 63.2402 59.1897 63.0709 59.099 62.9215C59.011 62.7695 58.891 62.6495 58.739 62.5615C58.5897 62.4735 58.4004 62.4295 58.171 62.4295C57.9924 62.4295 57.8297 62.4602 57.683 62.5215C57.539 62.5802 57.415 62.6709 57.311 62.7935C57.207 62.9162 57.1257 63.0709 57.067 63.2575C57.011 63.4415 56.983 63.6589 56.983 63.9095L56.515 63.7655C56.515 63.3469 56.5897 62.9882 56.739 62.6895C56.891 62.3882 57.103 62.1575 57.375 61.9975C57.6497 61.8349 57.9724 61.7535 58.343 61.7535C58.623 61.7535 58.8617 61.7975 59.059 61.8855C59.2564 61.9735 59.4204 62.0909 59.551 62.2375C59.6817 62.3815 59.7844 62.5442 59.859 62.7255C59.9337 62.9042 59.9857 63.0869 60.015 63.2735C60.047 63.4575 60.063 63.6322 60.063 63.7975V66.1855H59.343ZM56.263 66.1855V61.8655H56.903V63.0215H56.983V66.1855H56.263ZM63.9325 66.3055C63.6099 66.3055 63.3392 66.2469 63.1205 66.1295C62.9045 66.0095 62.7405 65.8522 62.6285 65.6575C62.5192 65.4629 62.4645 65.2495 62.4645 65.0175C62.4645 64.7909 62.5072 64.5949 62.5925 64.4295C62.6805 64.2615 62.8032 64.1229 62.9605 64.0135C63.1179 63.9015 63.3059 63.8135 63.5245 63.7495C63.7299 63.6935 63.9592 63.6455 64.2125 63.6055C64.4685 63.5629 64.7272 63.5242 64.9885 63.4895C65.2499 63.4549 65.4939 63.4215 65.7205 63.3895L65.4645 63.5375C65.4725 63.1535 65.3952 62.8695 65.2325 62.6855C65.0725 62.5015 64.7952 62.4095 64.4005 62.4095C64.1392 62.4095 63.9099 62.4695 63.7125 62.5895C63.5179 62.7069 63.3805 62.8989 63.3005 63.1655L62.6245 62.9615C62.7285 62.5829 62.9299 62.2855 63.2285 62.0695C63.5272 61.8535 63.9205 61.7455 64.4085 61.7455C64.8005 61.7455 65.1365 61.8162 65.4165 61.9575C65.6992 62.0962 65.9019 62.3069 66.0245 62.5895C66.0859 62.7229 66.1245 62.8682 66.1405 63.0255C66.1565 63.1802 66.1645 63.3429 66.1645 63.5135V66.1855H65.5325V65.1495L65.6805 65.2455C65.5179 65.5949 65.2899 65.8589 64.9965 66.0375C64.7059 66.2162 64.3512 66.3055 63.9325 66.3055ZM64.0405 65.7095C64.2965 65.7095 64.5179 65.6642 64.7045 65.5735C64.8939 65.4802 65.0459 65.3589 65.1605 65.2095C65.2752 65.0575 65.3499 64.8922 65.3845 64.7135C65.4245 64.5802 65.4459 64.4322 65.4485 64.2695C65.4539 64.1042 65.4565 63.9775 65.4565 63.8895L65.7045 63.9975C65.4725 64.0295 65.2445 64.0602 65.0205 64.0895C64.7965 64.1189 64.5845 64.1509 64.3845 64.1855C64.1845 64.2175 64.0045 64.2562 63.8445 64.3015C63.7272 64.3389 63.6165 64.3869 63.5125 64.4455C63.4112 64.5042 63.3285 64.5802 63.2645 64.6735C63.2032 64.7642 63.1725 64.8775 63.1725 65.0135C63.1725 65.1309 63.2019 65.2429 63.2605 65.3495C63.3219 65.4562 63.4152 65.5429 63.5405 65.6095C63.6685 65.6762 63.8352 65.7095 64.0405 65.7095ZM70.5541 68.2255C70.3274 68.2255 70.1061 68.1909 69.8901 68.1215C69.6741 68.0522 69.4754 67.9469 69.2941 67.8055C69.1154 67.6669 68.9661 67.4909 68.8461 67.2775L69.4981 66.9335C69.6048 67.1442 69.7554 67.2975 69.9501 67.3935C70.1474 67.4895 70.3501 67.5375 70.5581 67.5375C70.8328 67.5375 71.0608 67.4869 71.2421 67.3855C71.4234 67.2869 71.5568 67.1389 71.6421 66.9415C71.7301 66.7442 71.7728 66.4989 71.7701 66.2055V65.0255H71.8541V61.8655H72.4861V66.2135C72.4861 66.3309 72.4821 66.4442 72.4741 66.5535C72.4688 66.6629 72.4554 66.7709 72.4341 66.8775C72.3781 67.1842 72.2674 67.4362 72.1021 67.6335C71.9368 67.8335 71.7234 67.9815 71.4621 68.0775C71.2008 68.1762 70.8981 68.2255 70.5541 68.2255ZM70.5021 66.3055C70.0994 66.3055 69.7541 66.2055 69.4661 66.0055C69.1781 65.8029 68.9554 65.5295 68.7981 65.1855C68.6434 64.8415 68.5661 64.4535 68.5661 64.0215C68.5661 63.5895 68.6434 63.2015 68.7981 62.8575C68.9554 62.5135 69.1781 62.2429 69.4661 62.0455C69.7541 61.8455 70.0981 61.7455 70.4981 61.7455C70.9061 61.7455 71.2488 61.8442 71.5261 62.0415C71.8034 62.2389 72.0128 62.5095 72.1541 62.8535C72.2981 63.1975 72.3701 63.5869 72.3701 64.0215C72.3701 64.4509 72.2981 64.8389 72.1541 65.1855C72.0128 65.5295 71.8034 65.8029 71.5261 66.0055C71.2488 66.2055 70.9074 66.3055 70.5021 66.3055ZM70.5901 65.6535C70.8808 65.6535 71.1194 65.5842 71.3061 65.4455C71.4928 65.3042 71.6301 65.1109 71.7181 64.8655C71.8088 64.6175 71.8541 64.3362 71.8541 64.0215C71.8541 63.7015 71.8088 63.4202 71.7181 63.1775C71.6301 62.9322 71.4941 62.7415 71.3101 62.6055C71.1261 62.4669 70.8928 62.3975 70.6101 62.3975C70.3168 62.3975 70.0741 62.4695 69.8821 62.6135C69.6928 62.7575 69.5514 62.9522 69.4581 63.1975C69.3674 63.4429 69.3221 63.7175 69.3221 64.0215C69.3221 64.3282 69.3688 64.6055 69.4621 64.8535C69.5554 65.0989 69.6954 65.2935 69.8821 65.4375C70.0714 65.5815 70.3074 65.6535 70.5901 65.6535ZM75.243 66.2975C74.9656 66.2975 74.727 66.2535 74.527 66.1655C74.3296 66.0775 74.1656 65.9602 74.035 65.8135C73.9043 65.6669 73.8016 65.5042 73.727 65.3255C73.6523 65.1469 73.599 64.9642 73.567 64.7775C73.5376 64.5909 73.523 64.4162 73.523 64.2535V61.8655H74.243V64.0295C74.243 64.2322 74.2616 64.4282 74.299 64.6175C74.3363 64.8069 74.399 64.9775 74.487 65.1295C74.5776 65.2815 74.6976 65.4015 74.847 65.4895C74.999 65.5775 75.1883 65.6215 75.415 65.6215C75.5936 65.6215 75.7563 65.5909 75.903 65.5295C76.0496 65.4682 76.175 65.3775 76.279 65.2575C76.383 65.1349 76.463 64.9802 76.519 64.7935C76.575 64.6069 76.603 64.3895 76.603 64.1415L77.071 64.2855C77.071 64.7015 76.995 65.0602 76.843 65.3615C76.6936 65.6629 76.4816 65.8949 76.207 66.0575C75.935 66.2175 75.6136 66.2975 75.243 66.2975ZM76.683 66.1855V65.0295H76.603V61.8655H77.319V66.1855H76.683ZM78.5189 61.1015V60.3655H79.2309V61.1015H78.5189ZM78.5189 66.1855V61.8655H79.2309V66.1855H78.5189ZM82.1271 66.3055C81.7244 66.3055 81.3791 66.2055 81.0911 66.0055C80.8031 65.8029 80.5804 65.5295 80.4231 65.1855C80.2684 64.8415 80.1911 64.4535 80.1911 64.0215C80.1911 63.5895 80.2684 63.2015 80.4231 62.8575C80.5804 62.5135 80.8031 62.2429 81.0911 62.0455C81.3791 61.8455 81.7231 61.7455 82.1231 61.7455C82.5311 61.7455 82.8738 61.8442 83.1511 62.0415C83.4284 62.2389 83.6378 62.5095 83.7791 62.8535C83.9231 63.1975 83.9951 63.5869 83.9951 64.0215C83.9951 64.4509 83.9231 64.8389 83.7791 65.1855C83.6378 65.5295 83.4284 65.8029 83.1511 66.0055C82.8738 66.2055 82.5324 66.3055 82.1271 66.3055ZM82.2151 65.6535C82.5058 65.6535 82.7444 65.5842 82.9311 65.4455C83.1178 65.3042 83.2551 65.1109 83.3431 64.8655C83.4338 64.6175 83.4791 64.3362 83.4791 64.0215C83.4791 63.7015 83.4338 63.4202 83.3431 63.1775C83.2551 62.9322 83.1191 62.7415 82.9351 62.6055C82.7511 62.4669 82.5178 62.3975 82.2351 62.3975C81.9418 62.3975 81.6991 62.4695 81.5071 62.6135C81.3178 62.7575 81.1764 62.9522 81.0831 63.1975C80.9924 63.4429 80.9471 63.7175 80.9471 64.0215C80.9471 64.3282 80.9938 64.6055 81.0871 64.8535C81.1804 65.0989 81.3204 65.2935 81.5071 65.4375C81.6964 65.5815 81.9324 65.6535 82.2151 65.6535ZM83.4791 66.1855V63.0055H83.3991V60.4255H84.1151V66.1855H83.4791ZM87.1078 66.3055C86.6838 66.3055 86.3131 66.2122 85.9958 66.0255C85.6811 65.8362 85.4358 65.5735 85.2598 65.2375C85.0838 64.8989 84.9958 64.5042 84.9958 64.0535C84.9958 63.5815 85.0824 63.1735 85.2558 62.8295C85.4291 62.4829 85.6704 62.2162 85.9798 62.0295C86.2918 61.8402 86.6571 61.7455 87.0758 61.7455C87.5104 61.7455 87.8798 61.8455 88.1838 62.0455C88.4904 62.2455 88.7198 62.5309 88.8718 62.9015C89.0264 63.2722 89.0931 63.7135 89.0718 64.2255H88.3518V63.9695C88.3438 63.4389 88.2358 63.0429 88.0278 62.7815C87.8198 62.5175 87.5104 62.3855 87.0998 62.3855C86.6598 62.3855 86.3251 62.5269 86.0958 62.8095C85.8664 63.0922 85.7518 63.4975 85.7518 64.0255C85.7518 64.5349 85.8664 64.9295 86.0958 65.2095C86.3251 65.4895 86.6518 65.6295 87.0758 65.6295C87.3611 65.6295 87.6091 65.5642 87.8198 65.4335C88.0304 65.3029 88.1958 65.1149 88.3158 64.8695L88.9998 65.1055C88.8318 65.4869 88.5784 65.7829 88.2398 65.9935C87.9038 66.2015 87.5264 66.3055 87.1078 66.3055ZM85.5118 64.2255V63.6535H88.7038V64.2255H85.5118ZM91.6583 66.3055C91.2557 66.3055 90.9103 66.2055 90.6223 66.0055C90.3343 65.8029 90.1117 65.5295 89.9543 65.1855C89.7997 64.8415 89.7223 64.4535 89.7223 64.0215C89.7223 63.5895 89.7997 63.2015 89.9543 62.8575C90.1117 62.5135 90.3343 62.2429 90.6223 62.0455C90.9103 61.8455 91.2543 61.7455 91.6543 61.7455C92.0623 61.7455 92.405 61.8442 92.6823 62.0415C92.9597 62.2389 93.169 62.5095 93.3103 62.8535C93.4543 63.1975 93.5263 63.5869 93.5263 64.0215C93.5263 64.4509 93.4543 64.8389 93.3103 65.1855C93.169 65.5295 92.9597 65.8029 92.6823 66.0055C92.405 66.2055 92.0637 66.3055 91.6583 66.3055ZM91.7463 65.6535C92.037 65.6535 92.2757 65.5842 92.4623 65.4455C92.649 65.3042 92.7863 65.1109 92.8743 64.8655C92.965 64.6175 93.0103 64.3362 93.0103 64.0215C93.0103 63.7015 92.965 63.4202 92.8743 63.1775C92.7863 62.9322 92.6503 62.7415 92.4663 62.6055C92.2823 62.4669 92.049 62.3975 91.7663 62.3975C91.473 62.3975 91.2303 62.4695 91.0383 62.6135C90.849 62.7575 90.7077 62.9522 90.6143 63.1975C90.5237 63.4429 90.4783 63.7175 90.4783 64.0215C90.4783 64.3282 90.525 64.6055 90.6183 64.8535C90.7117 65.0989 90.8517 65.2935 91.0383 65.4375C91.2277 65.5815 91.4637 65.6535 91.7463 65.6535ZM93.0103 66.1855V63.0055H92.9303V60.4255H93.6463V66.1855H93.0103ZM98.0006 66.3015C97.4859 66.3015 97.0633 66.1895 96.7326 65.9655C96.4046 65.7389 96.2033 65.4229 96.1286 65.0175L96.8566 64.9015C96.9153 65.1362 97.0499 65.3229 97.2606 65.4615C97.4713 65.5975 97.7326 65.6655 98.0446 65.6655C98.3406 65.6655 98.5726 65.6042 98.7406 65.4815C98.9086 65.3589 98.9926 65.1922 98.9926 64.9815C98.9926 64.8589 98.9646 64.7602 98.9086 64.6855C98.8526 64.6082 98.7366 64.5362 98.5606 64.4695C98.3873 64.4029 98.1246 64.3229 97.7726 64.2295C97.3913 64.1282 97.0913 64.0229 96.8726 63.9135C96.6539 63.8042 96.4979 63.6775 96.4046 63.5335C96.3113 63.3895 96.2646 63.2149 96.2646 63.0095C96.2646 62.7562 96.3339 62.5349 96.4726 62.3455C96.6113 62.1535 96.8046 62.0055 97.0526 61.9015C97.3033 61.7975 97.5939 61.7455 97.9246 61.7455C98.2526 61.7455 98.5459 61.7975 98.8046 61.9015C99.0633 62.0055 99.2713 62.1535 99.4286 62.3455C99.5886 62.5349 99.6833 62.7562 99.7126 63.0095L98.9846 63.1415C98.9499 62.9095 98.8379 62.7269 98.6486 62.5935C98.4619 62.4602 98.2206 62.3895 97.9246 62.3815C97.6446 62.3709 97.4166 62.4202 97.2406 62.5295C97.0673 62.6389 96.9806 62.7869 96.9806 62.9735C96.9806 63.0775 97.0126 63.1669 97.0766 63.2415C97.1433 63.3162 97.2646 63.3869 97.4406 63.4535C97.6193 63.5202 97.8779 63.5962 98.2166 63.6815C98.5979 63.7775 98.8979 63.8829 99.1166 63.9975C99.3379 64.1095 99.4953 64.2429 99.5886 64.3975C99.6819 64.5495 99.7286 64.7375 99.7286 64.9615C99.7286 65.3775 99.5753 65.7055 99.2686 65.9455C98.9619 66.1829 98.5393 66.3015 98.0006 66.3015ZM103.023 66.1855C102.767 66.2362 102.513 66.2562 102.263 66.2455C102.015 66.2375 101.793 66.1882 101.599 66.0975C101.404 66.0042 101.256 65.8602 101.155 65.6655C101.069 65.4949 101.023 65.3229 101.015 65.1495C101.009 64.9735 101.007 64.7749 101.007 64.5535V60.6655H101.719V64.5215C101.719 64.6975 101.72 64.8482 101.723 64.9735C101.728 65.0989 101.756 65.2069 101.807 65.2975C101.903 65.4682 102.055 65.5682 102.263 65.5975C102.473 65.6269 102.727 65.6189 103.023 65.5735V66.1855ZM100.131 62.4535V61.8655H103.023V62.4535H100.131ZM105.128 66.3055C104.805 66.3055 104.535 66.2469 104.316 66.1295C104.1 66.0095 103.936 65.8522 103.824 65.6575C103.715 65.4629 103.66 65.2495 103.66 65.0175C103.66 64.7909 103.703 64.5949 103.788 64.4295C103.876 64.2615 103.999 64.1229 104.156 64.0135C104.313 63.9015 104.501 63.8135 104.72 63.7495C104.925 63.6935 105.155 63.6455 105.408 63.6055C105.664 63.5629 105.923 63.5242 106.184 63.4895C106.445 63.4549 106.689 63.4215 106.916 63.3895L106.66 63.5375C106.668 63.1535 106.591 62.8695 106.428 62.6855C106.268 62.5015 105.991 62.4095 105.596 62.4095C105.335 62.4095 105.105 62.4695 104.908 62.5895C104.713 62.7069 104.576 62.8989 104.496 63.1655L103.82 62.9615C103.924 62.5829 104.125 62.2855 104.424 62.0695C104.723 61.8535 105.116 61.7455 105.604 61.7455C105.996 61.7455 106.332 61.8162 106.612 61.9575C106.895 62.0962 107.097 62.3069 107.22 62.5895C107.281 62.7229 107.32 62.8682 107.336 63.0255C107.352 63.1802 107.36 63.3429 107.36 63.5135V66.1855H106.728V65.1495L106.876 65.2455C106.713 65.5949 106.485 65.8589 106.192 66.0375C105.901 66.2162 105.547 66.3055 105.128 66.3055ZM105.236 65.7095C105.492 65.7095 105.713 65.6642 105.9 65.5735C106.089 65.4802 106.241 65.3589 106.356 65.2095C106.471 65.0575 106.545 64.8922 106.58 64.7135C106.62 64.5802 106.641 64.4322 106.644 64.2695C106.649 64.1042 106.652 63.9775 106.652 63.8895L106.9 63.9975C106.668 64.0295 106.44 64.0602 106.216 64.0895C105.992 64.1189 105.78 64.1509 105.58 64.1855C105.38 64.2175 105.2 64.2562 105.04 64.3015C104.923 64.3389 104.812 64.3869 104.708 64.4455C104.607 64.5042 104.524 64.5802 104.46 64.6735C104.399 64.7642 104.368 64.8775 104.368 65.0135C104.368 65.1309 104.397 65.2429 104.456 65.3495C104.517 65.4562 104.611 65.5429 104.736 65.6095C104.864 65.6762 105.031 65.7095 105.236 65.7095ZM108.4 66.1855V61.8655H109.036V62.9095L108.932 62.7735C108.983 62.6402 109.048 62.5175 109.128 62.4055C109.211 62.2935 109.303 62.2015 109.404 62.1295C109.516 62.0389 109.643 61.9695 109.784 61.9215C109.925 61.8735 110.069 61.8455 110.216 61.8375C110.363 61.8269 110.5 61.8362 110.628 61.8655V62.5335C110.479 62.4935 110.315 62.4829 110.136 62.5015C109.957 62.5202 109.792 62.5855 109.64 62.6975C109.501 62.7962 109.393 62.9162 109.316 63.0575C109.241 63.1989 109.189 63.3522 109.16 63.5175C109.131 63.6802 109.116 63.8469 109.116 64.0175V66.1855H108.4ZM113.796 66.1855C113.54 66.2362 113.287 66.2562 113.036 66.2455C112.788 66.2375 112.567 66.1882 112.372 66.0975C112.178 66.0042 112.03 65.8602 111.928 65.6655C111.843 65.4949 111.796 65.3229 111.788 65.1495C111.783 64.9735 111.78 64.7749 111.78 64.5535V60.6655H112.492V64.5215C112.492 64.6975 112.494 64.8482 112.496 64.9735C112.502 65.0989 112.53 65.2069 112.58 65.2975C112.676 65.4682 112.828 65.5682 113.036 65.5975C113.247 65.6269 113.5 65.6189 113.796 65.5735V66.1855ZM110.904 62.4535V61.8655H113.796V62.4535H110.904ZM116.313 66.2975C116.036 66.2975 115.797 66.2535 115.597 66.1655C115.4 66.0775 115.236 65.9602 115.105 65.8135C114.975 65.6669 114.872 65.5042 114.797 65.3255C114.723 65.1469 114.669 64.9642 114.637 64.7775C114.608 64.5909 114.593 64.4162 114.593 64.2535V61.8655H115.313V64.0295C115.313 64.2322 115.332 64.4282 115.369 64.6175C115.407 64.8069 115.469 64.9775 115.557 65.1295C115.648 65.2815 115.768 65.4015 115.917 65.4895C116.069 65.5775 116.259 65.6215 116.485 65.6215C116.664 65.6215 116.827 65.5909 116.973 65.5295C117.12 65.4682 117.245 65.3775 117.349 65.2575C117.453 65.1349 117.533 64.9802 117.589 64.7935C117.645 64.6069 117.673 64.3895 117.673 64.1415L118.141 64.2855C118.141 64.7015 118.065 65.0602 117.913 65.3615C117.764 65.6629 117.552 65.8949 117.277 66.0575C117.005 66.2175 116.684 66.2975 116.313 66.2975ZM117.753 66.1855V65.0295H117.673V61.8655H118.389V66.1855H117.753ZM121.493 66.3055C121.088 66.3055 120.747 66.2055 120.469 66.0055C120.192 65.8029 119.981 65.5295 119.837 65.1855C119.696 64.8389 119.625 64.4509 119.625 64.0215C119.625 63.5869 119.696 63.1975 119.837 62.8535C119.981 62.5095 120.192 62.2389 120.469 62.0415C120.749 61.8442 121.092 61.7455 121.497 61.7455C121.897 61.7455 122.241 61.8455 122.529 62.0455C122.82 62.2429 123.043 62.5135 123.197 62.8575C123.352 63.2015 123.429 63.5895 123.429 64.0215C123.429 64.4535 123.352 64.8415 123.197 65.1855C123.043 65.5295 122.82 65.8029 122.529 66.0055C122.241 66.2055 121.896 66.3055 121.493 66.3055ZM119.505 68.1055V61.8655H120.141V65.0455H120.221V68.1055H119.505ZM121.405 65.6535C121.691 65.6535 121.927 65.5815 122.113 65.4375C122.3 65.2935 122.44 65.0989 122.533 64.8535C122.627 64.6055 122.673 64.3282 122.673 64.0215C122.673 63.7175 122.627 63.4429 122.533 63.1975C122.443 62.9522 122.301 62.7575 122.109 62.6135C121.92 62.4695 121.679 62.3975 121.385 62.3975C121.105 62.3975 120.873 62.4669 120.689 62.6055C120.505 62.7415 120.368 62.9322 120.277 63.1775C120.187 63.4202 120.141 63.7015 120.141 64.0215C120.141 64.3362 120.185 64.6175 120.273 64.8655C120.364 65.1109 120.503 65.3042 120.689 65.4455C120.876 65.5842 121.115 65.6535 121.405 65.6535ZM19.6156 75.3055C19.1916 75.3055 18.8209 75.2122 18.5036 75.0255C18.1889 74.8362 17.9436 74.5735 17.7676 74.2375C17.5916 73.8989 17.5036 73.5042 17.5036 73.0535C17.5036 72.5815 17.5903 72.1735 17.7636 71.8295C17.9369 71.4829 18.1783 71.2162 18.4876 71.0295C18.7996 70.8402 19.1649 70.7455 19.5836 70.7455C20.0183 70.7455 20.3876 70.8455 20.6916 71.0455C20.9983 71.2455 21.2276 71.5309 21.3796 71.9015C21.5343 72.2722 21.6009 72.7135 21.5796 73.2255H20.8596V72.9695C20.8516 72.4389 20.7436 72.0429 20.5356 71.7815C20.3276 71.5175 20.0183 71.3855 19.6076 71.3855C19.1676 71.3855 18.8329 71.5269 18.6036 71.8095C18.3743 72.0922 18.2596 72.4975 18.2596 73.0255C18.2596 73.5349 18.3743 73.9295 18.6036 74.2095C18.8329 74.4895 19.1596 74.6295 19.5836 74.6295C19.8689 74.6295 20.1169 74.5642 20.3276 74.4335C20.5383 74.3029 20.7036 74.1149 20.8236 73.8695L21.5076 74.1055C21.3396 74.4869 21.0863 74.7829 20.7476 74.9935C20.4116 75.2015 20.0343 75.3055 19.6156 75.3055ZM18.0196 73.2255V72.6535H21.2116V73.2255H18.0196ZM24.2902 75.3055C23.8528 75.3055 23.4808 75.2082 23.1742 75.0135C22.8702 74.8162 22.6382 74.5455 22.4782 74.2015C22.3182 73.8575 22.2355 73.4655 22.2302 73.0255C22.2355 72.5749 22.3195 72.1789 22.4822 71.8375C22.6475 71.4935 22.8835 71.2255 23.1902 71.0335C23.4968 70.8415 23.8662 70.7455 24.2982 70.7455C24.7542 70.7455 25.1462 70.8575 25.4742 71.0815C25.8048 71.3055 26.0262 71.6122 26.1382 72.0015L25.4342 72.2135C25.3435 71.9629 25.1955 71.7682 24.9902 71.6295C24.7875 71.4909 24.5542 71.4215 24.2902 71.4215C23.9942 71.4215 23.7502 71.4909 23.5582 71.6295C23.3662 71.7655 23.2235 71.9549 23.1302 72.1975C23.0368 72.4375 22.9888 72.7135 22.9862 73.0255C22.9915 73.5055 23.1022 73.8935 23.3182 74.1895C23.5368 74.4829 23.8608 74.6295 24.2902 74.6295C24.5728 74.6295 24.8075 74.5655 24.9942 74.4375C25.1808 74.3069 25.3222 74.1189 25.4182 73.8735L26.1382 74.0615C25.9888 74.4642 25.7555 74.7722 25.4382 74.9855C25.1208 75.1989 24.7382 75.3055 24.2902 75.3055ZM28.6773 75.3055C28.248 75.3055 27.8773 75.2082 27.5653 75.0135C27.256 74.8189 27.0173 74.5495 26.8493 74.2055C26.6813 73.8615 26.5973 73.4669 26.5973 73.0215C26.5973 72.5682 26.6827 72.1709 26.8533 71.8295C27.024 71.4882 27.2653 71.2229 27.5773 71.0335C27.8893 70.8415 28.256 70.7455 28.6773 70.7455C29.1093 70.7455 29.4813 70.8429 29.7933 71.0375C30.1053 71.2295 30.344 71.4975 30.5093 71.8415C30.6773 72.1829 30.7613 72.5762 30.7613 73.0215C30.7613 73.4722 30.6773 73.8695 30.5093 74.2135C30.3413 74.5549 30.1013 74.8229 29.7893 75.0175C29.4773 75.2095 29.1067 75.3055 28.6773 75.3055ZM28.6773 74.6295C29.1253 74.6295 29.4587 74.4802 29.6773 74.1815C29.896 73.8829 30.0053 73.4962 30.0053 73.0215C30.0053 72.5335 29.8947 72.1455 29.6733 71.8575C29.452 71.5669 29.12 71.4215 28.6773 71.4215C28.376 71.4215 28.128 71.4895 27.9333 71.6255C27.7387 71.7615 27.5933 71.9495 27.4973 72.1895C27.4013 72.4295 27.3533 72.7069 27.3533 73.0215C27.3533 73.5069 27.4653 73.8962 27.6893 74.1895C27.9133 74.4829 28.2427 74.6295 28.6773 74.6295ZM33.2115 75.3015C32.6969 75.3015 32.2742 75.1895 31.9435 74.9655C31.6155 74.7389 31.4142 74.4229 31.3395 74.0175L32.0675 73.9015C32.1262 74.1362 32.2609 74.3229 32.4715 74.4615C32.6822 74.5975 32.9435 74.6655 33.2555 74.6655C33.5515 74.6655 33.7835 74.6042 33.9515 74.4815C34.1195 74.3589 34.2035 74.1922 34.2035 73.9815C34.2035 73.8589 34.1755 73.7602 34.1195 73.6855C34.0635 73.6082 33.9475 73.5362 33.7715 73.4695C33.5982 73.4029 33.3355 73.3229 32.9835 73.2295C32.6022 73.1282 32.3022 73.0229 32.0835 72.9135C31.8649 72.8042 31.7089 72.6775 31.6155 72.5335C31.5222 72.3895 31.4755 72.2149 31.4755 72.0095C31.4755 71.7562 31.5449 71.5349 31.6835 71.3455C31.8222 71.1535 32.0155 71.0055 32.2635 70.9015C32.5142 70.7975 32.8049 70.7455 33.1355 70.7455C33.4635 70.7455 33.7569 70.7975 34.0155 70.9015C34.2742 71.0055 34.4822 71.1535 34.6395 71.3455C34.7995 71.5349 34.8942 71.7562 34.9235 72.0095L34.1955 72.1415C34.1609 71.9095 34.0489 71.7269 33.8595 71.5935C33.6729 71.4602 33.4315 71.3895 33.1355 71.3815C32.8555 71.3709 32.6275 71.4202 32.4515 71.5295C32.2782 71.6389 32.1915 71.7869 32.1915 71.9735C32.1915 72.0775 32.2235 72.1669 32.2875 72.2415C32.3542 72.3162 32.4755 72.3869 32.6515 72.4535C32.8302 72.5202 33.0889 72.5962 33.4275 72.6815C33.8089 72.7775 34.1089 72.8829 34.3275 72.9975C34.5489 73.1095 34.7062 73.2429 34.7995 73.3975C34.8929 73.5495 34.9395 73.7375 34.9395 73.9615C34.9395 74.3775 34.7862 74.7055 34.4795 74.9455C34.1729 75.1829 33.7502 75.3015 33.2115 75.3015ZM36.2655 77.1055L37.1015 74.8335L37.1135 75.5055L35.2255 70.8655H35.9735L37.4535 74.5975H37.1975L38.5855 70.8655H39.3095L36.9575 77.1055H36.2655ZM41.6022 75.3015C41.0875 75.3015 40.6648 75.1895 40.3342 74.9655C40.0062 74.7389 39.8048 74.4229 39.7302 74.0175L40.4582 73.9015C40.5168 74.1362 40.6515 74.3229 40.8622 74.4615C41.0728 74.5975 41.3342 74.6655 41.6462 74.6655C41.9422 74.6655 42.1742 74.6042 42.3422 74.4815C42.5102 74.3589 42.5942 74.1922 42.5942 73.9815C42.5942 73.8589 42.5662 73.7602 42.5102 73.6855C42.4542 73.6082 42.3382 73.5362 42.1622 73.4695C41.9888 73.4029 41.7262 73.3229 41.3742 73.2295C40.9928 73.1282 40.6928 73.0229 40.4742 72.9135C40.2555 72.8042 40.0995 72.6775 40.0062 72.5335C39.9128 72.3895 39.8662 72.2149 39.8662 72.0095C39.8662 71.7562 39.9355 71.5349 40.0742 71.3455C40.2128 71.1535 40.4062 71.0055 40.6542 70.9015C40.9048 70.7975 41.1955 70.7455 41.5262 70.7455C41.8542 70.7455 42.1475 70.7975 42.4062 70.9015C42.6648 71.0055 42.8728 71.1535 43.0302 71.3455C43.1902 71.5349 43.2848 71.7562 43.3142 72.0095L42.5862 72.1415C42.5515 71.9095 42.4395 71.7269 42.2502 71.5935C42.0635 71.4602 41.8222 71.3895 41.5262 71.3815C41.2462 71.3709 41.0182 71.4202 40.8422 71.5295C40.6688 71.6389 40.5822 71.7869 40.5822 71.9735C40.5822 72.0775 40.6142 72.1669 40.6782 72.2415C40.7448 72.3162 40.8662 72.3869 41.0422 72.4535C41.2208 72.5202 41.4795 72.5962 41.8182 72.6815C42.1995 72.7775 42.4995 72.8829 42.7182 72.9975C42.9395 73.1095 43.0968 73.2429 43.1902 73.3975C43.2835 73.5495 43.3302 73.7375 43.3302 73.9615C43.3302 74.3775 43.1768 74.7055 42.8702 74.9455C42.5635 75.1829 42.1408 75.3015 41.6022 75.3015ZM46.6243 75.1855C46.3683 75.2362 46.115 75.2562 45.8643 75.2455C45.6163 75.2375 45.395 75.1882 45.2003 75.0975C45.0057 75.0042 44.8577 74.8602 44.7563 74.6655C44.671 74.4949 44.6243 74.3229 44.6163 74.1495C44.611 73.9735 44.6083 73.7749 44.6083 73.5535V69.6655H45.3203V73.5215C45.3203 73.6975 45.3217 73.8482 45.3243 73.9735C45.3297 74.0989 45.3577 74.2069 45.4083 74.2975C45.5043 74.4682 45.6563 74.5682 45.8643 74.5975C46.075 74.6269 46.3283 74.6189 46.6243 74.5735V75.1855ZM43.7323 71.4535V70.8655H46.6243V71.4535H43.7323ZM49.1937 75.3055C48.7697 75.3055 48.3991 75.2122 48.0817 75.0255C47.7671 74.8362 47.5217 74.5735 47.3457 74.2375C47.1697 73.8989 47.0817 73.5042 47.0817 73.0535C47.0817 72.5815 47.1684 72.1735 47.3417 71.8295C47.5151 71.4829 47.7564 71.2162 48.0657 71.0295C48.3777 70.8402 48.7431 70.7455 49.1617 70.7455C49.5964 70.7455 49.9657 70.8455 50.2697 71.0455C50.5764 71.2455 50.8057 71.5309 50.9577 71.9015C51.1124 72.2722 51.1791 72.7135 51.1577 73.2255H50.4377V72.9695C50.4297 72.4389 50.3217 72.0429 50.1137 71.7815C49.9057 71.5175 49.5964 71.3855 49.1857 71.3855C48.7457 71.3855 48.4111 71.5269 48.1817 71.8095C47.9524 72.0922 47.8377 72.4975 47.8377 73.0255C47.8377 73.5349 47.9524 73.9295 48.1817 74.2095C48.4111 74.4895 48.7377 74.6295 49.1617 74.6295C49.4471 74.6295 49.6951 74.5642 49.9057 74.4335C50.1164 74.3029 50.2817 74.1149 50.4017 73.8695L51.0857 74.1055C50.9177 74.4869 50.6644 74.7829 50.3257 74.9935C49.9897 75.2015 49.6124 75.3055 49.1937 75.3055ZM47.5977 73.2255V72.6535H50.7897V73.2255H47.5977ZM57.0951 75.1855L57.0991 72.4215C57.0991 72.0989 57.0124 71.8469 56.8391 71.6655C56.6684 71.4815 56.4458 71.3895 56.1711 71.3895C56.0111 71.3895 55.8591 71.4269 55.7151 71.5015C55.5711 71.5735 55.4538 71.6882 55.3631 71.8455C55.2724 72.0002 55.2271 72.1989 55.2271 72.4415L54.8511 72.2895C54.8458 71.9829 54.9084 71.7149 55.0391 71.4855C55.1724 71.2535 55.3538 71.0735 55.5831 70.9455C55.8124 70.8175 56.0711 70.7535 56.3591 70.7535C56.8098 70.7535 57.1644 70.8909 57.4231 71.1655C57.6818 71.4375 57.8111 71.8042 57.8111 72.2655L57.8071 75.1855H57.0951ZM51.9271 75.1855V70.8655H52.5631V72.0215H52.6431V75.1855H51.9271ZM54.5151 75.1855L54.5191 72.4495C54.5191 72.1189 54.4338 71.8602 54.2631 71.6735C54.0924 71.4842 53.8658 71.3895 53.5831 71.3895C53.3031 71.3895 53.0764 71.4855 52.9031 71.6775C52.7298 71.8695 52.6431 72.1242 52.6431 72.4415L52.2671 72.2175C52.2671 71.9375 52.3338 71.6869 52.4671 71.4655C52.6004 71.2442 52.7818 71.0709 53.0111 70.9455C53.2404 70.8175 53.5004 70.7535 53.7911 70.7535C54.0818 70.7535 54.3351 70.8149 54.5511 70.9375C54.7671 71.0602 54.9338 71.2362 55.0511 71.4655C55.1684 71.6922 55.2271 71.9629 55.2271 72.2775L55.2231 75.1855H54.5151Z" fill="white"/>
<rect x="17.5352" y="84.877" width="67.8088" height="50.0382" rx="11.2235" fill="white"/>
<path d="M26.4769 115.908V110.521H29.6195V111.187H27.1428V112.882H29.1705V113.548H27.1428V115.908H26.4769ZM30.3659 111.153V110.465H31.0319V111.153H30.3659ZM30.3659 115.908V111.868H31.0319V115.908H30.3659ZM35.0313 115.908V113.884C35.0313 113.692 35.0139 113.508 34.979 113.331C34.9465 113.153 34.8879 112.995 34.8031 112.855C34.7208 112.713 34.6086 112.601 34.4664 112.519C34.3267 112.436 34.1497 112.395 33.9352 112.395C33.7681 112.395 33.6159 112.424 33.4787 112.481C33.3441 112.536 33.2281 112.621 33.1308 112.736C33.0336 112.85 32.9575 112.995 32.9026 113.17C32.8502 113.342 32.824 113.545 32.824 113.779L32.3863 113.645C32.3863 113.253 32.4562 112.918 32.5958 112.638C32.738 112.357 32.9363 112.141 33.1907 111.991C33.4476 111.839 33.7494 111.763 34.096 111.763C34.3579 111.763 34.5811 111.804 34.7657 111.886C34.9503 111.969 35.1037 112.079 35.2259 112.216C35.3481 112.35 35.4441 112.503 35.5139 112.672C35.5838 112.839 35.6324 113.01 35.6598 113.185C35.6898 113.357 35.7047 113.52 35.7047 113.675V115.908H35.0313ZM32.1506 115.908V111.868H32.7492V112.949H32.824V115.908H32.1506ZM38.2271 116.02C37.8505 116.02 37.5275 115.927 37.2581 115.74C36.9888 115.55 36.7805 115.295 36.6334 114.973C36.4887 114.651 36.4164 114.288 36.4164 113.884C36.4164 113.48 36.4887 113.117 36.6334 112.796C36.7805 112.474 36.9888 112.221 37.2581 112.036C37.5275 111.849 37.8492 111.756 38.2233 111.756C38.6049 111.756 38.9254 111.848 39.1848 112.032C39.4442 112.217 39.64 112.47 39.7722 112.792C39.9069 113.114 39.9742 113.478 39.9742 113.884C39.9742 114.286 39.9069 114.649 39.7722 114.973C39.64 115.295 39.4442 115.55 39.1848 115.74C38.9254 115.927 38.6062 116.02 38.2271 116.02ZM38.3094 115.411C38.5813 115.411 38.8045 115.346 38.9791 115.216C39.1536 115.084 39.2821 114.903 39.3644 114.674C39.4492 114.442 39.4916 114.179 39.4916 113.884C39.4916 113.585 39.4492 113.322 39.3644 113.095C39.2821 112.865 39.1549 112.687 38.9828 112.56C38.8107 112.43 38.5925 112.365 38.3281 112.365C38.0537 112.365 37.8268 112.433 37.6472 112.567C37.4701 112.702 37.3379 112.884 37.2506 113.114C37.1658 113.343 37.1234 113.6 37.1234 113.884C37.1234 114.171 37.1671 114.43 37.2544 114.662C37.3417 114.892 37.4726 115.074 37.6472 115.209C37.8243 115.343 38.045 115.411 38.3094 115.411ZM39.4916 115.908V112.934H39.4168V110.521H40.0864V115.908H39.4916ZM28.6916 125.02C28.1554 125.02 27.7002 124.902 27.3261 124.665C26.952 124.428 26.6664 124.099 26.4694 123.677C26.2749 123.256 26.1776 122.768 26.1776 122.215C26.1776 121.661 26.2749 121.173 26.4694 120.752C26.6664 120.33 26.952 120.001 27.3261 119.764C27.7002 119.527 28.1554 119.409 28.6916 119.409C29.3152 119.409 29.8277 119.567 30.2293 119.884C30.6333 120.201 30.9114 120.627 31.0635 121.163L30.3864 121.343C30.2767 120.941 30.0809 120.625 29.799 120.393C29.5172 120.161 29.1481 120.045 28.6916 120.045C28.2901 120.045 27.9559 120.136 27.689 120.318C27.4222 120.5 27.2214 120.754 27.0867 121.081C26.952 121.405 26.8834 121.783 26.8809 122.215C26.8784 122.644 26.9445 123.021 27.0792 123.348C27.2139 123.672 27.4159 123.927 27.6853 124.111C27.9546 124.293 28.2901 124.384 28.6916 124.384C29.1481 124.384 29.5172 124.268 29.799 124.037C30.0809 123.802 30.2767 123.485 30.3864 123.086L31.0635 123.266C30.9114 123.8 30.6333 124.226 30.2293 124.545C29.8277 124.862 29.3152 125.02 28.6916 125.02ZM33.605 125.02C33.2034 125.02 32.8567 124.929 32.5649 124.747C32.2756 124.565 32.0524 124.313 31.8952 123.992C31.7381 123.67 31.6596 123.301 31.6596 122.884C31.6596 122.46 31.7394 122.089 31.899 121.769C32.0586 121.45 32.2843 121.202 32.5761 121.025C32.8679 120.845 33.2109 120.756 33.605 120.756C34.009 120.756 34.3569 120.847 34.6487 121.029C34.9405 121.208 35.1638 121.459 35.3184 121.781C35.4755 122.1 35.5541 122.468 35.5541 122.884C35.5541 123.306 35.4755 123.677 35.3184 123.999C35.1613 124.318 34.9368 124.569 34.645 124.751C34.3532 124.931 34.0065 125.02 33.605 125.02ZM33.605 124.388C34.024 124.388 34.3357 124.249 34.5402 123.969C34.7448 123.69 34.847 123.328 34.847 122.884C34.847 122.428 34.7435 122.065 34.5365 121.796C34.3295 121.524 34.019 121.388 33.605 121.388C33.3231 121.388 33.0912 121.451 32.9091 121.579C32.727 121.706 32.5911 121.882 32.5013 122.106C32.4115 122.331 32.3666 122.59 32.3666 122.884C32.3666 123.338 32.4714 123.702 32.6809 123.977C32.8904 124.251 33.1984 124.388 33.605 124.388ZM36.303 122.824V122.274H38.5477V122.824H36.303ZM39.9051 124.908V120.647C39.9051 120.542 39.9101 120.436 39.9201 120.329C39.9301 120.219 39.9525 120.113 39.9874 120.011C40.0223 119.906 40.0797 119.81 40.1595 119.723C40.2518 119.621 40.3528 119.548 40.4625 119.506C40.5723 119.461 40.6833 119.434 40.7955 119.424C40.9102 119.414 41.0187 119.409 41.121 119.409H41.6335V119.962H41.1584C40.9614 119.962 40.8142 120.011 40.7169 120.108C40.6197 120.203 40.571 120.348 40.571 120.542V124.908H39.9051ZM39.2205 121.418V120.868H41.6335V121.418H39.2205ZM43.8054 125.02C43.4039 125.02 43.0572 124.929 42.7654 124.747C42.4761 124.565 42.2529 124.313 42.0957 123.992C41.9386 123.67 41.86 123.301 41.86 122.884C41.86 122.46 41.9399 122.089 42.0995 121.769C42.2591 121.45 42.4848 121.202 42.7766 121.025C43.0684 120.845 43.4114 120.756 43.8054 120.756C44.2095 120.756 44.5574 120.847 44.8492 121.029C45.141 121.208 45.3643 121.459 45.5189 121.781C45.676 122.1 45.7546 122.468 45.7546 122.884C45.7546 123.306 45.676 123.677 45.5189 123.999C45.3618 124.318 45.1373 124.569 44.8455 124.751C44.5537 124.931 44.207 125.02 43.8054 125.02ZM43.8054 124.388C44.2245 124.388 44.5362 124.249 44.7407 123.969C44.9452 123.69 45.0475 123.328 45.0475 122.884C45.0475 122.428 44.944 122.065 44.737 121.796C44.53 121.524 44.2195 121.388 43.8054 121.388C43.5236 121.388 43.2917 121.451 43.1096 121.579C42.9275 121.706 42.7916 121.882 42.7018 122.106C42.612 122.331 42.5671 122.59 42.5671 122.884C42.5671 123.338 42.6719 123.702 42.8814 123.977C43.0909 124.251 43.3989 124.388 43.8054 124.388ZM48.1122 125.013C47.8528 125.013 47.6295 124.972 47.4425 124.889C47.2579 124.807 47.1045 124.697 46.9823 124.56C46.8601 124.423 46.7641 124.271 46.6943 124.104C46.6244 123.937 46.5745 123.766 46.5446 123.591C46.5172 123.417 46.5035 123.253 46.5035 123.101V120.868H47.1769V122.892C47.1769 123.081 47.1943 123.265 47.2292 123.442C47.2642 123.619 47.3228 123.778 47.4051 123.921C47.4899 124.063 47.6021 124.175 47.7418 124.257C47.8839 124.34 48.061 124.381 48.273 124.381C48.4401 124.381 48.5923 124.352 48.7294 124.295C48.8666 124.237 48.9838 124.152 49.0811 124.04C49.1784 123.926 49.2532 123.781 49.3056 123.606C49.358 123.432 49.3841 123.228 49.3841 122.996L49.8219 123.131C49.8219 123.52 49.7508 123.856 49.6086 124.138C49.4689 124.419 49.2707 124.636 49.0138 124.788C48.7594 124.938 48.4588 125.013 48.1122 125.013ZM49.459 124.908V123.827H49.3841V120.868H50.0538V124.908H49.459ZM53.9782 124.908V122.884C53.9782 122.692 53.9608 122.508 53.9258 122.331C53.8934 122.153 53.8348 121.995 53.75 121.855C53.6677 121.713 53.5555 121.601 53.4133 121.519C53.2736 121.436 53.0966 121.395 52.8821 121.395C52.715 121.395 52.5628 121.424 52.4256 121.481C52.291 121.536 52.175 121.621 52.0777 121.736C51.9804 121.85 51.9044 121.995 51.8495 122.17C51.7971 122.342 51.7709 122.545 51.7709 122.779L51.3332 122.645C51.3332 122.253 51.4031 121.918 51.5427 121.638C51.6849 121.357 51.8832 121.141 52.1376 120.991C52.3945 120.839 52.6963 120.763 53.0429 120.763C53.3048 120.763 53.528 120.804 53.7126 120.886C53.8972 120.969 54.0506 121.079 54.1728 121.216C54.295 121.35 54.391 121.503 54.4608 121.672C54.5307 121.839 54.5793 122.01 54.6067 122.185C54.6367 122.357 54.6516 122.52 54.6516 122.675V124.908H53.9782ZM51.0975 124.908V120.868H51.6961V121.949H51.7709V124.908H51.0975ZM57.174 125.02C56.7974 125.02 56.4744 124.927 56.205 124.74C55.9357 124.55 55.7274 124.295 55.5803 123.973C55.4356 123.651 55.3633 123.288 55.3633 122.884C55.3633 122.48 55.4356 122.117 55.5803 121.796C55.7274 121.474 55.9357 121.221 56.205 121.036C56.4744 120.849 56.7961 120.756 57.1702 120.756C57.5518 120.756 57.8723 120.848 58.1317 121.032C58.3911 121.217 58.5869 121.47 58.7191 121.792C58.8538 122.114 58.9211 122.478 58.9211 122.884C58.9211 123.286 58.8538 123.649 58.7191 123.973C58.5869 124.295 58.3911 124.55 58.1317 124.74C57.8723 124.927 57.5531 125.02 57.174 125.02ZM57.2563 124.411C57.5281 124.411 57.7514 124.346 57.926 124.216C58.1005 124.084 58.229 123.903 58.3113 123.674C58.3961 123.442 58.4385 123.179 58.4385 122.884C58.4385 122.585 58.3961 122.322 58.3113 122.095C58.229 121.865 58.1018 121.687 57.9297 121.56C57.7576 121.43 57.5394 121.365 57.275 121.365C57.0006 121.365 56.7737 121.433 56.5941 121.567C56.417 121.702 56.2848 121.884 56.1975 122.114C56.1127 122.343 56.0703 122.6 56.0703 122.884C56.0703 123.171 56.114 123.43 56.2013 123.662C56.2886 123.892 56.4195 124.074 56.5941 124.209C56.7712 124.343 56.9919 124.411 57.2563 124.411ZM58.4385 124.908V121.934H58.3637V119.521H59.0333V124.908H58.4385ZM61.8324 125.02C61.4358 125.02 61.0891 124.933 60.7923 124.759C60.498 124.581 60.2686 124.336 60.104 124.022C59.9393 123.705 59.857 123.336 59.857 122.914C59.857 122.473 59.9381 122.091 60.1002 121.769C60.2623 121.445 60.488 121.196 60.7774 121.021C61.0692 120.844 61.4109 120.756 61.8024 120.756C62.209 120.756 62.5544 120.849 62.8387 121.036C63.1256 121.223 63.34 121.49 63.4822 121.837C63.6269 122.183 63.6892 122.596 63.6693 123.075H62.9959V122.836C62.9884 122.339 62.8874 121.969 62.6928 121.724C62.4983 121.478 62.209 121.354 61.8249 121.354C61.4134 121.354 61.1003 121.486 60.8859 121.751C60.6714 122.015 60.5641 122.394 60.5641 122.888C60.5641 123.364 60.6714 123.733 60.8859 123.995C61.1003 124.257 61.4059 124.388 61.8024 124.388C62.0693 124.388 62.3013 124.327 62.4983 124.205C62.6953 124.083 62.85 123.907 62.9622 123.677L63.6019 123.898C63.4448 124.255 63.2079 124.532 62.8911 124.729C62.5769 124.923 62.2239 125.02 61.8324 125.02ZM60.3396 123.075V122.54H63.3251V123.075H60.3396ZM64.5022 124.908V120.868H65.097V121.844L64.9998 121.717C65.0472 121.592 65.1083 121.478 65.1831 121.373C65.2604 121.268 65.3465 121.182 65.4412 121.115C65.546 121.03 65.6645 120.965 65.7966 120.92C65.9288 120.875 66.0635 120.849 66.2007 120.842C66.3379 120.832 66.4663 120.84 66.586 120.868V121.493C66.4464 121.455 66.293 121.445 66.1259 121.463C65.9588 121.48 65.8041 121.541 65.662 121.646C65.5323 121.738 65.4313 121.85 65.3589 121.983C65.2891 122.115 65.2405 122.258 65.213 122.413C65.1856 122.565 65.1719 122.721 65.1719 122.88V124.908H64.5022Z" fill="black"/>
<path d="M35.2976 96.3483L31.2963 92.5731C31.2944 92.5714 31.2925 92.5695 31.2908 92.5676C31.1435 92.4336 30.9515 92.3594 30.7524 92.3594C30.5533 92.3594 30.3613 92.4336 30.214 92.5676L30.2085 92.5731L26.2117 96.3483C26.1302 96.4233 26.0651 96.5143 26.0206 96.6157C25.9761 96.7172 25.9531 96.8267 25.9531 96.9375V101.561C25.9531 101.774 26.0374 101.977 26.1875 102.127C26.3376 102.277 26.5411 102.362 26.7534 102.362H29.1541C29.3664 102.362 29.5699 102.277 29.72 102.127C29.8701 101.977 29.9544 101.774 29.9544 101.561V99.1607H31.5549V101.561C31.5549 101.774 31.6392 101.977 31.7893 102.127C31.9394 102.277 32.1429 102.362 32.3551 102.362H34.7559C34.9681 102.362 35.1717 102.277 35.3218 102.127C35.4718 101.977 35.5562 101.774 35.5562 101.561V96.9375C35.5562 96.8267 35.5332 96.7172 35.4887 96.6157C35.4442 96.5143 35.3791 96.4233 35.2976 96.3483ZM34.7559 101.561H32.3551V99.1607C32.3551 98.9484 32.2708 98.7449 32.1208 98.5948C31.9707 98.4447 31.7671 98.3604 31.5549 98.3604H29.9544C29.7421 98.3604 29.5386 98.4447 29.3885 98.5948C29.2384 98.7449 29.1541 98.9484 29.1541 99.1607V101.561H26.7534V96.9375L26.7589 96.9325L30.7546 93.1588L34.7509 96.9315L34.7564 96.9365L34.7559 101.561Z" fill="#010086"/>
<rect x="17.5352" y="138.656" width="140.294" height="25.2529" rx="11.2235" fill="white"/>
<path d="M27.4105 153.607V148.22H30.553V148.886H28.0764V150.581H30.1041V151.247H28.0764V153.607H27.4105ZM31.2995 148.852V148.164H31.9655V148.852H31.2995ZM31.2995 153.607V149.567H31.9655V153.607H31.2995ZM35.9649 153.607V151.583C35.9649 151.391 35.9475 151.207 35.9125 151.03C35.8801 150.853 35.8215 150.694 35.7367 150.555C35.6544 150.412 35.5422 150.3 35.4 150.218C35.2603 150.136 35.0833 150.094 34.8688 150.094C34.7017 150.094 34.5495 150.123 34.4123 150.181C34.2777 150.235 34.1617 150.32 34.0644 150.435C33.9671 150.55 33.8911 150.694 33.8362 150.869C33.7838 151.041 33.7576 151.244 33.7576 151.479L33.3199 151.344C33.3199 150.952 33.3898 150.617 33.5294 150.338C33.6716 150.056 33.8699 149.84 34.1243 149.69C34.3812 149.538 34.683 149.462 35.0296 149.462C35.2915 149.462 35.5147 149.503 35.6993 149.586C35.8839 149.668 36.0372 149.778 36.1595 149.915C36.2817 150.05 36.3777 150.202 36.4475 150.371C36.5174 150.538 36.566 150.709 36.5934 150.884C36.6234 151.056 36.6383 151.219 36.6383 151.374V153.607H35.9649ZM33.0842 153.607V149.567H33.6828V150.648H33.7576V153.607H33.0842ZM39.1607 153.72C38.7841 153.72 38.4611 153.626 38.1917 153.439C37.9224 153.25 37.7141 152.994 37.567 152.672C37.4223 152.35 37.35 151.988 37.35 151.583C37.35 151.179 37.4223 150.817 37.567 150.495C37.7141 150.173 37.9224 149.92 38.1917 149.735C38.4611 149.548 38.7828 149.455 39.1569 149.455C39.5385 149.455 39.859 149.547 40.1184 149.732C40.3778 149.916 40.5736 150.169 40.7058 150.491C40.8405 150.813 40.9078 151.177 40.9078 151.583C40.9078 151.985 40.8405 152.348 40.7058 152.672C40.5736 152.994 40.3778 153.25 40.1184 153.439C39.859 153.626 39.5398 153.72 39.1607 153.72ZM39.243 153.11C39.5148 153.11 39.7381 153.045 39.9127 152.915C40.0872 152.783 40.2157 152.602 40.298 152.373C40.3828 152.141 40.4252 151.878 40.4252 151.583C40.4252 151.284 40.3828 151.021 40.298 150.794C40.2157 150.565 40.0885 150.386 39.9164 150.259C39.7443 150.129 39.5261 150.065 39.2617 150.065C38.9873 150.065 38.7604 150.132 38.5808 150.267C38.4037 150.401 38.2715 150.583 38.1842 150.813C38.0994 151.042 38.057 151.299 38.057 151.583C38.057 151.87 38.1007 152.13 38.188 152.362C38.2753 152.591 38.4062 152.773 38.5808 152.908C38.7579 153.043 38.9786 153.11 39.243 153.11ZM40.4252 153.607V150.633H40.3504V148.22H41.02V153.607H40.4252ZM43.6409 153.607V148.22H44.3069V153.607H43.6409ZM48.3063 153.607V151.583C48.3063 151.391 48.2889 151.207 48.254 151.03C48.2215 150.853 48.1629 150.694 48.0781 150.555C47.9958 150.412 47.8836 150.3 47.7414 150.218C47.6018 150.136 47.4247 150.094 47.2102 150.094C47.0431 150.094 46.8909 150.123 46.7538 150.181C46.6191 150.235 46.5031 150.32 46.4058 150.435C46.3086 150.55 46.2325 150.694 46.1776 150.869C46.1252 151.041 46.0991 151.244 46.0991 151.479L45.6613 151.344C45.6613 150.952 45.7312 150.617 45.8709 150.338C46.013 150.056 46.2113 149.84 46.4657 149.69C46.7226 149.538 47.0244 149.462 47.3711 149.462C47.6329 149.462 47.8562 149.503 48.0407 149.586C48.2253 149.668 48.3787 149.778 48.5009 149.915C48.6231 150.05 48.7191 150.202 48.789 150.371C48.8588 150.538 48.9074 150.709 48.9349 150.884C48.9648 151.056 48.9798 151.219 48.9798 151.374V153.607H48.3063ZM45.4257 153.607V149.567H46.0242V150.648H46.0991V153.607H45.4257ZM51.0448 153.607L49.5783 149.567H50.2517L51.3853 152.758L52.5151 149.567H53.1922L51.7257 153.607H51.0448ZM55.4736 153.72C55.0771 153.72 54.7304 153.632 54.4336 153.458C54.1393 153.281 53.9098 153.035 53.7452 152.721C53.5806 152.404 53.4983 152.035 53.4983 151.613C53.4983 151.172 53.5794 150.79 53.7415 150.469C53.9036 150.144 54.1293 149.895 54.4186 149.72C54.7104 149.543 55.0521 149.455 55.4437 149.455C55.8502 149.455 56.1957 149.548 56.48 149.735C56.7668 149.922 56.9813 150.189 57.1235 150.536C57.2681 150.883 57.3305 151.295 57.3105 151.774H56.6371V151.535C56.6296 151.038 56.5286 150.668 56.3341 150.424C56.1396 150.177 55.8502 150.053 55.4661 150.053C55.0546 150.053 54.7416 150.186 54.5271 150.45C54.3126 150.714 54.2054 151.093 54.2054 151.587C54.2054 152.064 54.3126 152.433 54.5271 152.695C54.7416 152.956 55.0471 153.087 55.4437 153.087C55.7106 153.087 55.9425 153.026 56.1396 152.904C56.3366 152.782 56.4912 152.606 56.6035 152.377L57.2432 152.597C57.0861 152.954 56.8491 153.231 56.5324 153.428C56.2181 153.622 55.8652 153.72 55.4736 153.72ZM53.9809 151.774V151.239H56.9664V151.774H53.9809ZM59.6699 153.716C59.1885 153.716 58.7932 153.611 58.4839 153.402C58.1771 153.19 57.9888 152.894 57.919 152.515L58.5999 152.407C58.6548 152.626 58.7807 152.801 58.9777 152.93C59.1748 153.057 59.4192 153.121 59.711 153.121C59.9879 153.121 60.2048 153.064 60.362 152.949C60.5191 152.834 60.5977 152.678 60.5977 152.481C60.5977 152.367 60.5715 152.274 60.5191 152.204C60.4667 152.132 60.3582 152.065 60.1936 152.002C60.0315 151.94 59.7858 151.865 59.4566 151.778C59.1 151.683 58.8194 151.585 58.6149 151.482C58.4103 151.38 58.2644 151.262 58.1771 151.127C58.0898 150.992 58.0462 150.829 58.0462 150.637C58.0462 150.4 58.111 150.193 58.2407 150.016C58.3704 149.836 58.5513 149.698 58.7832 149.601C59.0177 149.503 59.2895 149.455 59.5988 149.455C59.9056 149.455 60.1799 149.503 60.4218 149.601C60.6638 149.698 60.8583 149.836 61.0055 150.016C61.1551 150.193 61.2436 150.4 61.2711 150.637L60.5902 150.76C60.5578 150.543 60.453 150.373 60.2759 150.248C60.1013 150.123 59.8756 150.057 59.5988 150.05C59.3369 150.04 59.1237 150.086 58.959 150.188C58.7969 150.29 58.7159 150.429 58.7159 150.603C58.7159 150.701 58.7458 150.784 58.8057 150.854C58.868 150.924 58.9815 150.99 59.1461 151.052C59.3132 151.115 59.5551 151.186 59.8719 151.265C60.2285 151.355 60.5091 151.454 60.7136 151.561C60.9207 151.666 61.0678 151.79 61.1551 151.935C61.2424 152.077 61.286 152.253 61.286 152.463C61.286 152.852 61.1426 153.158 60.8558 153.383C60.569 153.605 60.1737 153.716 59.6699 153.716ZM64.3671 153.607C64.1276 153.655 63.8907 153.674 63.6562 153.664C63.4243 153.656 63.2173 153.61 63.0352 153.525C62.8531 153.438 62.7147 153.303 62.6199 153.121C62.5401 152.961 62.4965 152.801 62.489 152.638C62.484 152.474 62.4815 152.288 62.4815 152.081V148.445H63.1474V152.051C63.1474 152.216 63.1487 152.357 63.1512 152.474C63.1562 152.591 63.1824 152.692 63.2297 152.777C63.3195 152.937 63.4617 153.03 63.6562 153.057C63.8533 153.085 64.0902 153.077 64.3671 153.035V153.607ZM61.6622 150.117V149.567H64.3671V150.117H61.6622ZM66.7402 153.72C66.3387 153.72 65.992 153.629 65.7002 153.447C65.4109 153.264 65.1877 153.013 65.0305 152.691C64.8734 152.369 64.7948 152 64.7948 151.583C64.7948 151.159 64.8746 150.788 65.0343 150.469C65.1939 150.149 65.4196 149.901 65.7114 149.724C66.0032 149.545 66.3462 149.455 66.7402 149.455C67.1443 149.455 67.4922 149.546 67.784 149.728C68.0758 149.907 68.299 150.158 68.4537 150.48C68.6108 150.799 68.6894 151.167 68.6894 151.583C68.6894 152.005 68.6108 152.377 68.4537 152.698C68.2966 153.018 68.0721 153.268 67.7803 153.45C67.4885 153.63 67.1418 153.72 66.7402 153.72ZM66.7402 153.087C67.1592 153.087 67.471 152.948 67.6755 152.668C67.88 152.389 67.9823 152.027 67.9823 151.583C67.9823 151.127 67.8788 150.764 67.6718 150.495C67.4648 150.223 67.1543 150.087 66.7402 150.087C66.4584 150.087 66.2264 150.151 66.0444 150.278C65.8623 150.405 65.7264 150.581 65.6366 150.805C65.5468 151.03 65.5019 151.289 65.5019 151.583C65.5019 152.037 65.6067 152.402 65.8162 152.676C66.0257 152.95 66.3337 153.087 66.7402 153.087ZM69.5131 153.607V149.567H70.1079V150.543L70.0106 150.416C70.058 150.292 70.1191 150.177 70.194 150.072C70.2713 149.967 70.3573 149.881 70.4521 149.814C70.5569 149.729 70.6753 149.664 70.8075 149.619C70.9397 149.574 71.0744 149.548 71.2116 149.541C71.3487 149.531 71.4772 149.54 71.5969 149.567V150.192C71.4572 150.154 71.3038 150.144 71.1367 150.162C70.9696 150.179 70.815 150.24 70.6728 150.345C70.5431 150.437 70.4421 150.55 70.3698 150.682C70.3 150.814 70.2513 150.957 70.2239 151.112C70.1965 151.264 70.1827 151.42 70.1827 151.58V153.607H69.5131ZM73.6846 153.716C73.2032 153.716 72.8079 153.611 72.4986 153.402C72.1919 153.19 72.0035 152.894 71.9337 152.515L72.6146 152.407C72.6695 152.626 72.7954 152.801 72.9925 152.93C73.1895 153.057 73.4339 153.121 73.7257 153.121C74.0026 153.121 74.2196 153.064 74.3767 152.949C74.5338 152.834 74.6124 152.678 74.6124 152.481C74.6124 152.367 74.5862 152.274 74.5338 152.204C74.4814 152.132 74.3729 152.065 74.2083 152.002C74.0462 151.94 73.8006 151.865 73.4713 151.778C73.1147 151.683 72.8341 151.585 72.6296 151.482C72.4251 151.38 72.2791 151.262 72.1919 151.127C72.1046 150.992 72.0609 150.829 72.0609 150.637C72.0609 150.4 72.1258 150.193 72.2555 150.016C72.3851 149.836 72.566 149.698 72.7979 149.601C73.0324 149.503 73.3042 149.455 73.6135 149.455C73.9203 149.455 74.1946 149.503 74.4365 149.601C74.6785 149.698 74.873 149.836 75.0202 150.016C75.1698 150.193 75.2584 150.4 75.2858 150.637L74.6049 150.76C74.5725 150.543 74.4677 150.373 74.2906 150.248C74.1161 150.123 73.8903 150.057 73.6135 150.05C73.3516 150.04 73.1384 150.086 72.9738 150.188C72.8116 150.29 72.7306 150.429 72.7306 150.603C72.7306 150.701 72.7605 150.784 72.8204 150.854C72.8827 150.924 72.9962 150.99 73.1608 151.052C73.3279 151.115 73.5698 151.186 73.8866 151.265C74.2433 151.355 74.5238 151.454 74.7284 151.561C74.9354 151.666 75.0825 151.79 75.1698 151.935C75.2571 152.077 75.3008 152.253 75.3008 152.463C75.3008 152.852 75.1573 153.158 74.8705 153.383C74.5837 153.605 74.1884 153.716 73.6846 153.716Z" fill="black"/>
<path d="M141.227 148.557L143.955 151.285L141.227 154.013" stroke="black" stroke-width="0.935288" stroke-linecap="round" stroke-linejoin="round"/>
<rect x="17.5352" y="167.65" width="140.294" height="25.2529" rx="11.2235" fill="white"/>
<path d="M27.4853 182.602V177.214H28.1512V182.602H27.4853ZM32.1507 182.602V180.578C32.1507 180.386 32.1332 180.201 32.0983 180.024C32.0659 179.847 32.0073 179.688 31.9225 179.549C31.8402 179.407 31.7279 179.294 31.5858 179.212C31.4461 179.13 31.269 179.089 31.0545 179.089C30.8874 179.089 30.7353 179.117 30.5981 179.175C30.4634 179.23 30.3475 179.314 30.2502 179.429C30.1529 179.544 30.0769 179.688 30.022 179.863C29.9696 180.035 29.9434 180.238 29.9434 180.473L29.5057 180.338C29.5057 179.947 29.5755 179.611 29.7152 179.332C29.8574 179.05 30.0557 178.834 30.31 178.685C30.5669 178.532 30.8687 178.456 31.2154 178.456C31.4773 178.456 31.7005 178.498 31.8851 178.58C32.0696 178.662 32.223 178.772 32.3452 178.909C32.4674 179.044 32.5635 179.196 32.6333 179.365C32.7031 179.533 32.7518 179.703 32.7792 179.878C32.8091 180.05 32.8241 180.213 32.8241 180.368V182.602H32.1507ZM29.27 182.602V178.561H29.8686V179.642H29.9434V182.602H29.27ZM35.4624 182.714C35.0534 182.714 34.7055 182.623 34.4187 182.441C34.1343 182.256 33.9173 182.003 33.7677 181.681C33.618 181.359 33.5407 180.993 33.5357 180.581C33.5407 180.16 33.6193 179.789 33.7714 179.47C33.9261 179.148 34.1468 178.898 34.4336 178.718C34.7204 178.539 35.0659 178.449 35.4699 178.449C35.8964 178.449 36.263 178.554 36.5698 178.763C36.8791 178.973 37.0861 179.259 37.1908 179.624L36.5324 179.822C36.4476 179.587 36.3092 179.405 36.1171 179.276C35.9276 179.146 35.7094 179.081 35.4624 179.081C35.1856 179.081 34.9574 179.146 34.7778 179.276C34.5982 179.403 34.4648 179.58 34.3775 179.807C34.2902 180.031 34.2453 180.29 34.2428 180.581C34.2478 181.03 34.3513 181.393 34.5533 181.67C34.7579 181.944 35.0609 182.082 35.4624 182.082C35.7268 182.082 35.9463 182.022 36.1209 181.902C36.2955 181.78 36.4277 181.604 36.5174 181.374L37.1908 181.55C37.0512 181.927 36.8329 182.215 36.5361 182.415C36.2393 182.614 35.8814 182.714 35.4624 182.714ZM39.4883 182.706C39.2289 182.706 39.0057 182.665 38.8186 182.583C38.634 182.501 38.4807 182.391 38.3584 182.254C38.2362 182.116 38.1402 181.964 38.0704 181.797C38.0005 181.63 37.9507 181.459 37.9207 181.285C37.8933 181.11 37.8796 180.947 37.8796 180.795V178.561H38.553V180.585C38.553 180.775 38.5704 180.958 38.6054 181.135C38.6403 181.312 38.6989 181.472 38.7812 181.614C38.866 181.756 38.9782 181.868 39.1179 181.951C39.2601 182.033 39.4371 182.074 39.6491 182.074C39.8162 182.074 39.9684 182.045 40.1056 181.988C40.2427 181.931 40.36 181.846 40.4572 181.734C40.5545 181.619 40.6293 181.474 40.6817 181.3C40.7341 181.125 40.7603 180.922 40.7603 180.69L41.198 180.825C41.198 181.214 41.1269 181.549 40.9847 181.831C40.8451 182.113 40.6468 182.33 40.3899 182.482C40.1355 182.631 39.8349 182.706 39.4883 182.706ZM40.8351 182.602V181.52H40.7603V178.561H41.4299V182.602H40.8351ZM44.333 182.714C43.9539 182.714 43.6347 182.62 43.3753 182.433C43.1159 182.244 42.9188 181.988 42.7842 181.666C42.652 181.342 42.5859 180.979 42.5859 180.578C42.5859 180.171 42.652 179.807 42.7842 179.485C42.9188 179.163 43.1159 178.91 43.3753 178.726C43.6371 178.541 43.9576 178.449 44.3367 178.449C44.7109 178.449 45.0326 178.542 45.302 178.729C45.5738 178.914 45.7821 179.167 45.9267 179.489C46.0714 179.811 46.1437 180.174 46.1437 180.578C46.1437 180.982 46.0714 181.345 45.9267 181.666C45.7821 181.988 45.5738 182.244 45.302 182.433C45.0326 182.62 44.7096 182.714 44.333 182.714ZM42.4736 182.602V177.214H43.1433V179.627H43.0685V182.602H42.4736ZM44.2507 182.104C44.5176 182.104 44.7383 182.037 44.9129 181.902C45.0875 181.767 45.2184 181.585 45.3057 181.356C45.393 181.124 45.4366 180.864 45.4366 180.578C45.4366 180.293 45.393 180.036 45.3057 179.807C45.2209 179.577 45.0887 179.395 44.9091 179.261C44.7321 179.126 44.5063 179.059 44.232 179.059C43.9701 179.059 43.7531 179.124 43.581 179.253C43.4089 179.38 43.2805 179.559 43.1957 179.788C43.1109 180.015 43.0685 180.278 43.0685 180.578C43.0685 180.872 43.1096 181.135 43.192 181.367C43.2768 181.596 43.4064 181.777 43.581 181.909C43.7556 182.039 43.9788 182.104 44.2507 182.104ZM48.1124 182.714C47.8106 182.714 47.5574 182.659 47.3529 182.549C47.1509 182.437 46.9975 182.29 46.8928 182.108C46.7905 181.926 46.7394 181.726 46.7394 181.509C46.7394 181.297 46.7793 181.114 46.8591 180.959C46.9414 180.802 47.0561 180.672 47.2033 180.57C47.3504 180.465 47.5263 180.383 47.7308 180.323C47.9228 180.271 48.1373 180.226 48.3743 180.189C48.6137 180.149 48.8556 180.112 49.1001 180.08C49.3445 180.048 49.5727 180.016 49.7847 179.986L49.5452 180.125C49.5527 179.766 49.4804 179.5 49.3283 179.328C49.1786 179.156 48.9192 179.07 48.5501 179.07C48.3057 179.07 48.0912 179.126 47.9066 179.238C47.7246 179.348 47.5961 179.528 47.5213 179.777L46.889 179.586C46.9863 179.232 47.1746 178.954 47.4539 178.752C47.7333 178.55 48.1012 178.449 48.5576 178.449C48.9242 178.449 49.2385 178.515 49.5004 178.647C49.7647 178.777 49.9543 178.974 50.069 179.238C50.1264 179.363 50.1625 179.499 50.1775 179.646C50.1925 179.791 50.1999 179.943 50.1999 180.102V182.602H49.6088V181.633L49.7473 181.722C49.5951 182.049 49.3819 182.296 49.1075 182.463C48.8357 182.63 48.504 182.714 48.1124 182.714ZM48.2134 182.156C48.4528 182.156 48.6598 182.114 48.8344 182.029C49.0115 181.942 49.1537 181.828 49.2609 181.689C49.3682 181.547 49.438 181.392 49.4704 181.225C49.5078 181.1 49.5278 180.962 49.5303 180.81C49.5353 180.655 49.5378 180.536 49.5378 180.454L49.7697 180.555C49.5527 180.585 49.3395 180.614 49.13 180.641C48.9205 180.669 48.7222 180.699 48.5351 180.731C48.3481 180.761 48.1797 180.797 48.0301 180.839C47.9203 180.874 47.8168 180.919 47.7196 180.974C47.6248 181.029 47.5475 181.1 47.4876 181.187C47.4302 181.272 47.4016 181.378 47.4016 181.505C47.4016 181.615 47.429 181.72 47.4839 181.82C47.5412 181.919 47.6285 182 47.7458 182.063C47.8655 182.125 48.0214 182.156 48.2134 182.156ZM53.4286 182.602C53.1891 182.649 52.9522 182.668 52.7177 182.658C52.4858 182.65 52.2788 182.604 52.0967 182.519C51.9146 182.432 51.7762 182.297 51.6814 182.115C51.6016 181.956 51.558 181.795 51.5505 181.633C51.5455 181.468 51.543 181.282 51.543 181.075V177.439H52.2089V181.045C52.2089 181.21 52.2102 181.351 52.2127 181.468C52.2177 181.585 52.2439 181.686 52.2913 181.771C52.381 181.931 52.5232 182.024 52.7177 182.052C52.9148 182.079 53.1517 182.072 53.4286 182.029V182.602ZM50.7237 179.111V178.561H53.4286V179.111H50.7237ZM55.8017 182.714C55.4002 182.714 55.0535 182.623 54.7617 182.441C54.4724 182.259 54.2492 182.007 54.092 181.685C53.9349 181.363 53.8563 180.994 53.8563 180.578C53.8563 180.154 53.9362 179.782 54.0958 179.463C54.2554 179.143 54.4811 178.895 54.7729 178.718C55.0647 178.539 55.4077 178.449 55.8017 178.449C56.2058 178.449 56.5537 178.54 56.8455 178.722C57.1373 178.902 57.3606 179.152 57.5152 179.474C57.6723 179.793 57.7509 180.161 57.7509 180.578C57.7509 180.999 57.6723 181.371 57.5152 181.692C57.3581 182.012 57.1336 182.262 56.8418 182.444C56.55 182.624 56.2033 182.714 55.8017 182.714ZM55.8017 182.082C56.2208 182.082 56.5325 181.942 56.737 181.663C56.9415 181.383 57.0438 181.022 57.0438 180.578C57.0438 180.121 56.9403 179.758 56.7333 179.489C56.5263 179.217 56.2158 179.081 55.8017 179.081C55.5199 179.081 55.288 179.145 55.1059 179.272C54.9238 179.399 54.7879 179.575 54.6981 179.799C54.6083 180.024 54.5634 180.283 54.5634 180.578C54.5634 181.032 54.6682 181.396 54.8777 181.67C55.0872 181.944 55.3952 182.082 55.8017 182.082ZM58.5746 182.602V178.561H59.1694V179.538L59.0722 179.41C59.1195 179.286 59.1806 179.171 59.2555 179.066C59.3328 178.961 59.4188 178.875 59.5136 178.808C59.6184 178.723 59.7368 178.658 59.869 178.613C60.0012 178.569 60.1359 178.542 60.2731 178.535C60.4102 178.525 60.5387 178.534 60.6584 178.561V179.186C60.5187 179.148 60.3653 179.139 60.1982 179.156C60.0311 179.173 59.8765 179.235 59.7343 179.339C59.6046 179.432 59.5036 179.544 59.4313 179.676C59.3615 179.808 59.3128 179.952 59.2854 180.106C59.258 180.258 59.2442 180.414 59.2442 180.574V182.602H58.5746ZM62.7461 182.71C62.2647 182.71 61.8694 182.605 61.5601 182.396C61.2534 182.184 61.0651 181.888 60.9952 181.509L61.6761 181.401C61.731 181.62 61.8569 181.795 62.054 181.924C62.251 182.052 62.4954 182.115 62.7872 182.115C63.0641 182.115 63.2811 182.058 63.4382 181.943C63.5953 181.828 63.6739 181.673 63.6739 181.475C63.6739 181.361 63.6477 181.268 63.5953 181.199C63.5429 181.126 63.4345 181.059 63.2698 180.997C63.1077 180.934 62.8621 180.859 62.5328 180.772C62.1762 180.677 61.8956 180.579 61.6911 180.477C61.4866 180.374 61.3407 180.256 61.2534 180.121C61.1661 179.986 61.1224 179.823 61.1224 179.631C61.1224 179.394 61.1873 179.187 61.317 179.01C61.4467 178.83 61.6275 178.692 61.8594 178.595C62.0939 178.498 62.3657 178.449 62.675 178.449C62.9818 178.449 63.2561 178.498 63.4981 178.595C63.74 178.692 63.9345 178.83 64.0817 179.01C64.2313 179.187 64.3199 179.394 64.3473 179.631L63.6664 179.755C63.634 179.538 63.5292 179.367 63.3521 179.242C63.1776 179.117 62.9518 179.051 62.675 179.044C62.4131 179.034 62.1999 179.08 62.0353 179.182C61.8731 179.284 61.7921 179.423 61.7921 179.597C61.7921 179.695 61.822 179.778 61.8819 179.848C61.9442 179.918 62.0577 179.984 62.2223 180.046C62.3894 180.109 62.6314 180.18 62.9481 180.26C63.3048 180.349 63.5853 180.448 63.7899 180.555C63.9969 180.66 64.144 180.785 64.2313 180.929C64.3186 181.071 64.3623 181.247 64.3623 181.457C64.3623 181.846 64.2189 182.153 63.932 182.377C63.6452 182.599 63.2499 182.71 62.7461 182.71Z" fill="black"/>
<path d="M141.227 177.551L143.955 180.279L141.227 183.007" stroke="black" stroke-width="0.935288" stroke-linecap="round" stroke-linejoin="round"/>
<rect x="90.0195" y="84.877" width="67.8088" height="50.0382" rx="11.2235" fill="white"/>
<path d="M101.301 115.908V110.521H104.444V111.187H101.967V112.882H103.995V113.548H101.967V115.908H101.301ZM105.19 111.153V110.465H105.856V111.153H105.19ZM105.19 115.908V111.868H105.856V115.908H105.19ZM109.856 115.908V113.884C109.856 113.692 109.838 113.508 109.803 113.331C109.771 113.153 109.712 112.995 109.627 112.855C109.545 112.713 109.433 112.601 109.291 112.519C109.151 112.436 108.974 112.395 108.759 112.395C108.592 112.395 108.44 112.424 108.303 112.481C108.168 112.536 108.052 112.621 107.955 112.736C107.858 112.85 107.782 112.995 107.727 113.17C107.674 113.342 107.648 113.545 107.648 113.779L107.211 113.645C107.211 113.253 107.28 112.918 107.42 112.638C107.562 112.357 107.76 112.141 108.015 111.991C108.272 111.839 108.574 111.763 108.92 111.763C109.182 111.763 109.405 111.804 109.59 111.886C109.774 111.969 109.928 112.079 110.05 112.216C110.172 112.35 110.268 112.503 110.338 112.672C110.408 112.839 110.457 113.01 110.484 113.185C110.514 113.357 110.529 113.52 110.529 113.675V115.908H109.856ZM106.975 115.908V111.868H107.573V112.949H107.648V115.908H106.975ZM113.051 116.02C112.675 116.02 112.352 115.927 112.082 115.74C111.813 115.55 111.605 115.295 111.458 114.973C111.313 114.651 111.241 114.288 111.241 113.884C111.241 113.48 111.313 113.117 111.458 112.796C111.605 112.474 111.813 112.221 112.082 112.036C112.352 111.849 112.673 111.756 113.048 111.756C113.429 111.756 113.75 111.848 114.009 112.032C114.268 112.217 114.464 112.47 114.596 112.792C114.731 113.114 114.798 113.478 114.798 113.884C114.798 114.286 114.731 114.649 114.596 114.973C114.464 115.295 114.268 115.55 114.009 115.74C113.75 115.927 113.43 116.02 113.051 116.02ZM113.134 115.411C113.405 115.411 113.629 115.346 113.803 115.216C113.978 115.084 114.106 114.903 114.189 114.674C114.273 114.442 114.316 114.179 114.316 113.884C114.316 113.585 114.273 113.322 114.189 113.095C114.106 112.865 113.979 112.687 113.807 112.56C113.635 112.43 113.417 112.365 113.152 112.365C112.878 112.365 112.651 112.433 112.471 112.567C112.294 112.702 112.162 112.884 112.075 113.114C111.99 113.343 111.948 113.6 111.948 113.884C111.948 114.171 111.991 114.43 112.079 114.662C112.166 114.892 112.297 115.074 112.471 115.209C112.649 115.343 112.869 115.411 113.134 115.411ZM114.316 115.908V112.934H114.241V110.521H114.911V115.908H114.316ZM101.301 124.908V119.521H101.907L103.942 123.812L105.966 119.521H106.58V124.904H105.948V120.984L104.118 124.908H103.763L101.933 120.984V124.908H101.301ZM109.38 125.02C108.983 125.02 108.637 124.933 108.34 124.759C108.045 124.581 107.816 124.336 107.651 124.022C107.487 123.705 107.404 123.336 107.404 122.914C107.404 122.473 107.486 122.091 107.648 121.769C107.81 121.445 108.035 121.196 108.325 121.021C108.617 120.844 108.958 120.756 109.35 120.756C109.756 120.756 110.102 120.849 110.386 121.036C110.673 121.223 110.887 121.49 111.03 121.837C111.174 122.183 111.237 122.596 111.217 123.075H110.543V122.836C110.536 122.339 110.435 121.969 110.24 121.724C110.046 121.478 109.756 121.354 109.372 121.354C108.961 121.354 108.648 121.486 108.433 121.751C108.219 122.015 108.112 122.394 108.112 122.888C108.112 123.364 108.219 123.733 108.433 123.995C108.648 124.257 108.953 124.388 109.35 124.388C109.617 124.388 109.849 124.327 110.046 124.205C110.243 124.083 110.397 123.907 110.51 123.677L111.149 123.898C110.992 124.255 110.755 124.532 110.439 124.729C110.124 124.923 109.771 125.02 109.38 125.02ZM107.887 123.075V122.54H110.872V123.075H107.887ZM114.817 124.908V122.884C114.817 122.692 114.799 122.508 114.765 122.331C114.732 122.153 114.674 121.995 114.589 121.855C114.506 121.713 114.394 121.601 114.252 121.519C114.112 121.436 113.935 121.395 113.721 121.395C113.554 121.395 113.402 121.424 113.264 121.481C113.13 121.536 113.014 121.621 112.916 121.736C112.819 121.85 112.743 121.995 112.688 122.17C112.636 122.342 112.61 122.545 112.61 122.779L112.172 122.645C112.172 122.253 112.242 121.918 112.381 121.638C112.524 121.357 112.722 121.141 112.976 120.991C113.233 120.839 113.535 120.763 113.882 120.763C114.144 120.763 114.367 120.804 114.551 120.886C114.736 120.969 114.889 121.079 115.011 121.216C115.134 121.35 115.23 121.503 115.3 121.672C115.369 121.839 115.418 122.01 115.445 122.185C115.475 122.357 115.49 122.52 115.49 122.675V124.908H114.817ZM111.936 124.908V120.868H112.535V121.949H112.61V124.908H111.936ZM118.719 124.908C118.479 124.956 118.243 124.974 118.008 124.964C117.776 124.957 117.569 124.911 117.387 124.826C117.205 124.739 117.067 124.604 116.972 124.422C116.892 124.262 116.848 124.101 116.841 123.939C116.836 123.775 116.833 123.589 116.833 123.382V119.745H117.499V123.352C117.499 123.516 117.501 123.657 117.503 123.775C117.508 123.892 117.534 123.993 117.582 124.078C117.671 124.237 117.814 124.331 118.008 124.358C118.205 124.386 118.442 124.378 118.719 124.336V124.908ZM116.014 121.418V120.868H118.719V121.418H116.014ZM121.092 125.02C120.691 125.02 120.344 124.929 120.052 124.747C119.763 124.565 119.54 124.313 119.382 123.992C119.225 123.67 119.147 123.301 119.147 122.884C119.147 122.46 119.227 122.089 119.386 121.769C119.546 121.45 119.771 121.202 120.063 121.025C120.355 120.845 120.698 120.756 121.092 120.756C121.496 120.756 121.844 120.847 122.136 121.029C122.428 121.208 122.651 121.459 122.806 121.781C122.963 122.1 123.041 122.468 123.041 122.884C123.041 123.306 122.963 123.677 122.806 123.999C122.648 124.318 122.424 124.569 122.132 124.751C121.84 124.931 121.494 125.02 121.092 125.02ZM121.092 124.388C121.511 124.388 121.823 124.249 122.027 123.969C122.232 123.69 122.334 123.328 122.334 122.884C122.334 122.428 122.231 122.065 122.024 121.796C121.817 121.524 121.506 121.388 121.092 121.388C120.81 121.388 120.578 121.451 120.396 121.579C120.214 121.706 120.078 121.882 119.988 122.106C119.899 122.331 119.854 122.59 119.854 122.884C119.854 123.338 119.959 123.702 120.168 123.977C120.378 124.251 120.686 124.388 121.092 124.388ZM123.865 124.908V120.868H124.46V121.844L124.363 121.717C124.41 121.592 124.471 121.478 124.546 121.373C124.623 121.268 124.709 121.182 124.804 121.115C124.909 121.03 125.027 120.965 125.159 120.92C125.292 120.875 125.426 120.849 125.563 120.842C125.701 120.832 125.829 120.84 125.949 120.868V121.493C125.809 121.455 125.656 121.445 125.489 121.463C125.321 121.48 125.167 121.541 125.025 121.646C124.895 121.738 124.794 121.85 124.722 121.983C124.652 122.115 124.603 122.258 124.576 122.413C124.548 122.565 124.535 122.721 124.535 122.88V124.908H123.865ZM128.036 125.017C127.555 125.017 127.16 124.912 126.85 124.702C126.544 124.49 126.355 124.195 126.286 123.816L126.966 123.707C127.021 123.927 127.147 124.101 127.344 124.231C127.541 124.358 127.786 124.422 128.078 124.422C128.354 124.422 128.571 124.364 128.729 124.25C128.886 124.135 128.964 123.979 128.964 123.782C128.964 123.667 128.938 123.575 128.886 123.505C128.833 123.433 128.725 123.366 128.56 123.303C128.398 123.241 128.152 123.166 127.823 123.079C127.467 122.984 127.186 122.885 126.981 122.783C126.777 122.681 126.631 122.562 126.544 122.428C126.456 122.293 126.413 122.13 126.413 121.938C126.413 121.701 126.478 121.494 126.607 121.317C126.737 121.137 126.918 120.999 127.15 120.901C127.384 120.804 127.656 120.756 127.965 120.756C128.272 120.756 128.546 120.804 128.788 120.901C129.03 120.999 129.225 121.137 129.372 121.317C129.522 121.494 129.61 121.701 129.638 121.938L128.957 122.061C128.924 121.844 128.82 121.673 128.643 121.549C128.468 121.424 128.242 121.358 127.965 121.35C127.703 121.34 127.49 121.387 127.326 121.489C127.164 121.591 127.082 121.729 127.082 121.904C127.082 122.001 127.112 122.085 127.172 122.155C127.235 122.225 127.348 122.291 127.513 122.353C127.68 122.415 127.922 122.486 128.238 122.566C128.595 122.656 128.876 122.755 129.08 122.862C129.287 122.967 129.434 123.091 129.522 123.236C129.609 123.378 129.653 123.554 129.653 123.763C129.653 124.152 129.509 124.459 129.222 124.684C128.936 124.906 128.54 125.017 128.036 125.017ZM133.355 124.908V122.884C133.355 122.692 133.337 122.508 133.302 122.331C133.27 122.153 133.211 121.995 133.126 121.855C133.044 121.713 132.932 121.601 132.79 121.519C132.65 121.436 132.473 121.395 132.259 121.395C132.091 121.395 131.939 121.424 131.802 121.481C131.667 121.536 131.551 121.621 131.454 121.736C131.357 121.85 131.281 121.995 131.226 122.17C131.174 122.342 131.147 122.545 131.147 122.779L130.71 122.645C130.71 122.253 130.78 121.918 130.919 121.638C131.061 121.357 131.26 121.141 131.514 120.991C131.771 120.839 132.073 120.763 132.419 120.763C132.681 120.763 132.904 120.804 133.089 120.886C133.274 120.969 133.427 121.079 133.549 121.216C133.671 121.35 133.767 121.503 133.837 121.672C133.907 121.839 133.956 122.01 133.983 122.185C134.013 122.357 134.028 122.52 134.028 122.675V124.908H133.355ZM130.474 124.908V119.521H131.073V122.495H131.147V124.908H130.474ZM135.076 120.153V119.465H135.741V120.153H135.076ZM135.076 124.908V120.868H135.741V124.908H135.076ZM138.72 125.02C138.34 125.02 138.021 124.927 137.762 124.74C137.502 124.55 137.305 124.295 137.171 123.973C137.039 123.649 136.972 123.286 136.972 122.884C136.972 122.478 137.039 122.114 137.171 121.792C137.305 121.47 137.502 121.217 137.762 121.032C138.024 120.848 138.344 120.756 138.723 120.756C139.097 120.756 139.419 120.849 139.689 121.036C139.96 121.221 140.169 121.474 140.313 121.796C140.458 122.117 140.53 122.48 140.53 122.884C140.53 123.288 140.458 123.651 140.313 123.973C140.169 124.295 139.96 124.55 139.689 124.74C139.419 124.927 139.096 125.02 138.72 125.02ZM136.86 126.704V120.868H137.455V123.842H137.53V126.704H136.86ZM138.637 124.411C138.904 124.411 139.125 124.343 139.299 124.209C139.474 124.074 139.605 123.892 139.692 123.662C139.78 123.43 139.823 123.171 139.823 122.884C139.823 122.6 139.78 122.343 139.692 122.114C139.607 121.884 139.475 121.702 139.296 121.567C139.119 121.433 138.893 121.365 138.619 121.365C138.357 121.365 138.14 121.43 137.968 121.56C137.796 121.687 137.667 121.865 137.582 122.095C137.497 122.322 137.455 122.585 137.455 122.884C137.455 123.179 137.496 123.442 137.579 123.674C137.663 123.903 137.793 124.084 137.968 124.216C138.142 124.346 138.365 124.411 138.637 124.411Z" fill="black"/>
<path d="M110.527 94.5236C110.503 94.466 110.466 94.4148 110.419 94.3746C110.371 94.3343 110.315 94.3062 110.254 94.2926C110.193 94.279 110.13 94.2803 110.07 94.2964C110.01 94.3125 109.955 94.343 109.909 94.3852L107.972 96.1732L107.143 95.9953L106.965 95.1669L108.753 93.2293C108.796 93.1836 108.826 93.1283 108.842 93.0682C108.858 93.0082 108.86 92.9451 108.846 92.8844C108.832 92.8237 108.804 92.7672 108.764 92.7197C108.724 92.6723 108.673 92.6353 108.615 92.612C108.089 92.3994 107.52 92.3191 106.956 92.3782C106.392 92.4373 105.851 92.634 105.381 92.951C104.911 93.2679 104.526 93.6955 104.26 94.196C103.994 94.6966 103.855 95.2549 103.855 95.8218C103.854 96.3005 103.953 96.7742 104.144 97.2132L101.249 99.7162C101.241 99.722 101.235 99.7287 101.228 99.7349C100.939 100.024 100.777 100.415 100.777 100.823C100.777 101.025 100.817 101.225 100.894 101.412C100.972 101.598 101.085 101.768 101.228 101.911C101.371 102.054 101.541 102.167 101.727 102.245C101.914 102.322 102.114 102.362 102.316 102.362C102.724 102.362 103.116 102.2 103.404 101.911C103.41 101.905 103.417 101.898 103.423 101.891L105.925 98.995C106.453 99.2264 107.029 99.3227 107.603 99.2751C108.177 99.2275 108.729 99.0376 109.211 98.7226C109.693 98.4075 110.089 97.9773 110.362 97.4707C110.636 96.9642 110.779 96.3975 110.778 95.8218C110.779 95.3768 110.694 94.936 110.527 94.5236ZM107.317 98.5142C106.862 98.5136 106.414 98.3978 106.015 98.1777C105.938 98.135 105.849 98.1202 105.762 98.1357C105.675 98.1512 105.596 98.196 105.538 98.2628L102.851 101.375C102.705 101.514 102.512 101.589 102.311 101.587C102.11 101.584 101.919 101.504 101.777 101.362C101.635 101.22 101.554 101.028 101.552 100.828C101.549 100.627 101.625 100.433 101.763 100.288L104.873 97.6007C104.94 97.543 104.985 97.464 105.001 97.3771C105.016 97.2902 105.001 97.2005 104.958 97.1233C104.713 96.6798 104.598 96.1762 104.627 95.6702C104.655 95.1643 104.825 94.6766 105.118 94.2632C105.411 93.8498 105.815 93.5276 106.283 93.3334C106.751 93.1393 107.265 93.0812 107.764 93.1659L106.264 94.7914C106.223 94.8367 106.192 94.8913 106.176 94.9507C106.16 95.0101 106.158 95.0726 106.171 95.1328L106.443 96.3987C106.459 96.4711 106.495 96.5375 106.547 96.5899C106.6 96.6422 106.666 96.6784 106.738 96.6939L108.005 96.9661C108.065 96.979 108.128 96.9772 108.187 96.961C108.247 96.9448 108.301 96.9145 108.347 96.8728L109.972 95.3727C110.037 95.7588 110.017 96.1543 109.913 96.5319C109.81 96.9094 109.625 97.2599 109.373 97.5588C109.12 97.8578 108.805 98.0982 108.45 98.2632C108.095 98.4281 107.708 98.5138 107.317 98.5142Z" fill="#010086"/>
</g>
<defs>
<filter id="filter0_d_2375_7436" x="-0.000180244" y="-0.000180244" width="175.368" height="215.584" filterUnits="userSpaceOnUse" color-interpolation-filters="sRGB">
<feFlood flood-opacity="0" result="BackgroundImageFix"/>
<feColorMatrix in="SourceAlpha" type="matrix" values="0 0 0 0 0 0 0 0 0 0 0 0 0 0 0 0 0 0 127 0" result="hardAlpha"/>
<feOffset/>
<feGaussianBlur stdDeviation="4.09189"/>
<feComposite in2="hardAlpha" operator="out"/>
<feColorMatrix type="matrix" values="0 0 0 0 0 0 0 0 0 0 0 0 0 0 0 0 0 0 0.1 0"/>
<feBlend mode="normal" in2="BackgroundImageFix" result="effect1_dropShadow_2375_7436"/>
<feBlend mode="normal" in="SourceGraphic" in2="effect1_dropShadow_2375_7436" result="shape"/>
</filter>
</defs>
</svg>
