<svg width="75" height="81" viewBox="0 0 75 81" fill="none" xmlns="http://www.w3.org/2000/svg">
<path d="M7.71186 60.9238L0 80.8891L21.9788 84.0594H42.4153L74.0339 80.6323L65.9364 60.9238H35.8602H7.71186Z" fill="#535353"/>
<path fill-rule="evenodd" clip-rule="evenodd" d="M26.6064 60.9238V64.2573L38.0381 68.6357L47.4285 64.2573V60.9238L37.4031 60.9239L26.6064 60.9238Z" fill="#FDB784"/>
<path d="M26.6064 60.9238V64.1415L37.8237 69.4069L48.1997 64.1415V60.9238" stroke="black" stroke-width="1.54237"/>
<path d="M28.9199 46.271H47.4284V61.6947L38.1742 66.3218L28.9199 61.6947V46.271Z" fill="#FDB784"/>
<path d="M52.0566 8.86914L60.1541 12.7251V27.7632L52.0566 30.848V8.86914Z" fill="#4E2B0F"/>
<path d="M24.7737 14.866L35.0804 6.36084L48.5382 7.37302L55.9115 11.9531L59.6631 26.6057V42.0294L51.1888 55.1901L39.3665 58.1098L26.2213 48.9701L22.1494 39.5323L24.7737 14.866Z" fill="#FDB784"/>
<path d="M24.2932 29.3052H17.3525V40.873H24.2932V29.3052Z" fill="#FDB784"/>
<path d="M34.2959 29.6909H41.2793" stroke="black" stroke-width="1.54237"/>
<path d="M58.2461 29.6909L51.2627 29.6909" stroke="black" stroke-width="1.54237"/>
<path d="M39.7169 29.3052H37.4033V31.6187H39.7169V29.3052Z" fill="black"/>
<path d="M55.1407 29.3052H52.8271V31.6187H55.1407V29.3052Z" fill="black"/>
<path d="M48.2002 31.6187L51.2849 38.9449" stroke="black" stroke-width="1.54237"/>
<path d="M60.154 12.7246L53.9845 3.08475L38.1752 0L21.5947 10.0254L18.8955 29.3051H21.9803V34.3178H25.4506V24.2924L30.0777 21.5932L32.0057 12.7246H60.154Z" fill="#4E2B0F"/>
<path d="M33.5479 23.521H42.8021" stroke="#4E2B0F" stroke-width="2.31356"/>
<path d="M48.2002 23.521H57.4544" stroke="#4E2B0F" stroke-width="2.31356"/>
<path d="M62.5909 28.6593L60.8892 27.377H49.9635L48.2979 28.6547L49.6658 34.2438L51.8113 36.2456H59.6247L61.2107 34.2984L62.5909 28.6593Z" stroke="black" stroke-width="1.54237"/>
<path d="M31.332 28.6593L33.0337 27.377H43.9594L45.6251 28.6547L44.2571 34.2438L42.1117 36.2456H34.2982L32.7123 34.2984L31.332 28.6593Z" stroke="black" stroke-width="1.54237"/>
<path d="M45.5 28.5337H48.5847" stroke="black" stroke-width="1.54237"/>
<path d="M31.2346 28.5337H16.582V32.004" stroke="black" stroke-width="1.54237"/>
<path d="M57.5511 10.7969H30.4619L36.9633 15.424H49.6049L49.9661 13.496L53.578 15.424L54.6615 13.496L57.5511 15.424H58.9958L57.5511 10.7969Z" fill="#4E2B0F"/>
<path d="M31.1045 11.1401L34.1892 15.7673" stroke="#4E2B0F" stroke-width="1.54237"/>
<path d="M41.2587 42.4151H52.0553V47.0422H39.3307L35.8604 43.1863L38.9451 40.1016L41.2587 42.4151Z" fill="black"/>
<path d="M48.9705 47.0422V42.4151H41.2587L38.9451 40.1016L35.8604 43.1863L39.3307 47.0422H48.9705Z" fill="white"/>
</svg>
