<svg width="79" height="87" viewBox="0 0 79 87" fill="none" xmlns="http://www.w3.org/2000/svg">
<path d="M56.1056 60.8809H52.1422H38.8477V96.4919L78.1003 87.9939L69.6023 67.1243H58.7478L56.1056 60.8809Z" fill="#535353"/>
<path d="M23.6135 60.8809H27.5769H39.2526V96.4919L0 87.9939L8.49798 67.1243H20.9713L23.6135 60.8809Z" fill="#535353"/>
<path d="M58.4745 68.165L52.8091 75.0447L47.9531 68.5697" stroke="black" stroke-width="1.61867"/>
<path d="M22.0547 68.165L27.72 75.0447L31.362 69.1981" stroke="black" stroke-width="1.61867"/>
<path d="M39.8594 75.2681V85.3847" stroke="black" stroke-width="1.61867"/>
<path d="M43.9038 80.5288H42.2852V82.1475H43.9038V80.5288Z" fill="black"/>
<path d="M20.8398 45.7275V24.6849L22.4585 19.0195L42.2872 51.7975L32.9798 55.4395L23.2678 51.7975V47.7509L20.8398 45.7275Z" fill="#4E2B0F"/>
<path d="M30.1484 52.2021H49.5724V67.5795L41.3452 72.4355L30.1484 67.5795V52.2021Z" fill="#FDB784"/>
<path d="M26.5039 23.551L32.9787 11.3307L57.7104 11.1724L60.9006 16.1867V33.992L62.5192 37.2293L60.4959 51.3927L51.9979 62.4997H39.8579L26.5039 50.988V23.551Z" fill="#FDB784"/>
<path d="M19.7148 30.9355H24.8878V43.0755H19.7148V30.9355Z" fill="#FDB784"/>
<path d="M35.0039 25.4941H45.9299" stroke="#4E2B0F" stroke-width="2.428"/>
<path d="M51.5938 25.4941H60.9013" stroke="#4E2B0F" stroke-width="2.428"/>
<path d="M41.4788 31.7451H39.0508V34.1731H41.4788V31.7451Z" fill="black"/>
<path d="M57.6663 31.7451H55.2383V34.1731H57.6663V31.7451Z" fill="black"/>
<path d="M27.3144 3.72293L16.793 28.7313L18.8163 31.1593H28.1237V22.2258L37.286 11.3307H56.855L60.9016 17.3303V24.6847L62.5203 23.8753L66.567 18.9489L60.9016 3.72293H50.3803L45.1196 0L27.3144 3.72293Z" fill="#4E2B0F"/>
<path d="M28.9355 6.87939L22.0562 10.1167L20.4375 24.6847" stroke="#4E2B0F" stroke-width="1.61867"/>
<path d="M37.4336 31.7451H44.7176" stroke="black" stroke-width="1.61867"/>
<path d="M53.6211 31.7451H60.9051" stroke="black" stroke-width="1.61867"/>
<path d="M24.8867 50.1785V30.9355H28.1241V41.6805L37.8361 49.3692L42.2874 55.8438H52.8087L57.2601 49.3692L61.2065 46.5453L60.4974 51.3925L52.8087 63.1278H39.8594L24.8867 50.1785Z" fill="#995C24"/>
<path fill-rule="evenodd" clip-rule="evenodd" d="M39.8594 47.3678L42.8069 45.2241L44.3657 47.3677H54.168V51.0123H42.5098L39.8594 47.3678Z" fill="black"/>
<path fill-rule="evenodd" clip-rule="evenodd" d="M51.5955 47.3675V51.0121H42.5123L39.0508 46.2526L41.9984 44.1089L44.3683 47.3675H51.5955Z" fill="#F9F9F8"/>
<path d="M45.1223 44.5133L38.2429 48.9647L37.4336 46.132L42.6943 43.2993L45.1223 44.5133Z" fill="#FDB784"/>
<path d="M57.6655 44.9177L53.5281 42.4897L50.3815 44.9177L46.1086 42.4897L39.0508 44.9177V47.3457H57.6655V44.9177Z" fill="#995C24"/>
<path d="M61.7109 19.0195V24.2802L65.7576 25.4942" stroke="#4E2B0F" stroke-width="1.61867"/>
<path d="M51.1895 53.8208H44.7148V56.2488H51.1895V53.8208Z" fill="#995C24"/>
<path fill-rule="evenodd" clip-rule="evenodd" d="M44.8797 28.3267L46.0189 29.6734V33.1338L43.5566 37.7065H36.2101L33.2409 35.2432V30.0888L34.3741 28.3267H44.8797ZM47.6376 29.0806V30.0183H50.3054V29.0806L52.5099 26.708H64.2453L66.3208 29.6132V36.0035L62.317 39.3252H53.4195L50.3054 33.5419V31.6369H47.6376V33.5419L44.5234 39.3252H35.626L31.6222 36.0035V31.2319H19.7319V35.2785H18.1133V29.6132H31.6222L33.4906 26.708H45.6306L47.6376 29.0806ZM53.2155 28.3267L51.9241 29.7165V33.1338L54.3863 37.7065H61.7329L64.7022 35.2432V30.132L63.4124 28.3267H53.2155Z" fill="url(#paint0_linear_2535_1026)"/>
<path d="M50.4062 31.8892L54.4275 42.0854" stroke="black" stroke-width="1.61867"/>
<defs>
<linearGradient id="paint0_linear_2535_1026" x1="41.5678" y1="18.4121" x2="42.217" y2="44.1362" gradientUnits="userSpaceOnUse">
<stop stop-color="#E76AFB"/>
<stop offset="0.567708" stop-color="#E76AFB" stop-opacity="0.44"/>
<stop offset="1" stop-color="#E76AFB"/>
</linearGradient>
</defs>
</svg>
