<svg width="71" height="81" viewBox="0 0 71 81" fill="none" xmlns="http://www.w3.org/2000/svg">
<path d="M47.0227 57.5488H43.4429H35.0898V89.7142L70.5445 82.0384L62.8688 63.1882H49.4093L47.0227 57.5488Z" fill="#535353"/>
<path d="M23.5218 57.5488H27.1016H35.4547V89.7142L0 82.0384L7.67575 63.1882H21.1352L23.5218 57.5488Z" fill="#535353"/>
<path d="M27.7773 47.3145H42.3978V61.9349L36.9151 65.5901L27.7773 61.9349V47.3145Z" fill="#FDB784"/>
<path d="M36.5508 74.3628L33.9922 64.4937H38.7438L36.5508 74.3628Z" fill="#8E8E8E"/>
<path d="M21.5664 64.1279L26.6836 70.3419L31.0697 64.4934" stroke="black" stroke-width="1.46205"/>
<path d="M51.1713 64.1279L46.0541 70.3419L41.668 64.4934" stroke="black" stroke-width="1.46205"/>
<path d="M36.5508 75.2954V81.8746" stroke="black" stroke-width="1.46205"/>
<path d="M40.2081 77.4888H38.7461V78.9508H40.2081V77.4888Z" fill="black"/>
<path d="M19.0421 32.3496L16.8125 19.1841L24.2446 4.51393L43.1964 0L53.9729 7.147L52.3079 10.4682L56.2025 12.7893L61.405 22.9456L57.7499 29.241L53.9729 38.7443L50.963 13.1511L41.3384 32.3496H19.0421Z" fill="#4E2B0F"/>
<path d="M16.082 30.7031H23.3923V41.6685H16.082V30.7031Z" fill="#FDB784"/>
<path d="M23.3907 16.4479L31.566 7.31006H47.5449L57.9498 18.6409V46.0543L48.2881 59.9438H49.403H35.6536L23.3906 46.4199L23.3907 16.4479Z" fill="#FDB784"/>
<path d="M40.207 51.9028H48.9793L47.6635 55.1924V58.4821H41.5229V55.1924L40.207 51.9028Z" fill="#4E2B0F"/>
<path d="M22.3867 48.9788L22.7583 29.9722H26.8216V44.5927L35.7645 44.9582V52.6339L41.698 55.1925H47.6436L52.6329 53.1462V44.9582H57.6891V51.5374L54.8259 57.3856L48.9777 62.8683H37.2509L27.047 56.6546L22.3867 48.9788Z" fill="#4E2B0F"/>
<path d="M51.7961 40.9375H48.611L45.6869 42.1169L42.0318 40.9375H36.6536L33.625 46.9408H54.8247L51.7961 40.9375Z" fill="#4E2B0F"/>
<path d="M32.1641 24.124H42.3984" stroke="#4E2B0F" stroke-width="2.19307"/>
<path d="M47.5156 24.124H57.75" stroke="#4E2B0F" stroke-width="2.19307"/>
<path d="M21.1992 19.0065L26.7496 6.5791H51.1712V10.2342H41.9206L32.3 19.0065L33.04 13.5238L28.2297 19.0065H21.1992Z" fill="#4E2B0F"/>
<path d="M28.5084 22.866V13.8896H22.6602V30.3377H26.6808L28.5084 22.866Z" fill="#4E2B0F"/>
<path fill-rule="evenodd" clip-rule="evenodd" d="M36.5508 46.8049L39.2131 44.8687L40.6211 46.8048H49.4749V50.0968H38.9447L36.5508 46.8049Z" fill="black"/>
<path fill-rule="evenodd" clip-rule="evenodd" d="M47.1512 46.8047V50.0966H38.9469L35.8203 45.7976L38.4826 43.8613L40.6232 46.8047H47.1512Z" fill="#F9F9F8"/>
<path d="M40.938 44.2272L36.5519 46.7858L35.0898 46.0547L39.1105 42.7651L40.938 44.2272Z" fill="#4E2B0F"/>
<path d="M60.9197 30.5492L59.2131 29.2632H48.8565L47.3086 30.4505L48.5532 34.2907L50.608 36.2079H59.4766L60.9197 34.436V30.5492Z" stroke="#8E8E8E" stroke-width="1.46205"/>
<path d="M31.1016 30.5492L32.8082 29.2632H43.1649L44.7127 30.4505L43.4682 34.2906L41.4133 36.2079H32.5448L31.1016 34.436V30.5492Z" stroke="#8E8E8E" stroke-width="1.46205"/>
<path d="M44.625 30.3594H47.5491" stroke="#8E8E8E" stroke-width="1.46205"/>
<path d="M31.1031 30.3594H15.7188V33.649" stroke="#8E8E8E" stroke-width="1.46205"/>
<path d="M46.0547 30.7031L49.7098 39.1099" stroke="black" stroke-width="1.46205"/>
<path d="M35.1367 32.741L36.7608 31.4229H41.6678" stroke="black" stroke-width="1.46205"/>
<path d="M50.4414 31.4229H54.7235L55.8793 32.5222" stroke="black" stroke-width="1.46205"/>
</svg>
