<svg width="71" height="82" viewBox="0 0 71 82" fill="none" xmlns="http://www.w3.org/2000/svg">
<path d="M49.2605 65.6541L46.8812 62.2183H34.9844V92.0996L70.3318 84.4471L65.2301 65.6541H49.2605Z" fill="#535353"/>
<path d="M21.0713 65.6541L23.4507 62.2183H35.3475V92.0996L0 84.4471L6.55932 65.6541H21.0713Z" fill="#535353"/>
<path d="M13.6289 80.4162V66.5742" stroke="#8E8E8E" stroke-width="1.45763"/>
<path d="M56.957 80.4164V66.7856" stroke="#8E8E8E" stroke-width="1.45763"/>
<path d="M22.2969 82.7032V68.3877" stroke="#8E8E8E" stroke-width="1.45763"/>
<path d="M48.293 82.7033V69.1255" stroke="#8E8E8E" stroke-width="1.45763"/>
<path d="M30.9609 84.0644V67.2114" stroke="#8E8E8E" stroke-width="1.45763"/>
<path d="M23.0117 69.0194L28.0101 64.2866" stroke="#8E8E8E" stroke-width="1.45763"/>
<path d="M41.9141 69.0187L47.1543 63.1162" stroke="#8E8E8E" stroke-width="1.45763"/>
<path d="M23.3203 63.6763L28.5415 69.2845" stroke="#8E8E8E" stroke-width="1.45763"/>
<path d="M43.0586 64.0205L47.8442 68.6998" stroke="#8E8E8E" stroke-width="1.45763"/>
<path d="M39.625 84.0639V67.2109" stroke="#8E8E8E" stroke-width="1.45763"/>
<path d="M48.5547 68.3574H54.9716H64.4981" stroke="#8E8E8E" stroke-width="1.45763"/>
<path d="M6.47266 68.3574H12.8896H22.3092" stroke="#8E8E8E" stroke-width="1.45763"/>
<path d="M4.51172 77.1396H66.323" stroke="#8E8E8E" stroke-width="1.45763"/>
<path d="M35.3052 76.4671L33.1602 66.9561H37.8974L35.3052 76.4671Z" fill="white"/>
<path d="M20.7695 66.5913L25.8712 72.7862L31.4653 66.9981" stroke="black" stroke-width="1.45763"/>
<path d="M50.2889 66.5913L45.1872 72.7862L39.3906 66.5913" stroke="black" stroke-width="1.45763"/>
<path d="M35.7109 76.7949V83.3542" stroke="black" stroke-width="1.45763"/>
<path d="M39.3561 78.9814H37.8984V80.4391H39.3561V78.9814Z" fill="black"/>
<path d="M26.9648 49.8286H41.5411V64.4049L37.8951 66.9535H33.157L26.9648 64.4049V49.8286Z" fill="#FDB784"/>
<path d="M20.043 18.8543L30.2464 9.74412L48.4411 8.60986L55.7091 14.6562L56.7965 17.3857L55.7091 28.8801V45.1848L53.9328 49.8289L44.0938 60.7611H34.2549L22.9582 50.9222L20.043 45.1848V18.8543Z" fill="#FDB784"/>
<path fill-rule="evenodd" clip-rule="evenodd" d="M42.3086 46.9136H50.1132L50.2871 44.7879L45.0838 43.2695L42.3086 44.4842V46.9136Z" fill="#995C24"/>
<path fill-rule="evenodd" clip-rule="evenodd" d="M42.3075 46.9136H32.0664V45.0916L37.9748 43.2695L42.3075 44.4842V46.9136Z" fill="#995C24"/>
<path d="M14.3281 32.3374H20.0414V43.2696H14.3281V32.3374Z" fill="#FDB784"/>
<path d="M24.4421 17.9891V29.7712L22.8573 33.2123V38.1559H20.0392V32.339H18.0123L15.4258 18.4215L20.0392 15.4798L18.8525 10.749L21.6136 9.62899L21.0461 7.08835L38.0936 0L51.2146 6.38796L52.8751 10.1989L58.8538 16.3306L57.707 25.0416L55.7078 28.9549V17.9891L51.2146 12.1521L42.7444 13.9741L31.1942 12.1521L24.4421 17.9891Z" fill="#4E2B0F"/>
<path d="M15.043 16.5787L18.4919 14.3975L21.052 15.4741" stroke="#4E2B0F" stroke-width="1.45763"/>
<path d="M18.1992 9.09276L21.8826 7.53564" stroke="#4E2B0F" stroke-width="1.45763"/>
<path d="M29.9297 29.6648L31.5488 28.3506L37.8986 28.3507" stroke="black" stroke-width="1.45763"/>
<path d="M45.9141 28.3506H51.6409L52.7931 29.4466" stroke="black" stroke-width="1.45763"/>
<path d="M35.7138 32.3374H33.5273V34.5238H35.7138V32.3374Z" fill="black"/>
<path d="M50.288 32.3374H48.1016V34.5238H50.288V32.3374Z" fill="black"/>
<path d="M43.1055 33.9678L46.1321 42.6158" stroke="black" stroke-width="1.45763"/>
<path fill-rule="evenodd" clip-rule="evenodd" d="M49.9725 53.2479L49.922 54.5664L44.2672 60.7614H35.6966L30.8945 56.3885V52.0845L37.3547 56.7529L38.4248 59.3037H42.8706L43.9408 56.7529L49.9725 53.2479Z" fill="#995C24"/>
<path d="M37.9672 46.7875H47.0615V52.2536H36.1452L32.1367 48.2451L35.7808 44.6011L37.9672 46.7875Z" fill="black"/>
<path d="M44.8211 49.498V46.7875H37.9671L35.7806 44.6011L33.543 46.7875L36.1451 49.498H44.8211Z" fill="white"/>
<path d="M40.8125 56.3882V58.5746" stroke="black" stroke-width="1.45763"/>
<path d="M25.4811 42.0498H24.0234V43.5074H25.4811V42.0498Z" fill="#995C24"/>
<path d="M23.2975 39.1348H21.8398V40.5924H23.2975V39.1348Z" fill="#995C24"/>
<path d="M27.6686 44.9653H26.2109V46.423H27.6686V44.9653Z" fill="#995C24"/>
<path d="M29.8561 47.8804H28.3984V49.338H29.8561V47.8804Z" fill="#995C24"/>
<path d="M25.4811 47.8804H24.0234V49.338H25.4811V47.8804Z" fill="#995C24"/>
<path d="M52.476 46.4229H53.9336V47.8805H52.476V46.4229Z" fill="#995C24"/>
<path d="M23.2975 44.9653H21.8398V46.423H23.2975V44.9653Z" fill="#995C24"/>
<path d="M27.6686 50.7959H26.2109V52.2535H27.6686V50.7959Z" fill="#995C24"/>
<path d="M29.8561 53.7109H28.3984V55.1686H29.8561V53.7109Z" fill="#995C24"/>
<path d="M51.0853 49.3379H52.543V50.7955H51.0853V49.3379Z" fill="#995C24"/>
</svg>
